<svg id="Layer_1" data-name="Layer 1" xmlns="http://www.w3.org/2000/svg" viewBox="0 0 831.93 121.18"><defs><style>.cls-1{opacity:0.7;}.cls-2{fill:none;stroke:#db7093;}.cls-2,.cls-4{stroke-miterlimit:10;}.cls-3{opacity:0.6;}.cls-4{fill:#db7093;stroke:#914a64;}</style></defs><g class="cls-1"><path class="cls-2" d="M11.73,6.12H46.52q8.68,0,13.35,4.3a14,14,0,0,1,4.65,10.67,13.47,13.47,0,0,1-3.32,9.14,14.75,14.75,0,0,1-6.48,4q6.48,1.56,9.53,5.36a14.66,14.66,0,0,1,3.06,9.53,16.39,16.39,0,0,1-2.17,8.41,16.07,16.07,0,0,1-6,5.91,19.7,19.7,0,0,1-7.06,2,80.19,80.19,0,0,1-8.32.82H11.73ZM30.48,29.7h8.08c2.9,0,4.91-.5,6-1.5a5.47,5.47,0,0,0,1.7-4.32,5.18,5.18,0,0,0-1.7-4.11c-1.14-1-3.11-1.47-5.93-1.47h-8.2Zm0,23.62H40c3.2,0,5.46-.56,6.77-1.7a5.74,5.74,0,0,0,2-4.57,5.3,5.3,0,0,0-1.95-4.29c-1.3-1.08-3.57-1.62-6.83-1.62H30.48Z" transform="translate(-10.43 -4.59)"/><path class="cls-2" d="M112.56,56.32H91.47l-2.93,9.92h-19L92.17,6.12h20.26L135,66.24H115.57Zm-3.85-13L102.07,21.7,95.5,43.32Z" transform="translate(-10.43 -4.59)"/><path class="cls-2" d="M141.18,66.24V6.12h31q8.61,0,13.16,1.47a14,14,0,0,1,7.34,5.48,16.58,16.58,0,0,1,2.79,9.74,16.74,16.74,0,0,1-2.13,8.63,16.64,16.64,0,0,1-5.87,5.89,22.46,22.46,0,0,1-6.52,2.38,18.82,18.82,0,0,1,4.83,2.21,18.39,18.39,0,0,1,3,3.17,23.89,23.89,0,0,1,2.61,3.73l9,17.42h-21L169.4,47.87A14.23,14.23,0,0,0,166,43.23a7.87,7.87,0,0,0-4.56-1.39h-1.64v24.4Zm18.66-35.76h7.84a27.86,27.86,0,0,0,4.92-.82,4.93,4.93,0,0,0,3-1.89,5.54,5.54,0,0,0,1.17-3.48,5.53,5.53,0,0,0-1.84-4.48q-1.86-1.54-6.94-1.55h-8.16Z" transform="translate(-10.43 -4.59)"/><path class="cls-2" d="M206.23,6.12H256V19H224.85v9.56h28.92V40.77H224.85V52.63h32.08V66.24h-50.7Z" transform="translate(-10.43 -4.59)"/><path class="cls-2" d="M335,41.64l16.28,4.92A29.86,29.86,0,0,1,346.09,58a22.47,22.47,0,0,1-8.75,6.93q-5.23,2.34-13.31,2.34-9.81,0-16-2.85t-10.72-10q-4.52-7.17-4.52-18.36,0-14.92,7.94-22.94t22.46-8q11.35,0,17.86,4.59t9.66,14.11l-16.41,3.65a14,14,0,0,0-1.8-4,10.72,10.72,0,0,0-3.82-3.28,11.72,11.72,0,0,0-14.72,3.93q-2.55,3.78-2.55,11.84,0,10,3,13.71a10.41,10.41,0,0,0,8.53,3.7c3.55,0,6.24-1,8.06-3A18.5,18.5,0,0,0,335,41.64Z" transform="translate(-10.43 -4.59)"/><path class="cls-2" d="M358,36.22q0-14.73,8.2-22.93T389,5.09q15,0,23.13,8.06t8.12,22.58q0,10.55-3.55,17.29a25.23,25.23,0,0,1-10.25,10.5q-6.7,3.75-16.72,3.75-10.17,0-16.83-3.24a25.33,25.33,0,0,1-10.81-10.25Q358,46.76,358,36.22Zm18.58.08q0,9.11,3.38,13.09a11.48,11.48,0,0,0,9.21,4q6,0,9.27-3.9t3.28-14q0-8.49-3.43-12.4A11.66,11.66,0,0,0,389,19.16a11.3,11.3,0,0,0-9,4Q376.53,27.12,376.53,36.3Z" transform="translate(-10.43 -4.59)"/><path class="cls-2" d="M427,46.35l17.68-1.11A13.54,13.54,0,0,0,447,51.81a9.85,9.85,0,0,0,8.21,3.65,9.06,9.06,0,0,0,6.13-1.87,5.61,5.61,0,0,0,2.15-4.33,5.51,5.51,0,0,0-2-4.18q-2.06-1.84-9.51-3.49-12.22-2.75-17.44-7.3a14.66,14.66,0,0,1-5.25-11.6A15.79,15.79,0,0,1,432,13.93,17.76,17.76,0,0,1,440,7.45c3.6-1.57,8.52-2.36,14.79-2.36q11.52,0,17.57,4.29T479.6,23l-17.51,1a9.45,9.45,0,0,0-2.94-5.91A9.4,9.4,0,0,0,453,16.29a7.47,7.47,0,0,0-4.88,1.37A4.23,4.23,0,0,0,446.46,21a3.36,3.36,0,0,0,1.35,2.59q1.32,1.18,6.24,2.21,12.18,2.63,17.45,5.31a18.46,18.46,0,0,1,7.67,6.67,16.89,16.89,0,0,1,2.4,8.9,19.05,19.05,0,0,1-3.2,10.66,20,20,0,0,1-8.94,7.41q-5.74,2.52-14.48,2.52-15.34,0-21.25-5.91A23.31,23.31,0,0,1,427,46.35Z" transform="translate(-10.43 -4.59)"/><path class="cls-2" d="M490.72,6.12h24.43l9.42,36.58,9.36-36.58h24.42V66.24H543.13V20.39L531.41,66.24H517.64L505.93,20.39V66.24H490.72Z" transform="translate(-10.43 -4.59)"/><path class="cls-2" d="M570.16,6.12H620V19H588.78v9.56H617.7V40.77H588.78V52.63h32.08V66.24h-50.7Z" transform="translate(-10.43 -4.59)"/><path class="cls-2" d="M626.64,6.12h56.48V21h-19V66.24H645.59V21h-19Z" transform="translate(-10.43 -4.59)"/><path class="cls-2" d="M692.27,6.12h18.62V66.24H692.27Z" transform="translate(-10.43 -4.59)"/><path class="cls-2" d="M764.25,41.64l16.28,4.92A29.86,29.86,0,0,1,775.36,58a22.47,22.47,0,0,1-8.75,6.93q-5.24,2.34-13.31,2.34-9.81,0-16-2.85t-10.72-10Q722,47.23,722,36,722,21.12,730,13.1t22.46-8q11.35,0,17.86,4.59T780,23.79l-16.41,3.65a14,14,0,0,0-1.8-4,10.72,10.72,0,0,0-3.82-3.28,11.72,11.72,0,0,0-14.72,3.93q-2.55,3.78-2.55,11.84,0,10,3,13.71a10.41,10.41,0,0,0,8.53,3.7c3.56,0,6.24-1,8.06-3A18.5,18.5,0,0,0,764.25,41.64Z" transform="translate(-10.43 -4.59)"/><path class="cls-2" d="M786.31,46.35,804,45.24a13.54,13.54,0,0,0,2.34,6.57,9.83,9.83,0,0,0,8.2,3.65,9.07,9.07,0,0,0,6.14-1.87,5.61,5.61,0,0,0,2.15-4.33,5.51,5.51,0,0,0-2.05-4.18q-2.06-1.84-9.52-3.49-12.22-2.75-17.43-7.3a14.66,14.66,0,0,1-5.25-11.6,15.79,15.79,0,0,1,2.69-8.76,17.76,17.76,0,0,1,8.08-6.48q5.38-2.36,14.78-2.36,11.53,0,17.58,4.29T838.9,23l-17.52,1a9.39,9.39,0,0,0-2.93-5.91,9.42,9.42,0,0,0-6.17-1.84,7.47,7.47,0,0,0-4.88,1.37A4.2,4.2,0,0,0,805.76,21a3.36,3.36,0,0,0,1.35,2.59q1.3,1.18,6.23,2.21,12.2,2.63,17.46,5.31a18.46,18.46,0,0,1,7.67,6.67,16.89,16.89,0,0,1,2.4,8.9,19.05,19.05,0,0,1-3.2,10.66,20,20,0,0,1-8.95,7.41q-5.73,2.52-14.47,2.52-15.35,0-21.25-5.91A23.27,23.27,0,0,1,786.31,46.35Z" transform="translate(-10.43 -4.59)"/></g><g class="cls-3"><path class="cls-2" d="M12.73,64.12H47.52q8.68,0,13.35,4.3a14,14,0,0,1,4.65,10.67,13.47,13.47,0,0,1-3.32,9.14,14.75,14.75,0,0,1-6.48,4q6.48,1.56,9.53,5.36a14.66,14.66,0,0,1,3.06,9.53,16.39,16.39,0,0,1-2.17,8.41,16.07,16.07,0,0,1-6,5.91,19.7,19.7,0,0,1-7.06,2,80.19,80.19,0,0,1-8.32.82H12.73ZM31.48,87.7h8.08c2.9,0,4.91-.5,6-1.5a5.47,5.47,0,0,0,1.7-4.32,5.18,5.18,0,0,0-1.7-4.11c-1.14-1-3.11-1.47-5.93-1.47h-8.2Zm0,23.62H41c3.2,0,5.46-.56,6.77-1.7a5.74,5.74,0,0,0,2-4.57,5.3,5.3,0,0,0-1.95-4.29c-1.3-1.08-3.57-1.62-6.83-1.62H31.48Z" transform="translate(-10.43 -4.59)"/><path class="cls-2" d="M113.56,114.32H92.47l-2.93,9.92h-19l22.6-60.12h20.26L136,124.24H116.57Zm-3.85-13L103.07,79.7,96.5,101.32Z" transform="translate(-10.43 -4.59)"/><path class="cls-2" d="M142.18,124.24V64.12h31q8.61,0,13.16,1.47a14,14,0,0,1,7.34,5.48,16.58,16.58,0,0,1,2.79,9.74,16.08,16.08,0,0,1-8,14.52,22.46,22.46,0,0,1-6.52,2.38,18.82,18.82,0,0,1,4.83,2.21,18.39,18.39,0,0,1,3,3.17,23.89,23.89,0,0,1,2.61,3.73l9,17.42h-21l-9.93-18.37a14.23,14.23,0,0,0-3.36-4.64,7.87,7.87,0,0,0-4.56-1.39h-1.64v24.4Zm18.66-35.76h7.84a27.86,27.86,0,0,0,4.92-.82,4.93,4.93,0,0,0,3-1.89,6.1,6.1,0,0,0-.67-8q-1.86-1.55-6.94-1.55h-8.16Z" transform="translate(-10.43 -4.59)"/><path class="cls-2" d="M207.23,64.12H257V77H225.85v9.56h28.92V98.77H225.85v11.86h32.08v13.61h-50.7Z" transform="translate(-10.43 -4.59)"/><path class="cls-2" d="M336,99.64l16.28,4.92A29.86,29.86,0,0,1,347.09,116a22.47,22.47,0,0,1-8.75,6.93q-5.23,2.34-13.31,2.34-9.81,0-16-2.85t-10.72-10q-4.52-7.17-4.52-18.36,0-14.92,7.94-22.94t22.46-8q11.35,0,17.86,4.59t9.66,14.11l-16.41,3.65a14,14,0,0,0-1.8-4,10.72,10.72,0,0,0-3.82-3.28,11.72,11.72,0,0,0-14.72,3.93q-2.55,3.78-2.55,11.84,0,10,3,13.71a10.41,10.41,0,0,0,8.53,3.7c3.55,0,6.24-1,8.06-3A18.5,18.5,0,0,0,336,99.64Z" transform="translate(-10.43 -4.59)"/><path class="cls-2" d="M359,94.22q0-14.73,8.2-22.93T390,63.09q15,0,23.13,8.06t8.12,22.58q0,10.55-3.55,17.29a25.23,25.23,0,0,1-10.25,10.5q-6.7,3.75-16.72,3.75-10.17,0-16.83-3.24a25.33,25.33,0,0,1-10.81-10.25Q359,104.76,359,94.22Zm18.58.08q0,9.11,3.38,13.09a11.48,11.48,0,0,0,9.21,4q6,0,9.27-3.9t3.28-14q0-8.49-3.43-12.4A11.66,11.66,0,0,0,390,77.16a11.3,11.3,0,0,0-9,4Q377.53,85.12,377.53,94.3Z" transform="translate(-10.43 -4.59)"/><path class="cls-2" d="M428,104.35l17.68-1.11a13.54,13.54,0,0,0,2.33,6.57,9.85,9.85,0,0,0,8.21,3.65,9.06,9.06,0,0,0,6.13-1.87,5.61,5.61,0,0,0,2.15-4.33,5.51,5.51,0,0,0-2-4.18q-2.06-1.85-9.51-3.49-12.22-2.75-17.44-7.3a14.66,14.66,0,0,1-5.25-11.6A15.79,15.79,0,0,1,433,71.93,17.76,17.76,0,0,1,441,65.45c3.6-1.57,8.52-2.36,14.79-2.36q11.52,0,17.57,4.29T480.6,81l-17.51,1A8.18,8.18,0,0,0,454,74.29a7.47,7.47,0,0,0-4.88,1.37A4.23,4.23,0,0,0,447.46,79a3.36,3.36,0,0,0,1.35,2.59q1.32,1.18,6.24,2.21,12.18,2.63,17.45,5.31a18.46,18.46,0,0,1,7.67,6.67,16.89,16.89,0,0,1,2.4,8.9,19.05,19.05,0,0,1-3.2,10.66,20,20,0,0,1-8.94,7.41q-5.74,2.52-14.48,2.52-15.34,0-21.25-5.91A23.31,23.31,0,0,1,428,104.35Z" transform="translate(-10.43 -4.59)"/><path class="cls-2" d="M491.72,64.12h24.43l9.42,36.58,9.36-36.58h24.42v60.12H544.13V78.39l-11.72,45.85H518.64L506.93,78.39v45.85H491.72Z" transform="translate(-10.43 -4.59)"/><path class="cls-2" d="M571.16,64.12H621V77H589.78v9.56H618.7V98.77H589.78v11.86h32.08v13.61h-50.7Z" transform="translate(-10.43 -4.59)"/><path class="cls-2" d="M627.64,64.12h56.48V79h-19v45.28H646.59V79h-19Z" transform="translate(-10.43 -4.59)"/><path class="cls-2" d="M693.27,64.12h18.62v60.12H693.27Z" transform="translate(-10.43 -4.59)"/><path class="cls-2" d="M765.25,99.64l16.28,4.92A29.86,29.86,0,0,1,776.36,116a22.47,22.47,0,0,1-8.75,6.93q-5.24,2.34-13.31,2.34-9.81,0-16-2.85t-10.72-10Q723,105.23,723,94,723,79.12,731,71.1t22.46-8q11.35,0,17.86,4.59T781,81.79l-16.41,3.65a14,14,0,0,0-1.8-4,10.72,10.72,0,0,0-3.82-3.28,11.72,11.72,0,0,0-14.72,3.93q-2.55,3.78-2.55,11.84,0,10,3,13.71a10.41,10.41,0,0,0,8.53,3.7c3.56,0,6.24-1,8.06-3A18.5,18.5,0,0,0,765.25,99.64Z" transform="translate(-10.43 -4.59)"/><path class="cls-2" d="M787.31,104.35,805,103.24a13.54,13.54,0,0,0,2.34,6.57,9.83,9.83,0,0,0,8.2,3.65,9.07,9.07,0,0,0,6.14-1.87,5.61,5.61,0,0,0,2.15-4.33,5.51,5.51,0,0,0-2.05-4.18q-2.06-1.85-9.52-3.49-12.22-2.75-17.43-7.3a14.66,14.66,0,0,1-5.25-11.6,15.79,15.79,0,0,1,2.69-8.76,17.76,17.76,0,0,1,8.08-6.48q5.38-2.36,14.78-2.36,11.53,0,17.58,4.29T839.9,81l-17.52,1a8.17,8.17,0,0,0-9.1-7.75,7.47,7.47,0,0,0-4.88,1.37A4.2,4.2,0,0,0,806.76,79a3.36,3.36,0,0,0,1.35,2.59q1.3,1.18,6.23,2.21,12.2,2.63,17.46,5.31a18.46,18.46,0,0,1,7.67,6.67,16.89,16.89,0,0,1,2.4,8.9,19.05,19.05,0,0,1-3.2,10.66,20,20,0,0,1-8.95,7.41q-5.73,2.52-14.47,2.52-15.35,0-21.25-5.91A23.27,23.27,0,0,1,787.31,104.35Z" transform="translate(-10.43 -4.59)"/></g><path class="cls-4" d="M10.93,37.44H45.72q8.69,0,13.35,4.3a14,14,0,0,1,4.65,10.67,13.47,13.47,0,0,1-3.32,9.14,14.75,14.75,0,0,1-6.48,4q6.48,1.56,9.53,5.35a14.71,14.71,0,0,1,3.06,9.54,16.39,16.39,0,0,1-2.17,8.41,16,16,0,0,1-6,5.91,19.7,19.7,0,0,1-7.06,2,80.19,80.19,0,0,1-8.32.82H10.93ZM29.68,61h8.08c2.9,0,4.91-.5,6.05-1.5a5.47,5.47,0,0,0,1.7-4.32,5.18,5.18,0,0,0-1.7-4.11c-1.14-1-3.11-1.47-5.93-1.47h-8.2Zm0,23.62h9.47c3.2,0,5.46-.56,6.77-1.7a5.74,5.74,0,0,0,2-4.57,5.3,5.3,0,0,0-2-4.29c-1.3-1.08-3.57-1.62-6.83-1.62H29.68Z" transform="translate(-10.43 -4.59)"/><path class="cls-4" d="M111.76,87.64H90.67l-2.93,9.92h-19l22.6-60.12h20.26l22.6,60.12H114.77Zm-3.85-13L101.27,53,94.7,74.64Z" transform="translate(-10.43 -4.59)"/><path class="cls-4" d="M140.38,97.56V37.44h31q8.61,0,13.16,1.47a14,14,0,0,1,7.34,5.48,16.58,16.58,0,0,1,2.79,9.74,16.08,16.08,0,0,1-8,14.52A22.46,22.46,0,0,1,180.12,71,18.82,18.82,0,0,1,185,73.24a18.39,18.39,0,0,1,3,3.17,23.89,23.89,0,0,1,2.61,3.73l9,17.42h-21L168.6,79.19a14.23,14.23,0,0,0-3.36-4.64,7.87,7.87,0,0,0-4.56-1.39H159v24.4ZM159,61.8h7.84A27.86,27.86,0,0,0,171.8,61a4.93,4.93,0,0,0,3-1.89,6.1,6.1,0,0,0-.67-8c-1.23-1-3.55-1.55-6.94-1.55H159Z" transform="translate(-10.43 -4.59)"/><path class="cls-4" d="M205.43,37.44h49.79V50.27H224.05v9.56H253V72.09H224.05V84h32.08V97.56h-50.7Z" transform="translate(-10.43 -4.59)"/><path class="cls-4" d="M334.18,73l16.28,4.92a29.86,29.86,0,0,1-5.17,11.44,22.47,22.47,0,0,1-8.75,6.93q-5.24,2.34-13.31,2.34-9.81,0-16-2.85t-10.72-10Q292,78.55,292,67.36q0-14.93,7.94-22.94t22.46-8q11.36,0,17.86,4.59t9.66,14.11l-16.41,3.65a14,14,0,0,0-1.8-4,10.72,10.72,0,0,0-3.82-3.28,11.72,11.72,0,0,0-14.72,3.93q-2.55,3.78-2.55,11.84,0,10,3,13.71a10.41,10.41,0,0,0,8.53,3.7c3.56,0,6.24-1,8.06-3A18.5,18.5,0,0,0,334.18,73Z" transform="translate(-10.43 -4.59)"/><path class="cls-4" d="M357.15,67.54q0-14.73,8.2-22.93t22.85-8.2q15,0,23.13,8.06t8.12,22.58q0,10.55-3.55,17.29a25.35,25.35,0,0,1-10.25,10.5q-6.7,3.75-16.72,3.75-10.17,0-16.83-3.24A25.33,25.33,0,0,1,361.29,85.1Q357.15,78.08,357.15,67.54Zm18.58.08q0,9.1,3.38,13.09a11.48,11.48,0,0,0,9.21,4q6,0,9.27-3.9t3.28-14q0-8.49-3.42-12.4a11.69,11.69,0,0,0-9.29-3.92,11.3,11.3,0,0,0-9,4Q375.73,58.44,375.73,67.62Z" transform="translate(-10.43 -4.59)"/><path class="cls-4" d="M426.22,77.67l17.68-1.11a13.54,13.54,0,0,0,2.33,6.57,9.85,9.85,0,0,0,8.21,3.65,9.06,9.06,0,0,0,6.13-1.87,5.61,5.61,0,0,0,2.15-4.33,5.51,5.51,0,0,0-2.05-4.18q-2.06-1.84-9.51-3.49-12.23-2.75-17.44-7.3A14.66,14.66,0,0,1,428.47,54a15.79,15.79,0,0,1,2.69-8.76,17.76,17.76,0,0,1,8.08-6.48c3.6-1.57,8.52-2.36,14.79-2.36q11.52,0,17.57,4.29t7.2,13.63l-17.51,1a9.45,9.45,0,0,0-2.94-5.91,9.4,9.4,0,0,0-6.17-1.84A7.47,7.47,0,0,0,447.3,49a4.23,4.23,0,0,0-1.64,3.34A3.36,3.36,0,0,0,447,54.91q1.32,1.19,6.24,2.21,12.18,2.63,17.45,5.31a18.46,18.46,0,0,1,7.67,6.67,16.89,16.89,0,0,1,2.4,8.9,19.05,19.05,0,0,1-3.2,10.66,20,20,0,0,1-8.94,7.41q-5.75,2.52-14.48,2.52-15.34,0-21.25-5.91A23.31,23.31,0,0,1,426.22,77.67Z" transform="translate(-10.43 -4.59)"/><path class="cls-4" d="M489.92,37.44h24.43L523.77,74l9.36-36.58h24.42V97.56H542.33V51.71L530.61,97.56H516.84L505.13,51.71V97.56H489.92Z" transform="translate(-10.43 -4.59)"/><path class="cls-4" d="M569.36,37.44h49.8V50.27H588v9.56H616.9V72.09H588V84h32.08V97.56h-50.7Z" transform="translate(-10.43 -4.59)"/><path class="cls-4" d="M625.84,37.44h56.48V52.28h-19V97.56H644.79V52.28H625.84Z" transform="translate(-10.43 -4.59)"/><path class="cls-4" d="M691.47,37.44h18.62V97.56H691.47Z" transform="translate(-10.43 -4.59)"/><path class="cls-4" d="M763.45,73l16.28,4.92a29.86,29.86,0,0,1-5.17,11.44,22.47,22.47,0,0,1-8.75,6.93q-5.23,2.34-13.31,2.34-9.81,0-16-2.85t-10.72-10q-4.51-7.17-4.52-18.36,0-14.93,7.94-22.94t22.46-8Q763,36.41,769.5,41t9.66,14.11l-16.41,3.65a14,14,0,0,0-1.8-4,10.72,10.72,0,0,0-3.82-3.28,11.72,11.72,0,0,0-14.72,3.93q-2.55,3.78-2.55,11.84,0,10,3,13.71a10.41,10.41,0,0,0,8.53,3.7c3.56,0,6.24-1,8.06-3A18.5,18.5,0,0,0,763.45,73Z" transform="translate(-10.43 -4.59)"/><path class="cls-4" d="M785.51,77.67l17.68-1.11a13.54,13.54,0,0,0,2.34,6.57,9.83,9.83,0,0,0,8.2,3.65,9.07,9.07,0,0,0,6.14-1.87A5.61,5.61,0,0,0,822,80.58a5.51,5.51,0,0,0-2-4.18q-2.06-1.84-9.52-3.49-12.23-2.75-17.43-7.3A14.66,14.66,0,0,1,787.77,54a15.79,15.79,0,0,1,2.69-8.76,17.76,17.76,0,0,1,8.08-6.48q5.38-2.35,14.78-2.36,11.53,0,17.58,4.29t7.2,13.63l-17.52,1a9.39,9.39,0,0,0-2.93-5.91,9.42,9.42,0,0,0-6.17-1.84A7.47,7.47,0,0,0,806.6,49,4.2,4.2,0,0,0,805,52.32a3.36,3.36,0,0,0,1.35,2.59q1.31,1.19,6.23,2.21,12.19,2.63,17.46,5.31a18.46,18.46,0,0,1,7.67,6.67,16.89,16.89,0,0,1,2.4,8.9,19.05,19.05,0,0,1-3.2,10.66,20.06,20.06,0,0,1-8.94,7.41q-5.74,2.52-14.48,2.52-15.35,0-21.25-5.91A23.27,23.27,0,0,1,785.51,77.67Z" transform="translate(-10.43 -4.59)"/></svg>