<svg id="Layer_1" data-name="Layer 1" xmlns="http://www.w3.org/2000/svg" viewBox="0 0 536.99 71.5"><defs><style>.cls-1{fill:#d87093;}</style></defs><title>logo</title><path class="cls-1" d="M49.88,270.76a6.37,6.37,0,0,1,1.67.33c.73.21,1.52.47,2.36.77s1.7.63,2.57,1l2.36.93a6,6,0,0,1,2.24,1.59,13.41,13.41,0,0,1,2,2.77,18.52,18.52,0,0,1,1.39,3.34,11.55,11.55,0,0,1,.53,3.3,17.2,17.2,0,0,1-.25,2.52,18.94,18.94,0,0,0-.24,2.61,6.25,6.25,0,0,0,.2,1.91,3.22,3.22,0,0,1,.21,1.18,2.36,2.36,0,0,1-.25,1.06.9.9,0,0,1-.89.49.65.65,0,0,1-.49-.32,7.31,7.31,0,0,1-.49-.74c-.16-.27-.31-.51-.45-.73s-.23-.33-.28-.33a.91.91,0,0,0-.57.29A.92.92,0,0,1,61,293c-.22,0-.48-.2-.78-.61s-.53-.61-.69-.61a.76.76,0,0,0-.85.69,8,8,0,0,0-.13,1.51,8.89,8.89,0,0,1-.12,1.51.76.76,0,0,1-.85.69c-.33,0-.55-.09-.65-.29a2.07,2.07,0,0,1-.25-.69,4.63,4.63,0,0,1-.08-.85,1.67,1.67,0,0,0-.24-.86,10.82,10.82,0,0,0-1-1.54,4.79,4.79,0,0,1-.53-2.77,5.8,5.8,0,0,1,0-.7,8.91,8.91,0,0,0,0-1,44.61,44.61,0,0,0-.2-4.65c-.14-1.19-.45-1.79-.94-1.79-.33,0-.61.34-.86,1a7.83,7.83,0,0,0-.36,2.57,8.72,8.72,0,0,0,.28,2,9.06,9.06,0,0,1,.29,2.08,2.9,2.9,0,0,1-.21,1.14.83.83,0,0,1-.85.49.78.78,0,0,1-.73-.49,5.42,5.42,0,0,1-.41-1.14,6.58,6.58,0,0,1-.2-1.26c0-.41,0-.7,0-.86a11.26,11.26,0,0,1,.09-1.38,13.73,13.73,0,0,0,.08-1.39c0-1.08-.3-1.63-.9-1.63a1.12,1.12,0,0,0-.85.41,1.29,1.29,0,0,0-.37.9,3.43,3.43,0,0,0,.65,1.87A3.07,3.07,0,0,1,50,286.8a1.67,1.67,0,0,1-.32,1.06.92.92,0,0,1-.74.41,1.35,1.35,0,0,1-.69-.16,1.36,1.36,0,0,0-.69-.17.46.46,0,0,0-.49.41,4.15,4.15,0,0,0-.08.73,6.58,6.58,0,0,0,.12,1.47,3.87,3.87,0,0,0,.29.82,5.3,5.3,0,0,1,.28.65,2.35,2.35,0,0,1,.12.81,5.92,5.92,0,0,1-.2,1.47c-.14.54-.27,1.08-.41,1.63s-.27,1.07-.4,1.58a5.31,5.31,0,0,0-.21,1.35,3.11,3.11,0,0,0,.33,1.34,12.34,12.34,0,0,0,1.22,1.92,5,5,0,0,1,.9,2.93,20.71,20.71,0,0,0,.16,3.09,10.1,10.1,0,0,1,.16,1.22,2.33,2.33,0,0,1-.37,1.14,2.56,2.56,0,0,1-1.34,1.06,1.92,1.92,0,0,0-.94.53,1.08,1.08,0,0,0-.2.61,1.71,1.71,0,0,0,.57,1A1.86,1.86,0,0,1,47.6,315a1.4,1.4,0,0,1-.49,1,2.85,2.85,0,0,0-.45,1.34c0,.47,0,.94,0,1.43a2,2,0,0,0,.53,1.59,1.79,1.79,0,0,0,1.18.44,4.33,4.33,0,0,0,.9-.16,4.46,4.46,0,0,1,1.06-.16,1.94,1.94,0,0,1,.94.32,1.81,1.81,0,0,0,.93.33A2.25,2.25,0,0,0,54,319.83a10.43,10.43,0,0,0,1.1-2.81,23.24,23.24,0,0,0,.57-3.3c.11-1.11.17-2.05.17-2.81a8.63,8.63,0,0,0-.08-1.34,5.23,5.23,0,0,1-.09-1c0-.82.25-1.22.74-1.22a1.8,1.8,0,0,1,1.1.4,1.55,1.55,0,0,0,.93.41,1.29,1.29,0,0,0,.86-.32,1.13,1.13,0,0,1,.77-.33,1.73,1.73,0,0,1,.9.24,1.77,1.77,0,0,0,1,.25,1.46,1.46,0,0,0,.86-.33,1.43,1.43,0,0,1,.69-.32,2.12,2.12,0,0,1,1.55.93,3.6,3.6,0,0,1,.49,1.92,4.61,4.61,0,0,1-.29,1.59l-.57,1.54c-.19.52-.38,1.06-.57,1.63a5.75,5.75,0,0,0-.28,1.83,11.33,11.33,0,0,0,.08,1.39,16.94,16.94,0,0,1,.08,1.71,5.48,5.48,0,0,1-1.18,3.42,37.13,37.13,0,0,1-3.87,4.07,6.44,6.44,0,0,1-1.79,1.14A4.69,4.69,0,0,0,55.26,330a1.38,1.38,0,0,0-.29.61l-.24.93a3.35,3.35,0,0,1-.33.86c-.13.24-.28.37-.45.37s-.35-.17-.57-.49-.44-.69-.69-1.1a7.89,7.89,0,0,0-.77-1.1,1.07,1.07,0,0,0-.74-.49.77.77,0,0,0-.81.65c-.11.44-.2.9-.29,1.39a11.59,11.59,0,0,1-.32,1.38,1,1,0,0,1-1,.65c-.27,0-.45-.27-.53-.81s-.16-1.13-.24-1.75a11,11,0,0,0-.37-1.75,1,1,0,0,0-1-.82.51.51,0,0,0-.57.41q-.07.4-.12.93c0,.36-.07.67-.12.94a.46.46,0,0,1-.49.41c-.22,0-.39-.18-.53-.53s-.27-.76-.41-1.22-.28-.9-.44-1.31a1.32,1.32,0,0,0-.65-.77,2.92,2.92,0,0,0-.66-.24,1.38,1.38,0,0,1-.57-.33,2.5,2.5,0,0,1-.69-1.06c-.19-.49-.37-1-.53-1.46s-.3-.93-.41-1.31-.21-.57-.32-.57-.18.15-.2.45-.18.45-.45.45c-.49,0-.74-.79-.74-2.36a3.06,3.06,0,0,1,.21-1.31,2.42,2.42,0,0,0,.2-1.05c0-.49-.12-.78-.36-.86s-.37-.34-.37-.77a4.14,4.14,0,0,1,.24-1.35,3.36,3.36,0,0,0,.25-.93c0-.66-.08-1-.25-1a.38.38,0,0,0-.36.24.39.39,0,0,1-.37.25c-.27,0-.41-.19-.41-.57a5.2,5.2,0,0,1,.17-1.35c.1-.4.21-.86.32-1.38s.22-1.13.33-1.83a18.12,18.12,0,0,0,.16-2.69c0-2.88-.08-6.13-.24-9.77S38,289.17,38,285.26q0-8.64,4.64-10.75A28.76,28.76,0,0,0,45.81,273c.81-.46,1.48-.85,2-1.18l1.23-.77A1.58,1.58,0,0,1,49.88,270.76Z" transform="translate(-37.5 -270.76)"/><path class="cls-1" d="M77.41,271.74a10.93,10.93,0,0,1,1.91.69,5.88,5.88,0,0,0,2.4.53,5.73,5.73,0,0,0,2.69-.53,4.25,4.25,0,0,1,2-.53c.76,0,1.19.25,1.3.73s.33,1.36.65,2.61l.73,2.69c.11.54.22,1.1.33,1.67s.19,1.07.24,1.5a9.74,9.74,0,0,1-.16,1.55,10.07,10.07,0,0,0-.16,1.63,33.88,33.88,0,0,0,.49,6,12.78,12.78,0,0,0,.4,1.54c.28.93.57,2.08.9,3.46s.62,2.85.9,4.4a25,25,0,0,1,.4,4.28,13.06,13.06,0,0,0,.29,2.93c.19.81.39,1.56.61,2.24s.42,1.36.61,2a8.33,8.33,0,0,1,.28,2.24,23.18,23.18,0,0,0,.21,2.61,27.42,27.42,0,0,0,.93,4.23c.38,1.52.71,2.75,1,3.67a21.16,21.16,0,0,1,.57,2.36c.11.65.19,1.21.25,1.67a14.78,14.78,0,0,1,.08,1.59c0,2.22-.68,3.34-2,3.34-.87,0-1.3-.46-1.3-1.39a5.87,5.87,0,0,1,.08-.89,6.11,6.11,0,0,0,.08-.9c0-.65-.24-1-.73-1a.71.71,0,0,0-.69.57,5.27,5.27,0,0,0-.29,1.23c0,.43-.12.84-.2,1.22s-.29.57-.61.57-.49-.19-.65-.57a7.16,7.16,0,0,1-.41-1.26,10.79,10.79,0,0,0-.37-1.27c-.13-.38-.31-.57-.53-.57s-.49.6-.49,1.47a8,8,0,0,0,.13,1.22,10.11,10.11,0,0,1,.12,1.47,2,2,0,0,1-.29,1.18.85.85,0,0,1-.69.36c-.38,0-.68-.24-.89-.73a6.08,6.08,0,0,1-.45-1.79c-.08-.71-.14-1.47-.17-2.28s0-1.58,0-2.28a14.26,14.26,0,0,0-.53-3,13.61,13.61,0,0,1-.44-3.51,12.32,12.32,0,0,0-.37-3.25c-.24-.87-.67-1.31-1.26-1.31-.27,0-.49.19-.65.57a7.16,7.16,0,0,0-.41,1.26,5.75,5.75,0,0,1-.45,1.27.86.86,0,0,1-.77.57,1.27,1.27,0,0,1-.86-.45,10.16,10.16,0,0,1-.89-1c-.3-.38-.57-.72-.82-1s-.45-.44-.61-.44c-.38,0-.57.32-.57,1a1.88,1.88,0,0,0,.25,1.18,2,2,0,0,1,.24,1.18q0,.49-.81.9a1.3,1.3,0,0,0-.82,1.22,3.52,3.52,0,0,0,.29,1.22,4,4,0,0,1,.28,1.47c0,.71-.16,1.14-.49,1.3s-.68.33-1.06.49a2.65,2.65,0,0,0-1.06.9,4.56,4.56,0,0,0-.48,2.52,11,11,0,0,1-.13,1.79.9.9,0,0,1-1,.82,1,1,0,0,1-1.06-.65,6.8,6.8,0,0,1-.37-1.43c-.08-.52-.18-1-.28-1.42a.74.74,0,0,0-.74-.66.77.77,0,0,0-.53.33c-.19.22-.36.45-.53.69a6.22,6.22,0,0,1-.52.69.79.79,0,0,1-.53.33c-.6,0-.9-.33-.9-1a5.34,5.34,0,0,1,.08-1q.08-.42.21-1c.08-.41.14-.91.2-1.51s.08-1.38.08-2.36v-3.18a13.79,13.79,0,0,1,.24-2.77l.74-3.58,1.79-7.41a7.84,7.84,0,0,0,.32-1.95.83.83,0,0,0-.2-.62,1.11,1.11,0,0,1-.2-.77,7.56,7.56,0,0,1,.2-1.55,19.73,19.73,0,0,1,.61-2c.22-.82.38-1.55.49-2.2s.2-1.4.29-2.24.2-1.89.36-3.14.44-2.93.82-5.05c.21-1.35.39-2.93.53-4.72s.29-3.5.48-5.13a21.7,21.7,0,0,1,.82-4.11C76.17,272.3,76.7,271.74,77.41,271.74Zm3.42,25.73c-.27,0-.49.21-.65.61a9.23,9.23,0,0,0-.45,1.47,12.51,12.51,0,0,0-.29,1.83c0,.65-.08,1.22-.08,1.71a2.82,2.82,0,0,0,.25,1.35,2.88,2.88,0,0,1,.32.85,1.42,1.42,0,0,1-.28.69,2.55,2.55,0,0,0-.29,1.35c0,.65.84,1,2.53,1A3.91,3.91,0,0,0,83.8,308c.35-.22.53-.46.53-.73a5,5,0,0,0-.16-1.06,6.38,6.38,0,0,1-.17-1.55c0-1.36,0-2.44,0-3.26a13,13,0,0,0-.16-1.83,2.28,2.28,0,0,0-.24-.77c-.09-.11-.15-.17-.21-.17-.22,0-.35.15-.41.45s-.1.63-.16,1a4.85,4.85,0,0,1-.24,1,.59.59,0,0,1-.57.44c-.27,0-.45-.2-.53-.61a7.16,7.16,0,0,1-.12-1.38,9.64,9.64,0,0,0-.09-1.39C81.18,297.68,81,297.47,80.83,297.47Z" transform="translate(-37.5 -270.76)"/><path class="cls-1" d="M119.67,271.58a8.71,8.71,0,0,1,2.89.52,7.59,7.59,0,0,0,2.41.53,2.27,2.27,0,0,0,1.34-.32,1.82,1.82,0,0,1,1.1-.33q1.71,0,1.71,6.52a7.92,7.92,0,0,1-.41,2.52,24.82,24.82,0,0,1-.93,2.4,22.54,22.54,0,0,0-.94,2.45,8.58,8.58,0,0,0-.41,2.64,16.43,16.43,0,0,0,.13,2,18.53,18.53,0,0,1,.12,2,13.55,13.55,0,0,1-.12,1.95,12.13,12.13,0,0,0-.13,2,11.61,11.61,0,0,0,.17,1.71c.1.71.24,1.47.4,2.28s.3,1.67.41,2.57a20.41,20.41,0,0,1,.16,2.48,11.22,11.22,0,0,1-.2,2.2,12.55,12.55,0,0,0-.2,2.53c0,.7,0,1.45,0,2.24s0,1.56,0,2.32c0,1.14,0,2.06,0,2.77a15.38,15.38,0,0,1-.17,1.79,9.1,9.1,0,0,1-.32,1.34c-.14.41-.34.94-.61,1.59s-2,2.2-5.3,5a4.54,4.54,0,0,0-1.87,3.58,5,5,0,0,0,.25,1.83,3.45,3.45,0,0,1,.24,1.27,1.37,1.37,0,0,1-1.55,1.54,1.32,1.32,0,0,1-1.18-.44,2.37,2.37,0,0,1-.28-1.27,8.25,8.25,0,0,1,.12-1.42,7.37,7.37,0,0,0,.12-.86,1.44,1.44,0,0,0-.45-1,1.42,1.42,0,0,0-1.1-.49,1,1,0,0,0-.89.65.9.9,0,0,1-.9.57,2.05,2.05,0,0,1-1.14-.69c-.49-.47-.84-.7-1.06-.7a.88.88,0,0,0-.69.33,1.91,1.91,0,0,0-.28,1.22,13.49,13.49,0,0,0,.48,2.85,18.68,18.68,0,0,1,.49,4.56,3.32,3.32,0,0,1-.45,1.51,1.69,1.69,0,0,1-1.66.85c-1.14,0-1.72-.7-1.72-2.11a27.11,27.11,0,0,1,.25-3.91,18.65,18.65,0,0,0,.24-2.53,16.16,16.16,0,0,0-.28-2.32,8.35,8.35,0,0,0-2.32-3.87,22,22,0,0,1-4.64-7.53,23.68,23.68,0,0,1-1.39-7.94c0-1,0-1.94.08-2.89s.08-2,.08-3c0-1.25,0-2.56-.16-3.91S99,298.32,99,296.9a35.44,35.44,0,0,1,.65-6.8,40.24,40.24,0,0,0,.65-7.53V281a9.66,9.66,0,0,0-.08-1.26,5.64,5.64,0,0,0-.37-1.75,6.46,6.46,0,0,0-.61-1.18,10.2,10.2,0,0,1-.57-1,3,3,0,0,1-.24-1.26,2.18,2.18,0,0,1,.69-1.59,5.81,5.81,0,0,1,1.63-1.14,9.72,9.72,0,0,1,1.91-.69,6.67,6.67,0,0,1,1.63-.25,9.09,9.09,0,0,1,2.28.25,3.41,3.41,0,0,1,1.67,1,6,6,0,0,1,1.18,2,15,15,0,0,1,.74,3.42c.27,2,.48,3.69.65,5.21a46.09,46.09,0,0,1,.24,4.81,56.15,56.15,0,0,1-.28,5.66c-.19,1.87-.4,3.61-.61,5.21s-.44,3-.66,4.32-.35,2.24-.4,2.89c-.17,1.41-.3,2.78-.41,4.11s-.16,2.29-.16,2.89a7.41,7.41,0,0,0,2.44,5.82,5.81,5.81,0,0,0,1.91,1.18,4.77,4.77,0,0,0,1.43.33,2.05,2.05,0,0,0,1.34-.49,3.8,3.8,0,0,0,1.06-1.63,12.85,12.85,0,0,0,.69-3.05,37.19,37.19,0,0,0,.25-4.77c0-1.84,0-3.51-.12-5s-.18-2.87-.29-4.12-.2-2.41-.28-3.5-.13-2.17-.13-3.26a32.11,32.11,0,0,1,.37-4.76,33.73,33.73,0,0,0,.37-5,11.39,11.39,0,0,0-.25-1.83c-.16-.84-.34-1.76-.53-2.77s-.36-2-.53-3a15.43,15.43,0,0,1-.24-2.36,2.71,2.71,0,0,1,.41-1.63,2.61,2.61,0,0,1,2.11-1.18C119,271.59,119.35,271.58,119.67,271.58Z" transform="translate(-37.5 -270.76)"/><path class="cls-1" d="M154.53,319.46a2.76,2.76,0,0,1,2.08.61,2,2,0,0,1,.52,1.35,3,3,0,0,1-.52,1.5,3.08,3.08,0,0,0-.53,1.1,3.31,3.31,0,0,0,.32,1.26,3.36,3.36,0,0,1,.33,1.19c0,.59-.46,1.11-1.39,1.54a4.69,4.69,0,0,0-2,1.31,2.2,2.2,0,0,0-.57,1.05,3.84,3.84,0,0,0,.32,1.43,4.64,4.64,0,0,1,.33,1.83,1.22,1.22,0,0,1-.37,1,1.17,1.17,0,0,1-1.46.12.88.88,0,0,1-.29-.77,8.88,8.88,0,0,1,.08-1,8.69,8.69,0,0,0,.09-1.26,6.49,6.49,0,0,0-.33-2,1.39,1.39,0,0,0-1.47-1c-.32,0-.51.29-.57.86s-.09,1.21-.12,1.91-.07,1.35-.12,1.92-.22.85-.49.85c-.43,0-.69-.24-.77-.73s-.17-1-.25-1.63a5,5,0,0,0-.49-1.63,1.5,1.5,0,0,0-1.5-.73,1.73,1.73,0,0,0-.9.32,1.56,1.56,0,0,1-.81.33,2.82,2.82,0,0,1-1.51-.57,2.75,2.75,0,0,0-1.34-.57,5.65,5.65,0,0,0-2.53.53,2,2,0,0,0-1.06,1.91,7.88,7.88,0,0,0,.09.9c.05.43.08.73.08.89,0,.6-.28.9-.82.9s-.8-.39-.93-1.18-.26-1.64-.37-2.57a2.85,2.85,0,0,0-.73-1.1,3.12,3.12,0,0,1-.82-1.34,13.2,13.2,0,0,1-.28-1.71,17,17,0,0,1-.13-1.87v-5.46a20.8,20.8,0,0,0-.48-4.52,17.73,17.73,0,0,1-.49-3.95,6.36,6.36,0,0,1,.24-1.63,17.87,17.87,0,0,1,.57-1.75c.22-.57.42-1.12.61-1.67a4.49,4.49,0,0,0,.29-1.46,10.62,10.62,0,0,0,.08-1.18v-1.1c0-.82,0-1.6,0-2.37s0-1.43,0-2a5.92,5.92,0,0,1,.2-1.47c.14-.54.27-1.11.41-1.71s.27-1.18.41-1.75a7.2,7.2,0,0,0,.2-1.59,6.07,6.07,0,0,0-.33-2.11,15.26,15.26,0,0,0-.69-1.67c-.24-.52-.46-1-.65-1.51a4,4,0,0,1-.29-1.47,17.32,17.32,0,0,1,.41-2.28,18.73,18.73,0,0,0,.41-4,5.64,5.64,0,0,0-.45-1.83,5.6,5.6,0,0,1-.45-1.67c0-1.74.79-2.6,2.36-2.6a5.23,5.23,0,0,1,2.41.77,6.23,6.23,0,0,0,3.05.77,5.84,5.84,0,0,1,2.44.49,2.08,2.08,0,0,1,1.06,2.12,4.94,4.94,0,0,1-.32,1.34,4.86,4.86,0,0,0-.33,1.51,8.85,8.85,0,0,0,.25,1.87,9.51,9.51,0,0,1,.24,1.88,3.79,3.79,0,0,1-.41,1.46,3.86,3.86,0,0,0-.4,1.55,1.87,1.87,0,0,0,.24.73,10.68,10.68,0,0,0,.57,1,7.64,7.64,0,0,1,.57,1.1,2.62,2.62,0,0,1,.24,1,2.65,2.65,0,0,1-.89,1.75,2.69,2.69,0,0,0-.9,1.83,7.4,7.4,0,0,0,.25,1.55,10.35,10.35,0,0,1,.24,1.22,2.93,2.93,0,0,1-.53,1.67,3.31,3.31,0,0,0-.53,1.91c0,.06,0,.29.08.69s.13.86.21,1.35.15,1,.2,1.46.08.87.08,1.14a22.34,22.34,0,0,1-.28,3.22,22.66,22.66,0,0,0-.29,3.22,6.89,6.89,0,0,0,.29,2.2,4.66,4.66,0,0,1,.28,1.54,10.17,10.17,0,0,1,0,1.06c0,.27,0,.68,0,1.22a4.1,4.1,0,0,0,.94,2.85,3.23,3.23,0,0,0,2.56,1.06,8.27,8.27,0,0,0,1.88-.32,7.86,7.86,0,0,1,1.95-.33,7.15,7.15,0,0,1,.77,0,4.64,4.64,0,0,0,.7,0c.43,0,.85,0,1.26,0S154.2,319.46,154.53,319.46Z" transform="translate(-37.5 -270.76)"/><path class="cls-1" d="M187,309.53a8.39,8.39,0,0,1-.24,1.91,11.83,11.83,0,0,0-.25,2.65,5.16,5.16,0,0,0,.37,2.15,3.49,3.49,0,0,1,.37,1.43,1.47,1.47,0,0,1-.29,1,7,7,0,0,1-.61.61l-.61.53a.81.81,0,0,0-.28.65,5.13,5.13,0,0,0,.08,1.1c.05.24.1.46.16.65s.11.39.16.61a4.55,4.55,0,0,1,.08,1.06,1.06,1.06,0,0,1-.32.61c-.22.24-.45.52-.69.81a7.29,7.29,0,0,0-.7,1,2.35,2.35,0,0,0-.32,1.14,7.63,7.63,0,0,0,0,.82,11.28,11.28,0,0,1,0,1.14c0,.81-.33,1.22-1,1.22a1.38,1.38,0,0,1-.77-.33,9.61,9.61,0,0,1-.9-.73c-.3-.27-.58-.52-.85-.73a1.22,1.22,0,0,0-.65-.33,1,1,0,0,0-1,.77,4.84,4.84,0,0,0-.29,1.67,6.71,6.71,0,0,0,.08,1.1,4.41,4.41,0,0,1,.09.86c0,.43-.2.65-.57.65s-.53-.24-.78-.73-.52-1-.81-1.59a10.78,10.78,0,0,0-1-1.59,1.62,1.62,0,0,0-1.3-.73c-.66,0-1.08.17-1.27.53a1,1,0,0,1-.93.53,1.49,1.49,0,0,1-.94-.37,10.74,10.74,0,0,0-1.1-.77,8.48,8.48,0,0,0-1.67-.78,8.08,8.08,0,0,0-2.64-.36,1.46,1.46,0,0,0-.94.28,2.37,2.37,0,0,0-.61.69,2.94,2.94,0,0,0-.33.82,3.89,3.89,0,0,0-.08.65,3.43,3.43,0,0,0,.61,1.51,3.42,3.42,0,0,1,.61,1.67c0,.86-.46,1.3-1.38,1.3a1.54,1.54,0,0,1-.78-.29,1.32,1.32,0,0,1-.44-1.18,7.38,7.38,0,0,1,.16-1.46,6.74,6.74,0,0,0,.16-1.22c0-.11,0-.44-.12-1a.82.82,0,0,0-.86-.82.59.59,0,0,0-.44.21.86.86,0,0,1-.61.2.5.5,0,0,1-.53-.32,1.94,1.94,0,0,1-.13-.66,2.56,2.56,0,0,1,.33-1.3,3.72,3.72,0,0,0,.33-1.79c0-1.14,0-2.06-.09-2.77s-.09-1.3-.12-1.79-.07-.9-.12-1.22a6.48,6.48,0,0,1-.08-1,16.93,16.93,0,0,1,.24-2.81,13.1,13.1,0,0,0,.25-2.08,2.35,2.35,0,0,0-.21-1.06l-.85-1.71a2.33,2.33,0,0,1-.41-1.22,12.61,12.61,0,0,1,.45-2.93,12.53,12.53,0,0,0,.45-2.93,26,26,0,0,1,.49-5.25,25.13,25.13,0,0,0,.48-4.93,5.79,5.79,0,0,0-.32-1.87,5.86,5.86,0,0,1-.33-1.22,10.28,10.28,0,0,1,.57-3.63,8.34,8.34,0,0,0,.57-1.83,1.76,1.76,0,0,0-.44-1.22c-.3-.33-.63-.65-1-1a10.42,10.42,0,0,1-1-1,1.87,1.87,0,0,1-.45-1.26c0-.76,0-1.34,0-1.75s-.05-.75-.08-1,0-.51-.08-.73a6.3,6.3,0,0,1,0-.82,4,4,0,0,1,.53-2.16,2.37,2.37,0,0,1,2.16-.85c.16,0,.48,0,1,.08s.79.08.9.08a6,6,0,0,0,1.95-.36,5.52,5.52,0,0,1,1.39-.37A3.06,3.06,0,0,1,168,273a3.84,3.84,0,0,0,1.54.65,4.07,4.07,0,0,0,1.63-.45,4.24,4.24,0,0,1,1.63-.44,5.61,5.61,0,0,1,2.2.53,7.23,7.23,0,0,0,2.28.61,8,8,0,0,1,5.86,3.33,18.87,18.87,0,0,1,3.42,8.31c0,.27,0,.56,0,.86s.05.58.05.85a6.61,6.61,0,0,1-.25,2.12,2.76,2.76,0,0,1-.49.9,1.76,1.76,0,0,1-.49.36c-.16.08-.24.29-.24.61a8,8,0,0,0,.37,2.24q.36,1.26.81,2.49c.3.81.57,1.58.81,2.32a5.84,5.84,0,0,1,.37,1.83q0,4.32-.24,6.6C187.1,308.2,187,309.15,187,309.53Zm-9.12-4c0-1.74.07-3.53.2-5.38s.21-3.72.21-5.62a4.57,4.57,0,0,0-.33-1.87,1.2,1.2,0,0,0-1.22-.73.87.87,0,0,0-.77.48,6.81,6.81,0,0,0-.49,1c-.14.36-.29.69-.45,1a.78.78,0,0,1-.73.49c-.44,0-.65-.44-.65-1.3a20.26,20.26,0,0,1,.24-3.26,17.29,17.29,0,0,0,.24-1.79c0-.76,0-1.37,0-1.84s0-.88,0-1.26a3.78,3.78,0,0,0-.17-1.26c-.11-.3-.46-.45-1.06-.45q-.57,0-.57.9a7.28,7.28,0,0,0,.25,1.63,6.79,6.79,0,0,1,.24,1.46c0,.38-.13.57-.4.57a1.57,1.57,0,0,1-1.43-.69,3.14,3.14,0,0,1-.45-1.75,5.93,5.93,0,0,1,.21-1.26,6.42,6.42,0,0,0,.2-1.27,2.8,2.8,0,0,0-.41-1.42q-.41-.69-.81-.69c-.33,0-.53.3-.61.89a11,11,0,0,0-.12,1.31c.1.54.17,1,.2,1.26s.07.6.12.89a5,5,0,0,1,.08.61,3.69,3.69,0,0,1-.36,1.59,4.61,4.61,0,0,0-.37,2,6.94,6.94,0,0,0,.86,3.38,6.31,6.31,0,0,1,.85,3,11,11,0,0,1-.2,2.28c-.14.6-.28,1.17-.41,1.71s-.27,1.13-.41,1.75a12.16,12.16,0,0,0-.2,2.4c0,.76,0,1.43.08,2a6.26,6.26,0,0,0,.49,1.83,13,13,0,0,0,.77,1.47,3.05,3.05,0,0,1,.45,1.63c0,.48-.19.73-.57.73a3.76,3.76,0,0,1-.53-.12,3.16,3.16,0,0,0-.61-.13.8.8,0,0,0-.77.37,1.43,1.43,0,0,0-.21.69,9.76,9.76,0,0,0,.17,1.39,16.89,16.89,0,0,0,.48,2.07,6.56,6.56,0,0,0,.9,1.92,1.66,1.66,0,0,0,1.38.81c.44,0,.83,0,1.19,0s.71,0,1.09,0a5.11,5.11,0,0,0,1.71-.28,2.62,2.62,0,0,0,1.39-1.3,9.65,9.65,0,0,0,.9-3,35.55,35.55,0,0,0,.32-5.33v-3.58Z" transform="translate(-37.5 -270.76)"/><path class="cls-1" d="M221.23,325.9a2.5,2.5,0,0,1-.74,1.91A8.62,8.62,0,0,1,218.9,329a13.27,13.27,0,0,0-1.54,1,1.69,1.69,0,0,0-.69,1.42,3.79,3.79,0,0,0,.16.86,6.28,6.28,0,0,1,.16,1.59,12.88,12.88,0,0,1-.45,3.58c-.3,1-.66,1.55-1.1,1.55s-.73-.44-.73-1.31c0-.65,0-1.23.08-1.75a10.44,10.44,0,0,0,.08-1.18c0-.43,0-1-.08-1.59a18.3,18.3,0,0,0-.24-1.83,12.71,12.71,0,0,0-.37-1.55c-.14-.43-.31-.65-.53-.65a1.46,1.46,0,0,0-.81.21,2.7,2.7,0,0,0-.53.4,4.57,4.57,0,0,0-.37.41.58.58,0,0,1-.49.2,1.14,1.14,0,0,1-.49-.12.54.54,0,0,1-.24-.53,6.88,6.88,0,0,1,.24-1.3,7.41,7.41,0,0,0,.25-1.87,10.3,10.3,0,0,0-1-4.16,27.81,27.81,0,0,1-1.67-4.15,10.72,10.72,0,0,1-.53-2.77,5.54,5.54,0,0,1,.08-1,4.13,4.13,0,0,0,.09-.89,4.29,4.29,0,0,0-.82-2.53,3.72,3.72,0,0,1-.81-2.11,3.84,3.84,0,0,1,.16-1.31,3.45,3.45,0,0,0,.16-1.22c0-.6-.24-.89-.73-.89a1.87,1.87,0,0,0-1.18.4c-.36.27-.53.87-.53,1.79a4.55,4.55,0,0,0,.12,1.31,2.07,2.07,0,0,1,.12.73c0,.22-.05.35-.16.41a.79.79,0,0,1-.32.08c-.28,0-.47-.18-.58-.53s-.2-.73-.28-1.14-.16-.77-.24-1.1-.26-.49-.53-.49-.49.49-.49,1.47c0,.16,0,.51.08,1.06s.09,1.1.12,1.67.07,1.11.12,1.62.08.83.08.94c0,.27,0,.71-.08,1.3s-.12,1.29-.2,2.08-.15,1.62-.2,2.48-.09,1.66-.09,2.37a12.13,12.13,0,0,0,.45,3.25,13.18,13.18,0,0,1,.45,3.51,24.62,24.62,0,0,1-.12,3q-.12.81-.78.81A.88.88,0,0,1,201,332a5.08,5.08,0,0,1-.37-1.14c-.08-.4-.17-.78-.28-1.14a.65.65,0,0,0-.65-.53,1.85,1.85,0,0,0-1.39.78,2.55,2.55,0,0,0-.65,1.67,10.53,10.53,0,0,0,.24,2.07,10.58,10.58,0,0,1,.25,1.43c0,.54-.33.81-1,.81-.43,0-.68-.17-.73-.53a6.55,6.55,0,0,1-.08-1.1c0-.16,0-.47,0-.93s0-.83,0-1.1a6.31,6.31,0,0,0-.21-1.67c-.13-.52-.69-1.07-1.66-1.67-.77-.44-1.2-.84-1.31-1.22a3.6,3.6,0,0,1-.16-1,3,3,0,0,1,.2-.81c.14-.38.3-.79.49-1.23a12.8,12.8,0,0,0,.49-1.3,3.8,3.8,0,0,0,.2-1,12,12,0,0,0-.24-2.28c-.16-.81-.33-1.6-.49-2.36s-.32-1.45-.49-2.07a6.36,6.36,0,0,1-.24-1.35,14.53,14.53,0,0,1,.24-2.56c.17-.9.33-1.74.49-2.53s.33-1.49.49-2.11a6.36,6.36,0,0,0,.24-1.35,16.24,16.24,0,0,0-.2-2.24c-.14-.89-.29-1.82-.45-2.77s-.31-1.82-.45-2.6a12.13,12.13,0,0,1-.2-1.75,8.17,8.17,0,0,1,.9-3.63,8.6,8.6,0,0,0,.89-3.79,9.64,9.64,0,0,0-.65-3.42,23.16,23.16,0,0,1-.81-2.36A10.71,10.71,0,0,0,193,281a6.88,6.88,0,0,1-.49-2.11,10.86,10.86,0,0,1,.24-2,11.36,11.36,0,0,0,.25-2.12,3,3,0,0,0-.17-.77,3.19,3.19,0,0,1-.16-.94,1.09,1.09,0,0,1,.53-1,2,2,0,0,1,1-.32,2.65,2.65,0,0,1,.85.2l1.1.41,1.1.41a2.58,2.58,0,0,0,.78.2,9.38,9.38,0,0,0,1.67-.2,8.49,8.49,0,0,1,1.66-.21,29.71,29.71,0,0,1,3.26.21,32.29,32.29,0,0,0,3.26.2h-.08a27.32,27.32,0,0,1,6.19,1.79,12.81,12.81,0,0,1,3.42,2.16,5.14,5.14,0,0,1,1.46,2.16c.22.7.38,1.3.49,1.79.22,1.14.4,2.2.53,3.18a23.63,23.63,0,0,1,.21,3.33,10.29,10.29,0,0,1-.45,2.61,10.43,10.43,0,0,0-.45,2.61,36,36,0,0,1-.24,3.7,33.86,33.86,0,0,0-.25,3.71,4.62,4.62,0,0,0,.12,1.22,2.54,2.54,0,0,1,.13.65,1.92,1.92,0,0,1-.45,1.26,1.3,1.3,0,0,1-1,.53c-.38,0-.76-.28-1.14-.85s-.76-.86-1.14-.86a.37.37,0,0,0-.41.41,2.69,2.69,0,0,0,.61,1.67,2.63,2.63,0,0,1,.61,1.67,2.68,2.68,0,0,1-.2,1,2.83,2.83,0,0,0-.2,1.14,4.88,4.88,0,0,0,.48,2q.66,1.54.9,2a8.2,8.2,0,0,1,.49,1.3,10,10,0,0,1,.24,1.59c.06.62.1,1.25.13,1.87s.05,1.22.08,1.79a3.4,3.4,0,0,0,.28,1.35,6.93,6.93,0,0,0,.65,1.26c.33.52.67,1.06,1,1.63a18.11,18.11,0,0,1,.94,1.71A3.61,3.61,0,0,1,221.23,325.9Zm-11.41-34.21a6.86,6.86,0,0,0-.28-2.56,2.32,2.32,0,0,1-.29-1.1,4.19,4.19,0,0,1,.13-1.27,2.43,2.43,0,0,0,.12-.77,4.59,4.59,0,0,0-.82-2.77,2.79,2.79,0,0,0-2.44-1.14,1.12,1.12,0,0,0-1.06.86,4.8,4.8,0,0,0-.32,1.75c0,.16,0,.4,0,.73s0,.54,0,.65c0,.6-.17.9-.49.9a.63.63,0,0,1-.65-.45,7.6,7.6,0,0,1-.29-1,5.63,5.63,0,0,0-.32-1,.66.66,0,0,0-.61-.44c-.28,0-.41.35-.41,1.06,0,.16,0,.55.08,1.18s.12,1.27.2,1.95.15,1.33.21,2,.08,1,.08,1.18a3.62,3.62,0,0,1-.2,1.26,3.18,3.18,0,0,0-.21,1.18c0,.71.33,1.06,1,1.06a1.55,1.55,0,0,0,.77-.16,1.22,1.22,0,0,1,.61-.17.78.78,0,0,1,.61.37l.62.81a6.11,6.11,0,0,0,.69.82,1.17,1.17,0,0,0,.85.36c.76,0,1.35-.5,1.75-1.5A10.13,10.13,0,0,0,209.82,291.69Z" transform="translate(-37.5 -270.76)"/><path class="cls-1" d="M235.64,270.84a15.14,15.14,0,0,1,3.91.57,30.25,30.25,0,0,1,4.19,1.47,25.66,25.66,0,0,1,3.83,2,13.22,13.22,0,0,1,2.73,2.28,11,11,0,0,1,1.95,3.87,24.77,24.77,0,0,1,.65,6.56c0,2.06-.06,3.92-.2,5.58s-.3,3.19-.49,4.6-.35,2.77-.49,4.07-.2,2.63-.2,4v3c0,1.8-.06,3.26-.16,4.4a26.45,26.45,0,0,1-.41,2.85,9.42,9.42,0,0,1-.57,1.88,13.77,13.77,0,0,0-.57,1.46,12.37,12.37,0,0,0-.41,1.67,14.44,14.44,0,0,0-.16,2.4,30.14,30.14,0,0,1-.61,6.89c-.41,1.65-.91,2.48-1.51,2.48a.73.73,0,0,1-.65-.45,8.18,8.18,0,0,1-.45-1,5.57,5.57,0,0,0-.45-1q-.24-.45-.57-.45c-.54,0-.86.39-1,1.18a18.43,18.43,0,0,0-.17,2.56,14.73,14.73,0,0,1-.2,2.57c-.14.78-.48,1.18-1,1.18a1.17,1.17,0,0,1-.81-.41,4.38,4.38,0,0,1-.57-2.28c-.11-1.25-.21-2.17-.29-2.77s-.36-.89-.85-.89a1,1,0,0,0-.94.53.87.87,0,0,1-.77.53c-.33,0-.67-.28-1-.82a1.63,1.63,0,0,0-1.43-.81,1,1,0,0,0-.93.73c-.19.49-.37,1-.53,1.59s-.33,1.08-.49,1.55-.41.69-.73.69a1.45,1.45,0,0,1-1.06-.53,4.21,4.21,0,0,1-.57-1.22c-.16-.52-.33-1.14-.49-1.88a22.24,22.24,0,0,0-.73-2.48c-.33-1-.63-1.76-.9-2.36a8.57,8.57,0,0,0-.73-1.35,2.14,2.14,0,0,0-.57-.57,1.11,1.11,0,0,0-.49-.12,1,1,0,0,0-1,.65,3.79,3.79,0,0,0-.24,1.31,5.44,5.44,0,0,0,0,.73,3.74,3.74,0,0,1,0,.49c0,.59-.33.89-1,.89q-.41,0-.81-1.14a24.36,24.36,0,0,1-.78-2.81c-.24-1.11-.43-2.26-.57-3.46a29.14,29.14,0,0,1-.2-3.09,16.83,16.83,0,0,1,.2-2.4c.14-.9.3-1.8.49-2.69s.36-1.72.49-2.49a10.61,10.61,0,0,0,.21-1.87,5.93,5.93,0,0,0-.37-1.87c-.25-.71-.53-1.47-.86-2.28a25.89,25.89,0,0,1-.85-2.53,9.28,9.28,0,0,1-.37-2.6,15.59,15.59,0,0,1,.29-2.36c.19-1.09.4-2.22.65-3.38s.47-2.27.69-3.3a12.2,12.2,0,0,0,.33-2.28,3.86,3.86,0,0,0-.29-1.55,5.41,5.41,0,0,1-.28-2,7.76,7.76,0,0,1,.2-1.67c.13-.62.28-1.22.45-1.79s.31-1.08.45-1.54.23-.78.28-.94a7,7,0,0,1,2-3.34,16.39,16.39,0,0,1,3.29-2.44,18.48,18.48,0,0,1,3.3-1.47A9.24,9.24,0,0,1,235.64,270.84Zm0,12.22c-.49,0-.84.31-1.06.94a5.07,5.07,0,0,0-.33,1.66,14.51,14.51,0,0,0,.33,3.18,13,13,0,0,1,.33,2.85c0,.87,0,1.58,0,2.12a12.41,12.41,0,0,1-.13,1.34c-.05.36-.09.67-.12.94a7.32,7.32,0,0,0,0,.81,12.92,12.92,0,0,0,.16,1.79c.11.77.25,1.55.41,2.37s.3,1.57.41,2.28a11,11,0,0,1,.16,1.54,19.48,19.48,0,0,1-.24,3.22c-.17.95-.36,1.85-.57,2.69s-.41,1.65-.57,2.44a11.37,11.37,0,0,0-.25,2.4,4.12,4.12,0,0,0,.65,1.88q.66,1.31,1,2.07a9,9,0,0,0,.69,1.23,1.74,1.74,0,0,0,.65.57,3,3,0,0,0,1,.12,3.27,3.27,0,0,0,2.36-.94,3.05,3.05,0,0,0,1-2.32,7.44,7.44,0,0,0-.12-1.06,7.59,7.59,0,0,1-.12-1.14c0-.16,0-.47,0-.94s0-1,0-1.75,0-1.64-.08-2.81-.08-2-.08-2.64v-1a4,4,0,0,1,.08-.86c0-.27.12-.58.2-.93s.2-.8.37-1.35a9.33,9.33,0,0,0,.49-2.93,23.08,23.08,0,0,0-.53-4.88,29.56,29.56,0,0,1-.53-6.19,11.06,11.06,0,0,1,.36-2.94,9.58,9.58,0,0,0,.37-2.68,3.52,3.52,0,0,0-.37-1.63,1.35,1.35,0,0,0-1.34-.73q-.33,0-.57.69c-.16.46-.33,1-.49,1.5a14.68,14.68,0,0,1-.53,1.51c-.19.46-.39.69-.61.69s-.39-.16-.53-.49-.28-.67-.45-1.05a6,6,0,0,0-.57-1.06A.94.94,0,0,0,235.64,283.06Z" transform="translate(-37.5 -270.76)"/><path class="cls-1" d="M287.27,312.46a2.43,2.43,0,0,1-.28,1.1c-.2.35-.43.72-.7,1.1a5.57,5.57,0,0,0-.77,2.48c-.08.95-.12,1.81-.12,2.57,0,1.46,0,2.55.08,3.25s.11,1.24.16,1.59a7,7,0,0,0,.16.82,3.85,3.85,0,0,1,.09,1,4.9,4.9,0,0,1-.25,1.43,9.05,9.05,0,0,1-1.22,2.16,1.8,1.8,0,0,0-.41,1,9.79,9.79,0,0,0,.29,1.76,9.32,9.32,0,0,1,.28,1.91,1.07,1.07,0,0,1-.49,1,1.89,1.89,0,0,1-1,.28c-.87,0-1.31-.51-1.31-1.55,0-.21,0-.5,0-.85s0-.61,0-.77a8.14,8.14,0,0,0-.37-2.94c-.25-.54-.5-.81-.78-.81a.66.66,0,0,0-.61.37,3.7,3.7,0,0,0-.32.81,5.09,5.09,0,0,1-.29.81c-.11.25-.24.37-.4.37s-.52-.22-.74-.65a15.62,15.62,0,0,1-.65-1.59c-.22-.62-.42-1.27-.61-1.95a6.41,6.41,0,0,0-.69-1.67,18.18,18.18,0,0,0-1.55-2.12,3.67,3.67,0,0,1-.65-2.44,6.43,6.43,0,0,1,.12-1.31c.08-.37.16-.74.25-1.1s.16-.71.24-1.09A7.36,7.36,0,0,0,275,316c0-.81-.32-1.22-1-1.22-1.2,0-1.8,1.11-1.8,3.34a4.12,4.12,0,0,1-.69,2.68c-.46.55-.83.82-1.1.82-.43,0-.65-.57-.65-1.71a26.8,26.8,0,0,1,.29-3.91,32.51,32.51,0,0,0,.28-4.48,36.83,36.83,0,0,0-.2-3.71,31.62,31.62,0,0,0-.57-3.5,11.48,11.48,0,0,0-.9-2.6c-.35-.68-.75-1-1.18-1s-.62.23-.9.69a3.6,3.6,0,0,0-.4,1.83,10.07,10.07,0,0,0,.24,2.16,9.81,9.81,0,0,1,.25,2.08,7.28,7.28,0,0,1-.17,1.51,8.35,8.35,0,0,0-.16,1.75,9.94,9.94,0,0,0,.29,2,13.49,13.49,0,0,1,.28,2.65,2.63,2.63,0,0,1-.61,1.67,2.61,2.61,0,0,0-.61,1.67,7,7,0,0,0,.41,2.16,7.22,7.22,0,0,1,.4,2.15,7,7,0,0,0,.25,2.41,3.25,3.25,0,0,1,.24,1.34,3.49,3.49,0,0,1-.77,2.2,3.12,3.12,0,0,0-.78,1.3,13.45,13.45,0,0,0,.09,1.63c.05.49.08.87.08,1.14,0,.81-.36,1.22-1.06,1.22-.54,0-.87-.6-1-1.79a4.69,4.69,0,0,0-.53-2.08,3.38,3.38,0,0,0-1-1.14,4,4,0,0,0-1-.49,3.42,3.42,0,0,0-.74-.12,2.16,2.16,0,0,0-.93.25.88.88,0,0,0-.53.89,5.07,5.07,0,0,0,.32,1.35,4.76,4.76,0,0,1,.33,1.5,2.83,2.83,0,0,1-.45,2c-.3.27-.5.4-.61.4s-.44-.17-.65-.52a7.33,7.33,0,0,1-.61-1.31,10.25,10.25,0,0,1-.45-1.63,8.38,8.38,0,0,1-.16-1.58,20.22,20.22,0,0,1,.08-2.2c.05-.49.08-.93.08-1.31a13.22,13.22,0,0,0-.08-1.42,11.11,11.11,0,0,1-.08-1.43,9,9,0,0,1,.65-3.42,9.62,9.62,0,0,0,.65-3.58,13.08,13.08,0,0,0-.33-2.16,15.36,15.36,0,0,1-.32-3,4.68,4.68,0,0,1,.32-1.71c.22-.54.48-1.1.78-1.67a14.3,14.3,0,0,0,.77-1.75,5.38,5.38,0,0,0,.33-1.87,8.26,8.26,0,0,0-.21-1.71,14.9,14.9,0,0,0-.49-1.84q-.28-.86-.48-1.59a4.45,4.45,0,0,1-.21-1,6.58,6.58,0,0,1,.21-1.31q.19-.89.48-2c.19-.71.36-1.4.49-2.08a8.85,8.85,0,0,0,.21-1.75,5.71,5.71,0,0,0-.7-2.69,6,6,0,0,1-.69-2.85,5,5,0,0,1,.21-1.38,12,12,0,0,1,.48-1.43c.19-.46.36-.86.49-1.22a2.41,2.41,0,0,0,.21-.77,15.83,15.83,0,0,0-.25-2.69,16,16,0,0,1-.24-2.52,3.54,3.54,0,0,1,1.3-2.77c.87-.76,2.33-1.14,4.4-1.14q4.15,0,4.15,2.2a7,7,0,0,1-.16,1.59,6.45,6.45,0,0,0-.16,1.5,6.55,6.55,0,0,0,.28,2.12,8.64,8.64,0,0,0,.78,1.63c.32.54.73,1.17,1.22,1.87a28.24,28.24,0,0,1,1.71,2.93,7,7,0,0,1,.69,2.2c.13.87.23,1.73.28,2.57s.09,1.64.09,2.4a5.72,5.72,0,0,0,.16,1.63,4.94,4.94,0,0,0,.69,1.38,3.9,3.9,0,0,1,.61,2.12,1.83,1.83,0,0,1-.16.77,1.72,1.72,0,0,0-.16.7,9,9,0,0,0,.28,2.64,1.14,1.14,0,0,0,1.18.86c.76,0,1.14-.41,1.14-1.22a5.55,5.55,0,0,1,.33-2,6.57,6.57,0,0,0,.32-2.24,4.85,4.85,0,0,0-.16-.93c-.11-.47-.23-1-.37-1.67s-.25-1.37-.36-2.16a16.79,16.79,0,0,1-.17-2.32,25.06,25.06,0,0,1,.45-5.42,14.65,14.65,0,0,0,.45-3.3,5.21,5.21,0,0,0-.24-1.46c-.17-.55-.33-1.09-.49-1.63s-.33-1.07-.49-1.59a4.69,4.69,0,0,1-.25-1.34,2.41,2.41,0,0,1,.62-1.67,4.63,4.63,0,0,1,1.58-1.14,8.85,8.85,0,0,1,2.2-.66,15,15,0,0,1,2.36-.2,3.76,3.76,0,0,1,3.26,1.59,6.89,6.89,0,0,1,1.14,4.11,4.79,4.79,0,0,1-.16.94c-.11.46-.25.94-.41,1.42s-.3,1-.41,1.47a6.3,6.3,0,0,0-.16,1.06,7.37,7.37,0,0,0,.33,2.2c.21.7.47,1.42.77,2.16a21.17,21.17,0,0,1,.77,2.19,8.1,8.1,0,0,1,.33,2.33,3.22,3.22,0,0,1-.77,2.23l-1.59,1.76a5.56,5.56,0,0,0-.82,2.07,11,11,0,0,0-.32,2.16,7,7,0,0,0,.2,1.3c.14.6.27,1.25.41,2s.27,1.4.41,2.07a9.17,9.17,0,0,1,.2,1.51,5.46,5.46,0,0,1-.08,1,5.13,5.13,0,0,0-.08,1.06,2.64,2.64,0,0,0,.2.57q.21.48.45,1.14c.16.43.31.87.45,1.3A3.88,3.88,0,0,1,287.27,312.46Z" transform="translate(-37.5 -270.76)"/><path class="cls-1" d="M320,270.76a6.44,6.44,0,0,1,1.67.33c.73.21,1.52.47,2.36.77s1.69.63,2.56,1l2.36.93a6,6,0,0,1,2.24,1.59,13.07,13.07,0,0,1,2,2.77,17.79,17.79,0,0,1,1.38,3.34,11.22,11.22,0,0,1,.53,3.3,18.4,18.4,0,0,1-.24,2.52,19.23,19.23,0,0,0-.25,2.61,5.87,5.87,0,0,0,.21,1.91A3.44,3.44,0,0,1,335,293a2.36,2.36,0,0,1-.24,1.06.91.91,0,0,1-.9.49.69.69,0,0,1-.49-.32c-.16-.22-.32-.47-.49-.74l-.44-.73c-.14-.22-.24-.33-.29-.33a1,1,0,0,0-.57.29.92.92,0,0,1-.49.28c-.22,0-.47-.2-.77-.61s-.53-.61-.69-.61a.77.77,0,0,0-.86.69,9,9,0,0,0-.12,1.51,8.89,8.89,0,0,1-.12,1.51.77.77,0,0,1-.86.69.67.67,0,0,1-.65-.29,2.07,2.07,0,0,1-.24-.69,3.89,3.89,0,0,1-.09-.85,1.67,1.67,0,0,0-.24-.86,10.82,10.82,0,0,0-1-1.54,4.87,4.87,0,0,1-.53-2.77c0-.22,0-.45,0-.7a8.91,8.91,0,0,0,0-1,42,42,0,0,0-.2-4.65c-.14-1.19-.45-1.79-.94-1.79-.32,0-.61.34-.85,1a7.55,7.55,0,0,0-.37,2.57,8.81,8.81,0,0,0,.29,2,9,9,0,0,1,.28,2.08,3.09,3.09,0,0,1-.2,1.14.84.84,0,0,1-.86.49.79.79,0,0,1-.73-.49,6,6,0,0,1-.41-1.14,7.47,7.47,0,0,1-.2-1.26c0-.41,0-.7,0-.86a13.54,13.54,0,0,1,.08-1.38,13.73,13.73,0,0,0,.08-1.39c0-1.08-.3-1.63-.89-1.63a1.14,1.14,0,0,0-.86.41,1.32,1.32,0,0,0-.36.9,3.36,3.36,0,0,0,.65,1.87,3.18,3.18,0,0,1,.65,1.46,1.62,1.62,0,0,1-.33,1.06.91.91,0,0,1-.73.41,1.35,1.35,0,0,1-.69-.16,1.37,1.37,0,0,0-.7-.17.45.45,0,0,0-.48.41,3.38,3.38,0,0,0-.08.73,6.58,6.58,0,0,0,.12,1.47,3.9,3.9,0,0,0,.28.82,5.37,5.37,0,0,1,.29.65,2.35,2.35,0,0,1,.12.81,6.43,6.43,0,0,1-.2,1.47c-.14.54-.28,1.08-.41,1.63s-.27,1.07-.41,1.58a5.72,5.72,0,0,0-.2,1.35,3.24,3.24,0,0,0,.32,1.34,14.1,14.1,0,0,0,1.22,1.92,5,5,0,0,1,.9,2.93,20.71,20.71,0,0,0,.16,3.09,11.11,11.11,0,0,1,.17,1.22,2.44,2.44,0,0,1-.37,1.14,2.56,2.56,0,0,1-1.34,1.06,1.87,1.87,0,0,0-.94.53,1,1,0,0,0-.2.61,1.71,1.71,0,0,0,.57,1,1.86,1.86,0,0,1,.57,1.26,1.44,1.44,0,0,1-.49,1,2.85,2.85,0,0,0-.45,1.34c0,.47,0,.94,0,1.43a2,2,0,0,0,.53,1.59,1.75,1.75,0,0,0,1.18.44,4.44,4.44,0,0,0,.9-.16,4.39,4.39,0,0,1,1.05-.16,1.91,1.91,0,0,1,.94.32,1.81,1.81,0,0,0,.94.33,2.25,2.25,0,0,0,1.83-1.26,10.77,10.77,0,0,0,1.1-2.81,23.24,23.24,0,0,0,.57-3.3c.11-1.11.16-2.05.16-2.81a8.63,8.63,0,0,0-.08-1.34,6.21,6.21,0,0,1-.08-1c0-.82.24-1.22.73-1.22a1.78,1.78,0,0,1,1.1.4,1.58,1.58,0,0,0,.94.41,1.27,1.27,0,0,0,.85-.32,1.15,1.15,0,0,1,.78-.33,1.72,1.72,0,0,1,.89.24,1.81,1.81,0,0,0,1,.25,1.48,1.48,0,0,0,.86-.33,1.35,1.35,0,0,1,.69-.32,2.1,2.1,0,0,1,1.54.93,3.51,3.51,0,0,1,.49,1.92,4.59,4.59,0,0,1-.28,1.59l-.57,1.54c-.19.52-.38,1.06-.57,1.63a5.75,5.75,0,0,0-.29,1.83,13.73,13.73,0,0,0,.08,1.39,14.25,14.25,0,0,1,.09,1.71,5.54,5.54,0,0,1-1.18,3.42,37.13,37.13,0,0,1-3.87,4.07,6.36,6.36,0,0,1-1.8,1.14,4.76,4.76,0,0,0-1.87,1.47,1.39,1.39,0,0,0-.28.61c-.09.3-.17.61-.25.93a3.76,3.76,0,0,1-.32.86c-.14.24-.29.37-.45.37s-.36-.17-.57-.49-.45-.69-.69-1.1a8.87,8.87,0,0,0-.78-1.1c-.27-.33-.51-.49-.73-.49a.76.76,0,0,0-.81.65c-.11.44-.21.9-.29,1.39a9.93,9.93,0,0,1-.33,1.38.93.93,0,0,1-1,.65c-.28,0-.45-.27-.53-.81s-.17-1.13-.25-1.75a11,11,0,0,0-.36-1.75,1,1,0,0,0-1-.82c-.33,0-.52.14-.57.41a5.86,5.86,0,0,0-.12.93,7.11,7.11,0,0,1-.13.94.45.45,0,0,1-.48.41c-.22,0-.4-.18-.53-.53a12.37,12.37,0,0,1-.41-1.22c-.14-.46-.29-.9-.45-1.31a1.28,1.28,0,0,0-.65-.77,3,3,0,0,0-.65-.24,1.26,1.26,0,0,1-.57-.33,2.5,2.5,0,0,1-.69-1.06c-.19-.49-.37-1-.53-1.46s-.3-.93-.41-1.31-.22-.57-.33-.57-.17.15-.2.45-.18.45-.45.45c-.49,0-.73-.79-.73-2.36a3.25,3.25,0,0,1,.2-1.31,2.28,2.28,0,0,0,.21-1.05c0-.49-.13-.78-.37-.86s-.37-.34-.37-.77a4.16,4.16,0,0,1,.25-1.35,3.61,3.61,0,0,0,.24-.93c0-.66-.08-1-.24-1a.4.4,0,0,0-.37.24.38.38,0,0,1-.36.25c-.28,0-.41-.19-.41-.57a5.21,5.21,0,0,1,.16-1.35q.16-.6.33-1.38c.1-.52.21-1.13.32-1.83a17.94,17.94,0,0,0,.17-2.69c0-2.88-.09-6.13-.25-9.77s-.24-7.41-.24-11.32q0-8.64,4.64-10.75a29.39,29.39,0,0,0,3.17-1.51c.82-.46,1.48-.85,2-1.18l1.22-.77A1.61,1.61,0,0,1,320,270.76Z" transform="translate(-37.5 -270.76)"/><path class="cls-1" d="M351.2,270.84a15.2,15.2,0,0,1,3.91.57,30.25,30.25,0,0,1,4.19,1.47,26.16,26.16,0,0,1,3.83,2,13.78,13.78,0,0,1,2.73,2.28,11.2,11.2,0,0,1,1.95,3.87,25.21,25.21,0,0,1,.65,6.56c0,2.06-.07,3.92-.2,5.58s-.3,3.19-.49,4.6-.35,2.77-.49,4.07-.2,2.63-.2,4v3c0,1.8-.06,3.26-.16,4.4a26.45,26.45,0,0,1-.41,2.85,11,11,0,0,1-.57,1.88,13.77,13.77,0,0,0-.57,1.46,11,11,0,0,0-.41,1.67,14.44,14.44,0,0,0-.16,2.4,30.73,30.73,0,0,1-.61,6.89c-.41,1.65-.91,2.48-1.51,2.48a.73.73,0,0,1-.65-.45,8.18,8.18,0,0,1-.45-1,6.36,6.36,0,0,0-.45-1q-.24-.45-.57-.45c-.54,0-.87.39-1,1.18a20.2,20.2,0,0,0-.16,2.56,15.77,15.77,0,0,1-.2,2.57c-.14.78-.48,1.18-1,1.18a1.17,1.17,0,0,1-.81-.41,4.18,4.18,0,0,1-.57-2.28c-.11-1.25-.21-2.17-.29-2.77s-.36-.89-.85-.89a1,1,0,0,0-.94.53.87.87,0,0,1-.77.53c-.33,0-.67-.28-1-.82a1.64,1.64,0,0,0-1.43-.81,1,1,0,0,0-.93.73c-.19.49-.37,1-.53,1.59s-.33,1.08-.49,1.55-.41.69-.74.69a1.43,1.43,0,0,1-1.05-.53,4.21,4.21,0,0,1-.57-1.22,19.19,19.19,0,0,1-.49-1.88A24.6,24.6,0,0,0,346,329c-.33-1-.63-1.76-.9-2.36a8.57,8.57,0,0,0-.73-1.35,2.14,2.14,0,0,0-.57-.57,1.14,1.14,0,0,0-.49-.12,1,1,0,0,0-1,.65,3.79,3.79,0,0,0-.24,1.31,5.44,5.44,0,0,0,0,.73c0,.22,0,.38,0,.49,0,.59-.33.89-1,.89q-.4,0-.81-1.14a22.5,22.5,0,0,1-.78-2.81c-.24-1.11-.43-2.26-.57-3.46a29.14,29.14,0,0,1-.2-3.09,16.83,16.83,0,0,1,.2-2.4c.14-.9.3-1.8.49-2.69s.35-1.72.49-2.49a11.49,11.49,0,0,0,.2-1.87,5.89,5.89,0,0,0-.36-1.87c-.25-.71-.53-1.47-.86-2.28a25.89,25.89,0,0,1-.85-2.53,9.28,9.28,0,0,1-.37-2.6,15.24,15.24,0,0,1,.28-2.36c.19-1.09.41-2.22.66-3.38s.47-2.27.69-3.3a12.87,12.87,0,0,0,.32-2.28,3.87,3.87,0,0,0-.28-1.55,5.37,5.37,0,0,1-.29-2,7.84,7.84,0,0,1,.21-1.67c.13-.62.28-1.22.45-1.79s.31-1.08.44-1.54.23-.78.29-.94a7,7,0,0,1,2-3.34,16.45,16.45,0,0,1,3.3-2.44,18.48,18.48,0,0,1,3.3-1.47A9.24,9.24,0,0,1,351.2,270.84Zm0,12.22c-.49,0-.85.31-1.06.94a5.07,5.07,0,0,0-.33,1.66,14.51,14.51,0,0,0,.33,3.18,13.6,13.6,0,0,1,.32,2.85c0,.87,0,1.58,0,2.12a12.75,12.75,0,0,1-.12,1.34c-.05.36-.09.67-.12.94a7.32,7.32,0,0,0,0,.81,12.92,12.92,0,0,0,.16,1.79c.11.77.25,1.55.41,2.37s.3,1.57.41,2.28a12.82,12.82,0,0,1,.16,1.54,18.39,18.39,0,0,1-.25,3.22c-.16.95-.35,1.85-.57,2.69s-.4,1.65-.57,2.44a12.06,12.06,0,0,0-.24,2.4,4.12,4.12,0,0,0,.65,1.88q.66,1.31,1,2.07a7.28,7.28,0,0,0,.69,1.23,1.74,1.74,0,0,0,.65.57,3,3,0,0,0,1,.12,3.27,3.27,0,0,0,2.36-.94,3.09,3.09,0,0,0,1-2.32,7.44,7.44,0,0,0-.12-1.06,7.59,7.59,0,0,1-.12-1.14c0-.16,0-.47,0-.94s0-1,0-1.75,0-1.64-.08-2.81-.09-2-.09-2.64v-1a4,4,0,0,1,.09-.86c.05-.27.12-.58.2-.93s.2-.8.36-1.35a9.05,9.05,0,0,0,.49-2.93,22.44,22.44,0,0,0-.53-4.88,30.34,30.34,0,0,1-.52-6.19,11.06,11.06,0,0,1,.36-2.94,9.58,9.58,0,0,0,.37-2.68,3.52,3.52,0,0,0-.37-1.63,1.35,1.35,0,0,0-1.34-.73q-.33,0-.57.69c-.17.46-.33,1-.49,1.5a14.68,14.68,0,0,1-.53,1.51c-.19.46-.39.69-.61.69s-.4-.16-.53-.49l-.45-1.05a6,6,0,0,0-.57-1.06A1,1,0,0,0,351.2,283.06Z" transform="translate(-37.5 -270.76)"/><path class="cls-1" d="M398.1,312.05a19.64,19.64,0,0,1,.41,2.08,13.47,13.47,0,0,1,.16,2,6.69,6.69,0,0,1-.16,1.47,10.65,10.65,0,0,1-.57,1.71,19.17,19.17,0,0,0-1,3.22,31.27,31.27,0,0,0-.53,3.17c-.1,1-.17,1.93-.2,2.77s0,1.51,0,2c0,.21,0,.58,0,1.1s0,1.07,0,1.66a1.87,1.87,0,0,1-.2.82.87.87,0,0,1-.86.41,1,1,0,0,1-.89-.37,1.45,1.45,0,0,1-.25-.86c0-2-.24-3.32-.73-4a3.16,3.16,0,0,0-2.61-.93,2.39,2.39,0,0,0-2.32,1.75q-.69,1.76-.69,6.72c0,.59,0,1.21,0,1.83s0,1.23,0,1.83a4.19,4.19,0,0,1-.16,1.35.76.76,0,0,1-.81.44,1.11,1.11,0,0,1-1.06-.89,8.93,8.93,0,0,1-.45-2.24c-.08-.9-.12-1.87-.12-2.93s0-2-.09-2.93a8.11,8.11,0,0,0-.4-2.24c-.22-.6-.57-.9-1.06-.9-.93,0-1.39.62-1.39,1.87a9.87,9.87,0,0,0,.13,1.39,10.92,10.92,0,0,1,.12,1.3c0,.6-.27.9-.82.9s-1.07-.15-1.26-.45a1.86,1.86,0,0,1-.28-1,16.2,16.2,0,0,0-.17-2.65,3.76,3.76,0,0,0-.52-1.46,5.7,5.7,0,0,0-.86-1,9.3,9.3,0,0,1-1.06-1.18,4.17,4.17,0,0,1-.85-1.47,1,1,0,0,0-1-.81.55.55,0,0,0-.45.33,4.15,4.15,0,0,0-.37.73c-.11.27-.21.51-.32.73a.52.52,0,0,1-.49.33,1.86,1.86,0,0,1-1.55-1.1,9.73,9.73,0,0,1-1-2.73,27.57,27.57,0,0,1-.53-3.46c-.11-1.22-.16-2.3-.16-3.22a4.56,4.56,0,0,1,1.79-3.87,6.22,6.22,0,0,1,3.75-1.34,3.47,3.47,0,0,1,2.2.65,4.54,4.54,0,0,1,1.3,2.28q1,3.35,2.53,4.48a5,5,0,0,0,2.93,1.14,2.63,2.63,0,0,0,2.56-1.63,8.16,8.16,0,0,0,.78-3.58,3.79,3.79,0,0,0-1.47-2.85,18.32,18.32,0,0,1-2.32-2.4,13.39,13.39,0,0,1-1.22-1.88c-.3-.57-.57-1.14-.82-1.71a13.48,13.48,0,0,0-1.1-2,5.3,5.3,0,0,0-1-1.06c-.41-.33-.85-.69-1.31-1.1a17.48,17.48,0,0,1-1.42-1.43,8.28,8.28,0,0,1-1.3-1.95,5,5,0,0,1-.62-1.63c-.13-.65-.27-1.26-.4-1.83a8.15,8.15,0,0,0-.49-1.47c-.19-.41-.45-.61-.77-.61a.81.81,0,0,0-.7.49c-.19.33-.36.67-.53,1s-.34.69-.53,1a.81.81,0,0,1-.69.48c-.49,0-.84-.37-1.06-1.14a9.11,9.11,0,0,1-.32-2.44,6,6,0,0,1,.36-1.95,10.19,10.19,0,0,0,.37-3.18c0-.81,0-1.87.08-3.18a21.72,21.72,0,0,1,.41-3.5,4.7,4.7,0,0,1,.85-1.67,17,17,0,0,1,1.63-1.87,23.3,23.3,0,0,1,1.92-1.71,16.79,16.79,0,0,1,1.63-1.18c.1,0,.54-.25,1.3-.57l2.48-1.06c.9-.38,1.74-.72,2.53-1a6,6,0,0,1,1.5-.45,1,1,0,0,0,.49.09,11.56,11.56,0,0,1,6.92,3,22.9,22.9,0,0,1,1.67,1.91,17.29,17.29,0,0,1,1.71,2.61,20.66,20.66,0,0,1,1.31,2.93,8.61,8.61,0,0,1,.53,2.81,12.21,12.21,0,0,1-.33,2.85,10.94,10.94,0,0,0-.32,2.53,33.57,33.57,0,0,1-.17,3.66c-.11,1-.35,1.47-.73,1.47q-1,0-1.26-1.35a22,22,0,0,1-.41-2.93c-.08-1.06-.19-2-.33-2.93s-.44-1.35-.93-1.35a1.38,1.38,0,0,0-1.35.74,6.33,6.33,0,0,0-.53,1.59c-.11.57-.21,1.1-.32,1.58s-.33.74-.65.74a1.38,1.38,0,0,1-1.43-1.22,20.21,20.21,0,0,1-.41-2.73c-.08-1-.19-1.92-.32-2.73s-.48-1.22-1-1.22a.63.63,0,0,0-.65.4,2.92,2.92,0,0,0-.16,1.06,4,4,0,0,0,0,.57c0,.22,0,.41,0,.57,0,1.09-.44,1.63-1.31,1.63a1.33,1.33,0,0,1-.81-.32,1.1,1.1,0,0,1-.41-.9,6.7,6.7,0,0,1,.12-1.47,6.36,6.36,0,0,0,.13-1.54,1.64,1.64,0,0,0-.37-1.27,1.28,1.28,0,0,0-.77-.28,1,1,0,0,0-.86.57,4.74,4.74,0,0,0-.57,1.43,17.76,17.76,0,0,0-.32,1.83,15.35,15.35,0,0,0-.13,1.87,8.83,8.83,0,0,0,2.41,5.86,22.26,22.26,0,0,0,5.82,4.73,5.71,5.71,0,0,1,1.59,1.34,13,13,0,0,1,1.06,1.55c.29.52.54,1,.73,1.42a3,3,0,0,0,.53.9,4.31,4.31,0,0,0,1.22,1.1,10.55,10.55,0,0,1,1.43,1.06,4.45,4.45,0,0,1,1.58,3.7V311A5.19,5.19,0,0,0,398.1,312.05Z" transform="translate(-37.5 -270.76)"/><path class="cls-1" d="M429.13,271.66a2.92,2.92,0,0,1,1.71.57,3.78,3.78,0,0,0,2.2.57,11.54,11.54,0,0,0,2.77-.29,8,8,0,0,1,1.87-.28c.17,0,.4,0,.7,0a2.42,2.42,0,0,1,.89.28,2.17,2.17,0,0,1,.77.74,2.43,2.43,0,0,1,.33,1.38,3.79,3.79,0,0,1-.08.77c-.06.25-.11.52-.16.82s-.11.66-.17,1.1a15.28,15.28,0,0,0-.08,1.71,5.31,5.31,0,0,0,.29,1.55c.19.59.4,1.24.65,1.95s.46,1.43.65,2.16a8.21,8.21,0,0,1,.28,2.07,3.38,3.38,0,0,1-.32,1.55l-.69,1.35a13.09,13.09,0,0,0-.7,1.54,6.06,6.06,0,0,0-.32,2.08q0,2.37-.12,3.54c-.08.79-.13,1.48-.13,2.08a7.88,7.88,0,0,0,.25,1.75c.16.68.35,1.37.57,2.08s.41,1.41.57,2.11a8.63,8.63,0,0,1,.24,1.88,2.61,2.61,0,0,1-.2,1.1c-.14.3-.27.58-.41.85s-.27.57-.4.9a2.83,2.83,0,0,0-.21,1.14,22.52,22.52,0,0,0,.12,2.56c.09.68.18,1.29.29,1.84s.2,1.05.28,1.54a9.05,9.05,0,0,1,.13,1.63,3,3,0,0,1-.61,1.75,4.23,4.23,0,0,0-.62,2.49,1.6,1.6,0,0,0,.49,1.14,2.64,2.64,0,0,1,.49,1.87,16.31,16.31,0,0,1-.12,1.91,7.72,7.72,0,0,1-.45,1.88,4.34,4.34,0,0,1-.81,1.38,1.71,1.71,0,0,1-1.31.53,1.69,1.69,0,0,1-1-.41,7.39,7.39,0,0,1-1-.93,9.46,9.46,0,0,0-1-.94,1.43,1.43,0,0,0-.81-.41,1,1,0,0,0-.9.37,1.37,1.37,0,0,0-.24.77c.05.27.12.56.2.86a9.3,9.3,0,0,1,.12,1.91v3.14a8.12,8.12,0,0,1-.12,1.63,1,1,0,0,1-.33.65,1.22,1.22,0,0,1-.61.12c-.48,0-.85-.4-1.1-1.18a7.94,7.94,0,0,1-.36-2.32,9.89,9.89,0,0,1,.24-2.2,8.14,8.14,0,0,0,.25-1.55,2.71,2.71,0,0,0-.33-1.38,12,12,0,0,1-.77-1.92,7.15,7.15,0,0,1-.12-1.5,6.4,6.4,0,0,1,.44-2.2,6.31,6.31,0,0,0,.45-2.12,14,14,0,0,0-.16-2.52,6.9,6.9,0,0,0-.37-1.31c-.13-.32-.26-.61-.36-.85a2.81,2.81,0,0,1-.17-1.1,18.91,18.91,0,0,1,.53-4.4,21.06,21.06,0,0,0,.53-4.89c0-.59,0-1.33,0-2.19s-.08-1.7-.16-2.49a9.43,9.43,0,0,0-.41-2c-.19-.57-.42-.86-.69-.86-.44,0-.65.42-.65,1.26s-.06,2.11-.17,3.79a21.69,21.69,0,0,1-.53,4.15c-.29,1.31-.61,2.56-.93,3.75s-.61,2.35-.86,3.46a15.27,15.27,0,0,0-.36,3.22,9.66,9.66,0,0,1-.37,2.6c-.24.87-.52,1.71-.81,2.53s-.57,1.6-.82,2.36a7.12,7.12,0,0,0-.37,2.12,4.55,4.55,0,0,0,.33,1.54,6.7,6.7,0,0,1,.33,2.28,5.55,5.55,0,0,1-.33,1.84,1.18,1.18,0,0,1-1.14.93q-.81,0-.81-1.14a11.77,11.77,0,0,1,.12-1.71,9.16,9.16,0,0,0,.12-1.22q0-2.28-1.38-2.28a1.49,1.49,0,0,0-.7.29,1.58,1.58,0,0,1-.85.28.73.73,0,0,1-.65-.45,3.55,3.55,0,0,1-.37-1.14c-.08-.46-.15-.92-.2-1.38a9.42,9.42,0,0,1-.09-1.18c0-.38,0-.88,0-1.51s.06-1.25.12-1.87.09-1.18.12-1.67,0-.79,0-.9a5.35,5.35,0,0,0-.69-2.77,7.3,7.3,0,0,0-1.35-1.5,9.21,9.21,0,0,1-1.3-1.35,3.69,3.69,0,0,1-.57-2.28c0-.65,0-1.39.08-2.24s.13-1.67.21-2.48.16-1.53.24-2.16a12,12,0,0,0,.12-1.34,2.72,2.72,0,0,0-.24-1.31c-.16-.27-.54-.4-1.14-.4a2.85,2.85,0,0,0-1.06.65,3.26,3.26,0,0,0-.69,1.14,5.81,5.81,0,0,0-.29,2c0,.21,0,.51,0,.89s.07.77.13,1.18.09.79.12,1.14,0,.61,0,.78c0,.76,0,1.52-.08,2.28s-.08,1.6-.08,2.52a37.13,37.13,0,0,0,.61,7.7,21.14,21.14,0,0,1,.61,4,4.27,4.27,0,0,1-.45,2.15,1.68,1.68,0,0,1-1.59.78,2.67,2.67,0,0,1-.57-.08,1.93,1.93,0,0,0-.49-.08c-.76,0-1.14.62-1.14,1.87a18.55,18.55,0,0,0,.17,2.4,20.42,20.42,0,0,1,.16,2.4,11,11,0,0,1-.57,3.71c-.38,1.06-.84,1.59-1.39,1.59-.16,0-.28-.25-.36-.74a12.53,12.53,0,0,1-.12-2v-1.39c0-.54,0-1.22.08-2s.08-1.44.08-1.87a15.11,15.11,0,0,0-.12-2.53c-.09-.32-.18-.49-.29-.49s-.34.17-.69.49a1.48,1.48,0,0,1-.94.49c-.6,0-.89-.38-.89-1.14a20.77,20.77,0,0,1,.53-4.8A18.73,18.73,0,0,0,405,320a21.91,21.91,0,0,0-.57-5.09c-.39-1.55-.63-2.59-.74-3.13a8.93,8.93,0,0,1-.57-3.1,13.32,13.32,0,0,1,.29-2.44,13.18,13.18,0,0,0,.28-2.44c0-.33,0-.81-.08-1.43s-.12-1.3-.2-2-.15-1.47-.21-2.24-.08-1.38-.08-1.87a11.78,11.78,0,0,1,.21-1.79c.13-.81.27-1.68.4-2.61s.27-1.87.41-2.85a19.91,19.91,0,0,0,.2-2.6,4.64,4.64,0,0,0-.12-.9c-.08-.38-.16-.78-.24-1.22s-.17-.87-.25-1.3a6.2,6.2,0,0,1-.12-1.06,5.16,5.16,0,0,1,.37-1.92,7.91,7.91,0,0,0,.36-2.72,3.18,3.18,0,0,0-.4-1.31,3,3,0,0,1-.41-1.22c0-1.14.3-1.84.9-2.12a4.84,4.84,0,0,1,2-.4h1.71a18,18,0,0,1,2.57.2,17.25,17.25,0,0,1,2.6.61,4,4,0,0,1,1.92,1.22,11.12,11.12,0,0,1,1.46,2.73,39.57,39.57,0,0,1,1.35,4c.4,1.47.74,3,1,4.52a25.05,25.05,0,0,1,.41,4.28c0,1.41,0,2.88.08,4.4s.15,2.89.29,4.11a18.71,18.71,0,0,0,.53,3c.21.79.49,1.18.81,1.18a1.29,1.29,0,0,0,1.3-1.1,18.24,18.24,0,0,0,.33-4.35,12.31,12.31,0,0,0-.16-2.65,3.23,3.23,0,0,1-.17-.94,5.45,5.45,0,0,1,.25-1.34,7.3,7.3,0,0,1,1.3-2.24,4.9,4.9,0,0,0,.57-1.63q.24-1.14.45-2.4c.13-.84.23-1.67.28-2.49a14.09,14.09,0,0,1,.25-1.95,4.77,4.77,0,0,1,.33-1.1c.16-.41.32-.84.48-1.3s.31-.9.45-1.31a3.34,3.34,0,0,0,.2-1.1,3.67,3.67,0,0,0-.24-1.34,3.23,3.23,0,0,1-.24-1.18,2.39,2.39,0,0,1,.73-1.67A2.48,2.48,0,0,1,429.13,271.66Z" transform="translate(-37.5 -270.76)"/><path class="cls-1" d="M470.67,322.07a4,4,0,0,1-.37,1.5,3.72,3.72,0,0,0-.37,1.43c0,.22,0,.56.08,1a12.58,12.58,0,0,1,.08,1.59c0,.92-.4,1.38-1.22,1.38a3.93,3.93,0,0,1-.77-.12l-1.14-.29c-.41-.11-.82-.2-1.22-.28a5.29,5.29,0,0,0-.94-.12,1.66,1.66,0,0,0-1.71,1.71,4.83,4.83,0,0,0,.53,1.67,4.75,4.75,0,0,1,.37,2.23,1.35,1.35,0,0,1-.13.7c-.08.13-.31.2-.69.2s-.62-.31-.89-.94-.55-1.31-.82-2.07a20.83,20.83,0,0,0-.85-2.08c-.3-.62-.64-.94-1-.94a1.71,1.71,0,0,0-1.47.86,2.75,2.75,0,0,0-.57,1.26,1.67,1.67,0,0,0,.25.9,1.58,1.58,0,0,1,.24.81,2.29,2.29,0,0,1-.32,1.47,1.14,1.14,0,0,1-.82.32,1.52,1.52,0,0,1-1.42-.77,7.94,7.94,0,0,1-.74-1.75c-.19-.65-.36-1.24-.53-1.75s-.4-.78-.73-.78c-.11,0-.3.21-.57.61a1.18,1.18,0,0,1-1,.62,2.32,2.32,0,0,1-1.18-.62,2.33,2.33,0,0,0-1.18-.61,1.45,1.45,0,0,0-.65.25,1.41,1.41,0,0,1-.65.24.76.76,0,0,1-.77-.45,3.42,3.42,0,0,1-.29-1,6.33,6.33,0,0,1,0-1.23,2.55,2.55,0,0,0,0-.85v-1.55c0-.21,0-.54,0-1s0-.78,0-1.05v-1.8c0-.65,0-1.46.08-2.44s.12-2,.21-3.05.14-2.08.2-3.06.08-1.79.08-2.44a8.4,8.4,0,0,1,.16-1.59c.11-.57.23-1.1.37-1.59s.26-.9.37-1.26a3.6,3.6,0,0,0,.16-.69c0-.76-.41-1.14-1.22-1.14a1.66,1.66,0,0,0-.57.12,1.71,1.71,0,0,1-.57.12.57.57,0,0,1-.61-.48,3.9,3.9,0,0,1-.13-.9,4.74,4.74,0,0,1,.05-.65,3.37,3.37,0,0,1,.28-.9,8,8,0,0,0,.94-2.93,25.58,25.58,0,0,0,.2-3,11.86,11.86,0,0,1,.53-3.71,9.94,9.94,0,0,0,.53-3.13,2.9,2.9,0,0,0-.12-.7c-.08-.29-.18-.63-.29-1s-.2-.78-.28-1.18a5.52,5.52,0,0,1-.12-1,13.23,13.23,0,0,1,.08-1.47c0-.54.08-1,.08-1.38a6,6,0,0,0-.21-1.35,6.9,6.9,0,0,1-.2-1.5,2.7,2.7,0,0,1,.12-.74,2.62,2.62,0,0,0,.13-.73,2.23,2.23,0,0,0-.41-1.06,2.23,2.23,0,0,1-.41-1.14,1.5,1.5,0,0,1,.86-1.42,4.79,4.79,0,0,1,2.24-.45c.16,0,.4,0,.73,0s.62,0,.89,0a2.72,2.72,0,0,0,1.63-.37,2.32,2.32,0,0,1,1.39-.36,2.12,2.12,0,0,1,1.14.36,1.85,1.85,0,0,0,1,.37,1,1,0,0,0,.7-.24,1.38,1.38,0,0,1,.93-.25,3.64,3.64,0,0,1,1.92.65,3.5,3.5,0,0,0,1.91.65,2.08,2.08,0,0,0,1.26-.44,2.48,2.48,0,0,1,1.51-.45,2,2,0,0,1,1,.2,1.3,1.3,0,0,0,.73.21,1.41,1.41,0,0,0,.81-.29,2.36,2.36,0,0,1,1.31-.28c.27,0,.5.29.69.89a12.08,12.08,0,0,1,.28,3.18c0,.54.06,1.36.17,2.44s.24,2.25.4,3.5.3,2.49.41,3.71.17,2.18.17,2.89c0,1-.55,1.55-1.63,1.55q-1.14,0-1.14-1.23c0-.16,0-.4,0-.73s0-.65,0-1a8.2,8.2,0,0,1,0-.89c0-.27,0-.43,0-.49,0-1.41-.06-2.65-.16-3.71s-.3-1.58-.57-1.58-.6.28-.66.85-.09,1.18-.12,1.83a12.8,12.8,0,0,1-.2,1.84c-.11.57-.35.85-.73.85a.82.82,0,0,1-.9-.65c-.22-.92-.38-1.59-.49-2a6.24,6.24,0,0,0-.32-.94c-.55-.38-1.06-.72-1.55-1a2.8,2.8,0,0,0-1.47-.45,1.64,1.64,0,0,0-1.06.33,4.5,4.5,0,0,0-.69.69l-.53.69a.69.69,0,0,1-.57.33,1.87,1.87,0,0,1-.61-.08,1.09,1.09,0,0,0-.45-.08,1.7,1.7,0,0,0-1.79,1.26,10.38,10.38,0,0,0-.41,3.13,10,10,0,0,0,.49,3.22,9.59,9.59,0,0,0,1.18,2.4,5.74,5.74,0,0,0,1.43,1.47,2.42,2.42,0,0,0,1.22.49l.53-.08,1-.21,1-.2a4.88,4.88,0,0,1,.62-.08,14.15,14.15,0,0,1,2-.21l1.43,0a1.14,1.14,0,0,1,1,.57,2.63,2.63,0,0,1,.37,1.47,3.9,3.9,0,0,1-.37,1.3,4.31,4.31,0,0,0-.36,1.55,7.64,7.64,0,0,0,.24,1.67c.16.68.34,1.37.53,2.08s.37,1.37.53,2a6.32,6.32,0,0,1,.24,1.43,4.59,4.59,0,0,1-.69,2.32c-.46.78-.88,1.18-1.26,1.18a.77.77,0,0,1-.81-.69c-.11-.47-.21-1-.29-1.55a7.49,7.49,0,0,0-.37-1.55.94.94,0,0,0-1-.69.75.75,0,0,0-.82.49,3.11,3.11,0,0,0-.16,1,4.17,4.17,0,0,1-.12,1,.58.58,0,0,1-.61.49.73.73,0,0,1-.66-.41,9.93,9.93,0,0,1-.48-.93c-.17-.35-.33-.67-.49-.94a.7.7,0,0,0-.57-.41,2.5,2.5,0,0,1-.86-.16,2.45,2.45,0,0,0-.85-.16c-.71,0-1.06.27-1.06.81A5.73,5.73,0,0,0,457,308a15.81,15.81,0,0,1,.29,3.74,6.28,6.28,0,0,1-.57,2.28,6.23,6.23,0,0,0-.57,2,2.92,2.92,0,0,0,1,2c.68.68,1.88,1,3.62,1,.27,0,.56,0,.86,0s.63,0,1,0a9.23,9.23,0,0,1,2.2.33,9,9,0,0,0,2.12.32,3.4,3.4,0,0,0,.53,0,5.68,5.68,0,0,1,.61,0,2.86,2.86,0,0,1,2.53,2.53Z" transform="translate(-37.5 -270.76)"/><path class="cls-1" d="M495.5,272.15a2.1,2.1,0,0,1,1.47.61,4.23,4.23,0,0,1,1,1.54,12.65,12.65,0,0,1,.57,2,9.56,9.56,0,0,1,.2,1.75,6,6,0,0,1-.2,1.3c-.14.55-.27,1.1-.41,1.67s-.27,1.16-.41,1.75a7.31,7.31,0,0,0-.2,1.47,6.49,6.49,0,0,0,.16,1.83,2.52,2.52,0,0,1,.17.86c0,.92-.33,1.38-1,1.38a1,1,0,0,1-1.06-.85,10.34,10.34,0,0,1-.33-1.88c-.05-.68-.11-1.3-.16-1.87s-.22-.86-.49-.86a.61.61,0,0,0-.53.33,5.64,5.64,0,0,0-.36.69,5.6,5.6,0,0,1-.37.69q-.21.33-.45.33a.91.91,0,0,1-.69-.29l-.61-.61c-.22-.21-.45-.42-.69-.61a1.37,1.37,0,0,0-.86-.28,1.79,1.79,0,0,0-1.83,1,9.38,9.38,0,0,0-.45,3.46,6.79,6.79,0,0,0,.16,1.42,6.31,6.31,0,0,1,.17,1.18,18.55,18.55,0,0,1-.25,3.22,13.88,13.88,0,0,0-.24,2.4,12.08,12.08,0,0,0,.24,2.61c.16.71.36,1.42.57,2.16a21.53,21.53,0,0,1,.57,2.44,19.26,19.26,0,0,1,.25,3.46,13.63,13.63,0,0,1-.25,2.77c-.16.81-.32,1.58-.49,2.28s-.32,1.41-.49,2.12a10.23,10.23,0,0,0-.24,2.28,8.44,8.44,0,0,0,.37,2.81,6.93,6.93,0,0,1,.36,2.32,4.39,4.39,0,0,1-.12.94,4.23,4.23,0,0,0-.12.93,4.54,4.54,0,0,0,.49,1.75,4.9,4.9,0,0,1,.49,1.84,1.51,1.51,0,0,1-.78,1.26c-.46.24-.95.53-1.46.85a5.65,5.65,0,0,0-1.43,1.35,4.38,4.38,0,0,0-.65,2.64,9.53,9.53,0,0,0,.49,3.14,10.88,10.88,0,0,1,.49,3.46,1.46,1.46,0,0,1-.61,1.14,2.72,2.72,0,0,1-1.75.49c-1.31,0-2-.52-2-1.55a5.52,5.52,0,0,1,.41-2.12,5.26,5.26,0,0,0,.41-2c0-.71,0-1.46,0-2.24s-.09-1.52-.17-2.2A6.29,6.29,0,0,0,482,329a.92.92,0,0,0-.86-.65.53.53,0,0,0-.41.2,2.09,2.09,0,0,0-.28.49,2.11,2.11,0,0,1-.29.49.6.6,0,0,1-.49.2c-.32,0-.59-.3-.81-.89a14.25,14.25,0,0,1-.57-2.12c-.16-.81-.28-1.64-.37-2.48s-.12-1.48-.12-1.92a25.94,25.94,0,0,1,.33-4c.21-1.41.46-2.77.73-4.07s.52-2.47.73-3.5a12.2,12.2,0,0,0,.33-2.28c0-.93,0-1.67-.08-2.24s-.1-1.05-.12-1.43a5.93,5.93,0,0,0-.13-.93,4.34,4.34,0,0,1-.08-.86c0-.43,0-1.1.08-2s.14-1.89.25-3,.21-2.18.32-3.3.22-2.13.33-3.05c.16-1.41.38-2.88.65-4.4a21.65,21.65,0,0,0,.41-3.42c0-.81-.29-1.29-.86-1.42a6.15,6.15,0,0,0-1.42-.21,1.28,1.28,0,0,0-1.26.86,15.1,15.1,0,0,0-.66,1.83,15.1,15.1,0,0,1-.65,1.83,1.23,1.23,0,0,1-1.18.86,1.06,1.06,0,0,1-1-.86q-.28-.86-.57-1.83a8.74,8.74,0,0,0-.77-1.83,1.59,1.59,0,0,0-1.47-.86,2.28,2.28,0,0,1-1.3-.44,1.39,1.39,0,0,1-.65-1.18,3.14,3.14,0,0,1,.57-1.43,3.29,3.29,0,0,0,.57-1.67,4.74,4.74,0,0,0-.12-.9c-.08-.37-.17-.75-.25-1.14s-.16-.73-.24-1.05a3.42,3.42,0,0,1-.12-.74c0-.65.35-1,1.05-1a3.56,3.56,0,0,1,2,.61,3.78,3.78,0,0,0,2.08.61,7,7,0,0,0,2.07-.29c.63-.19,1.21-.38,1.75-.57s1.06-.38,1.55-.57a4,4,0,0,1,1.47-.28,13.07,13.07,0,0,1,2.28.16c.59.11,1.18.23,1.75.37s1.18.25,1.83.36a15,15,0,0,0,2.44.17,6.85,6.85,0,0,0,3-.57A4.88,4.88,0,0,1,495.5,272.15Z" transform="translate(-37.5 -270.76)"/><path class="cls-1" d="M511.38,293.65a2.4,2.4,0,0,1-.4,0,4,4,0,0,0-.41,0,2.4,2.4,0,0,0-.94.25c-.35.16-.53.54-.53,1.14a7.15,7.15,0,0,0,.33,2.12,7.26,7.26,0,0,1,.33,2.19,26.77,26.77,0,0,1-.25,4.28,13.21,13.21,0,0,0-.24,1.75,5.84,5.84,0,0,0,.2,1.34c.14.58.27,1.19.41,1.84s.27,1.31.41,2a9.89,9.89,0,0,1,.2,1.83,11.12,11.12,0,0,1-.37,2.53,14,14,0,0,0-.36,3.18c0,.43,0,1,0,1.58s0,1.08,0,1.35a12.89,12.89,0,0,1-.21,2.24,12.13,12.13,0,0,0-.2,1.83,1.83,1.83,0,0,0,.16.65c.11.27.23.54.37.82s.26.52.37.77a1.69,1.69,0,0,1,.16.53.8.8,0,0,1-.57.89,5.86,5.86,0,0,1-1.22.21c-.44,0-.85.07-1.22.12a.58.58,0,0,0-.57.65,7.47,7.47,0,0,0,.08,1c.05.43.1.89.16,1.38s.11.94.16,1.35a6.23,6.23,0,0,1,.08.85,4.57,4.57,0,0,1-.08.82,4.43,4.43,0,0,1-.28,1,3.07,3.07,0,0,1-.49.82,1,1,0,0,1-.77.32c-.39,0-.57-.7-.57-2.11,0-.44,0-1.09,0-2s0-1.52,0-1.95c0-1.31-.17-2-.49-2s-.56.22-.69.65-.28.93-.41,1.47-.27,1-.41,1.47-.36.65-.69.65c-.54,0-.82-.33-.82-1a17.52,17.52,0,0,1,.09-1.83c.05-.57.08-.91.08-1a1.23,1.23,0,0,0-.29-.77c-.19-.25-.53-.67-1-1.27a7.52,7.52,0,0,1-1.3-2.24,6.75,6.75,0,0,1-.24-1.83q0-.17.45-2.16a20.41,20.41,0,0,0,.44-4.35,18.6,18.6,0,0,1,.41-4.28,11.87,11.87,0,0,0,.41-2.56,1.67,1.67,0,0,0-.29-1c-.19-.27-.38-.56-.57-.86a10.12,10.12,0,0,1-.57-1,3.29,3.29,0,0,1-.28-1.47,5.93,5.93,0,0,1,.32-1.91c.22-.63.45-1.27.7-1.92s.47-1.3.69-1.95a6.88,6.88,0,0,0,.32-2.12,40,40,0,0,0-.24-4.89c-.16-1.24-.25-2-.25-2.28a4.51,4.51,0,0,1,.09-.73c0-.33.09-.68.12-1.06s.07-.74.12-1.1A6.38,6.38,0,0,0,501,287a4,4,0,0,1-.24-1,5.36,5.36,0,0,0-1-1.91c-.38-.55-.61-.87-.69-1a2.25,2.25,0,0,1-.12-1,6.18,6.18,0,0,1,.61-2.32,6.38,6.38,0,0,0,.61-2.32,19.28,19.28,0,0,0-.37-2,6.09,6.09,0,0,1-.2-1.54c0-1.14.59-1.71,1.79-1.71a5.59,5.59,0,0,1,1.55.36,5.48,5.48,0,0,0,1.79.37,2.58,2.58,0,0,0,1.22-.29,2.83,2.83,0,0,1,1.22-.28,4.19,4.19,0,0,1,1.3.24,5.85,5.85,0,0,1,1.39.7,3.9,3.9,0,0,1,1.1,1.18,3.21,3.21,0,0,1,.45,1.71,6.84,6.84,0,0,1-.66,2.89,6.8,6.8,0,0,0-.65,2.81,14.35,14.35,0,0,0,.25,2.36c.16,1,.35,2,.57,3s.4,2,.57,3a15.2,15.2,0,0,1,.24,2.36C511.79,293.32,511.66,293.65,511.38,293.65Z" transform="translate(-37.5 -270.76)"/><path class="cls-1" d="M528.32,270.76a6.37,6.37,0,0,1,1.67.33c.74.21,1.52.47,2.36.77s1.7.63,2.57,1l2.36.93a6,6,0,0,1,2.24,1.59,13.44,13.44,0,0,1,2,2.77,18.48,18.48,0,0,1,1.38,3.34,11.55,11.55,0,0,1,.53,3.3,17.2,17.2,0,0,1-.25,2.52,18.94,18.94,0,0,0-.24,2.61,6.25,6.25,0,0,0,.2,1.91,3.22,3.22,0,0,1,.21,1.18,2.24,2.24,0,0,1-.25,1.06.9.9,0,0,1-.89.49.65.65,0,0,1-.49-.32c-.16-.22-.33-.47-.49-.74s-.31-.51-.45-.73-.23-.33-.28-.33a.91.91,0,0,0-.57.29.92.92,0,0,1-.49.28c-.22,0-.48-.2-.78-.61s-.52-.61-.69-.61a.76.76,0,0,0-.85.69A9,9,0,0,0,537,294a7.94,7.94,0,0,1-.13,1.51.76.76,0,0,1-.85.69c-.33,0-.55-.09-.65-.29a2.32,2.32,0,0,1-.25-.69,4.63,4.63,0,0,1-.08-.85,1.67,1.67,0,0,0-.24-.86,10.82,10.82,0,0,0-1-1.54,4.79,4.79,0,0,1-.53-2.77,5.8,5.8,0,0,1,0-.7,8.91,8.91,0,0,0,0-1,44.61,44.61,0,0,0-.2-4.65c-.14-1.19-.45-1.79-.94-1.79-.32,0-.61.34-.85,1a7.55,7.55,0,0,0-.37,2.57,8.72,8.72,0,0,0,.28,2,9.06,9.06,0,0,1,.29,2.08,3.09,3.09,0,0,1-.2,1.14.85.85,0,0,1-.86.49.78.78,0,0,1-.73-.49,5.42,5.42,0,0,1-.41-1.14,6.58,6.58,0,0,1-.2-1.26c0-.41,0-.7,0-.86a11.17,11.17,0,0,1,.08-1.38,13.73,13.73,0,0,0,.08-1.39c0-1.08-.3-1.63-.9-1.63a1.12,1.12,0,0,0-.85.41,1.29,1.29,0,0,0-.37.9,3.43,3.43,0,0,0,.65,1.87,3.07,3.07,0,0,1,.65,1.46,1.67,1.67,0,0,1-.32,1.06.91.91,0,0,1-.73.41,1.37,1.37,0,0,1-.7-.16,1.36,1.36,0,0,0-.69-.17.46.46,0,0,0-.49.41,4.15,4.15,0,0,0-.08.73,6.58,6.58,0,0,0,.12,1.47,3.87,3.87,0,0,0,.29.82,5.3,5.3,0,0,1,.28.65,2.12,2.12,0,0,1,.13.81,6,6,0,0,1-.21,1.47c-.13.54-.27,1.08-.41,1.63s-.27,1.07-.4,1.58a5.31,5.31,0,0,0-.21,1.35,3.11,3.11,0,0,0,.33,1.34,13.16,13.16,0,0,0,1.22,1.92,5,5,0,0,1,.9,2.93,20.71,20.71,0,0,0,.16,3.09,10.1,10.1,0,0,1,.16,1.22,2.41,2.41,0,0,1-.36,1.14,2.63,2.63,0,0,1-1.35,1.06,1.83,1.83,0,0,0-.93.53,1,1,0,0,0-.21.61,1.71,1.71,0,0,0,.57,1A1.86,1.86,0,0,1,526,315a1.4,1.4,0,0,1-.49,1,2.73,2.73,0,0,0-.44,1.34c0,.47,0,.94,0,1.43a2,2,0,0,0,.52,1.59,1.79,1.79,0,0,0,1.19.44,4.27,4.27,0,0,0,.89-.16,4.53,4.53,0,0,1,1.06-.16,1.94,1.94,0,0,1,.94.32,1.81,1.81,0,0,0,.93.33,2.28,2.28,0,0,0,1.84-1.26,11.13,11.13,0,0,0,1.1-2.81,23.24,23.24,0,0,0,.57-3.3c.1-1.11.16-2.05.16-2.81a8.63,8.63,0,0,0-.08-1.34,5.28,5.28,0,0,1-.08-1c0-.82.24-1.22.73-1.22a1.8,1.8,0,0,1,1.1.4,1.55,1.55,0,0,0,.93.41,1.29,1.29,0,0,0,.86-.32,1.13,1.13,0,0,1,.77-.33,1.73,1.73,0,0,1,.9.24,1.81,1.81,0,0,0,1,.25,1.45,1.45,0,0,0,.85-.33,1.43,1.43,0,0,1,.69-.32,2.12,2.12,0,0,1,1.55.93,3.51,3.51,0,0,1,.49,1.92,4.61,4.61,0,0,1-.29,1.59l-.57,1.54c-.19.52-.38,1.06-.57,1.63a5.75,5.75,0,0,0-.28,1.83,13.73,13.73,0,0,0,.08,1.39,16.94,16.94,0,0,1,.08,1.71,5.48,5.48,0,0,1-1.18,3.42,37.13,37.13,0,0,1-3.87,4.07,6.29,6.29,0,0,1-1.79,1.14A4.69,4.69,0,0,0,533.7,330a1.38,1.38,0,0,0-.29.61l-.24.93a3.35,3.35,0,0,1-.33.86c-.13.24-.28.37-.45.37s-.35-.17-.56-.49-.45-.69-.7-1.1a7.89,7.89,0,0,0-.77-1.1,1.08,1.08,0,0,0-.73-.49.78.78,0,0,0-.82.65c-.11.44-.2.9-.28,1.39a9.93,9.93,0,0,1-.33,1.38,1,1,0,0,1-1,.65c-.27,0-.44-.27-.53-.81s-.16-1.13-.24-1.75a10,10,0,0,0-.37-1.75,1,1,0,0,0-1-.82c-.33,0-.52.14-.57.41a7.19,7.19,0,0,0-.13.93,7.25,7.25,0,0,1-.12.94.46.46,0,0,1-.49.41c-.22,0-.39-.18-.53-.53s-.27-.76-.4-1.22-.29-.9-.45-1.31a1.32,1.32,0,0,0-.65-.77,3,3,0,0,0-.65-.24,1.35,1.35,0,0,1-.58-.33,2.5,2.5,0,0,1-.69-1.06c-.19-.49-.36-1-.53-1.46s-.3-.93-.4-1.31-.22-.57-.33-.57-.18.15-.2.45-.18.45-.45.45c-.49,0-.73-.79-.73-2.36a3.08,3.08,0,0,1,.2-1.31,2.42,2.42,0,0,0,.2-1.05c0-.49-.12-.78-.36-.86s-.37-.34-.37-.77a4.14,4.14,0,0,1,.24-1.35,3.36,3.36,0,0,0,.25-.93c0-.66-.08-1-.25-1a.38.38,0,0,0-.36.24.39.39,0,0,1-.37.25c-.27,0-.41-.19-.41-.57a5.2,5.2,0,0,1,.17-1.35c.11-.4.21-.86.32-1.38s.22-1.13.33-1.83a18.12,18.12,0,0,0,.16-2.69c0-2.88-.08-6.13-.24-9.77s-.25-7.41-.25-11.32q0-8.64,4.65-10.75a29.39,29.39,0,0,0,3.17-1.51c.82-.46,1.48-.85,2-1.18l1.22-.77A1.6,1.6,0,0,1,528.32,270.76Z" transform="translate(-37.5 -270.76)"/><path class="cls-1" d="M573.93,312.05c.16.65.29,1.34.4,2.08a13.59,13.59,0,0,1,.17,2,6.7,6.7,0,0,1-.17,1.47,9.73,9.73,0,0,1-.57,1.71,18.27,18.27,0,0,0-1,3.22,28.7,28.7,0,0,0-.53,3.17c-.11,1-.18,1.93-.21,2.77s0,1.51,0,2c0,.21,0,.58,0,1.1s0,1.07,0,1.66a1.74,1.74,0,0,1-.2.82.86.86,0,0,1-.85.41,1,1,0,0,1-.9-.37,1.52,1.52,0,0,1-.24-.86c0-2-.25-3.32-.74-4a3.15,3.15,0,0,0-2.6-.93,2.38,2.38,0,0,0-2.32,1.75q-.71,1.76-.7,6.72c0,.59,0,1.21,0,1.83s0,1.23,0,1.83a4.19,4.19,0,0,1-.16,1.35.76.76,0,0,1-.81.44,1.11,1.11,0,0,1-1.06-.89,8.93,8.93,0,0,1-.45-2.24c-.08-.9-.12-1.87-.12-2.93s0-2-.08-2.93a8.08,8.08,0,0,0-.41-2.24c-.22-.6-.57-.9-1.06-.9-.92,0-1.38.62-1.38,1.87a11.25,11.25,0,0,0,.12,1.39,10.92,10.92,0,0,1,.12,1.3q0,.9-.81.9c-.65,0-1.08-.15-1.27-.45a1.86,1.86,0,0,1-.28-1,17.66,17.66,0,0,0-.16-2.65,3.75,3.75,0,0,0-.53-1.46,5.7,5.7,0,0,0-.86-1,10.13,10.13,0,0,1-1.06-1.18,4.32,4.32,0,0,1-.85-1.47,1,1,0,0,0-1-.81q-.24,0-.45.33a4.14,4.14,0,0,0-.36.73c-.11.27-.22.51-.33.73a.52.52,0,0,1-.49.33,1.86,1.86,0,0,1-1.55-1.1,9.44,9.44,0,0,1-1-2.73,24.34,24.34,0,0,1-.53-3.46c-.11-1.22-.17-2.3-.17-3.22a4.55,4.55,0,0,1,1.8-3.87A6.17,6.17,0,0,1,552.1,312a3.45,3.45,0,0,1,2.2.65,4.54,4.54,0,0,1,1.3,2.28c.65,2.23,1.5,3.72,2.53,4.48a5,5,0,0,0,2.93,1.14,2.63,2.63,0,0,0,2.56-1.63,8.16,8.16,0,0,0,.78-3.58,3.79,3.79,0,0,0-1.47-2.85,19,19,0,0,1-2.32-2.4,14.35,14.35,0,0,1-1.22-1.88q-.45-.85-.81-1.71a15.64,15.64,0,0,0-1.1-2,5.35,5.35,0,0,0-1-1.06c-.41-.33-.84-.69-1.3-1.1a16.05,16.05,0,0,1-1.43-1.43,8.6,8.6,0,0,1-1.3-1.95,5,5,0,0,1-.61-1.63c-.14-.65-.28-1.26-.41-1.83a8.15,8.15,0,0,0-.49-1.47c-.19-.41-.45-.61-.77-.61a.8.8,0,0,0-.69.49,9.86,9.86,0,0,0-.53,1c-.17.35-.34.69-.53,1a.83.83,0,0,1-.7.48c-.49,0-.84-.37-1.05-1.14a8.72,8.72,0,0,1-.33-2.44,5.81,5.81,0,0,1,.37-1.95,10.56,10.56,0,0,0,.36-3.18c0-.81,0-1.87.08-3.18a21.72,21.72,0,0,1,.41-3.5,4.58,4.58,0,0,1,.86-1.67,16,16,0,0,1,1.63-1.87,23.19,23.19,0,0,1,1.91-1.71,16.79,16.79,0,0,1,1.63-1.18c.11,0,.54-.25,1.3-.57l2.48-1.06c.9-.38,1.74-.72,2.53-1a6.06,6.06,0,0,1,1.51-.45,1,1,0,0,0,.48.09,11.59,11.59,0,0,1,6.93,3,24.9,24.9,0,0,1,1.67,1.91,19,19,0,0,1,1.71,2.61,21.79,21.79,0,0,1,1.3,2.93,8.61,8.61,0,0,1,.53,2.81,12.21,12.21,0,0,1-.33,2.85,10.94,10.94,0,0,0-.32,2.53,33.57,33.57,0,0,1-.17,3.66c-.11,1-.35,1.47-.73,1.47q-1,0-1.26-1.35a22,22,0,0,1-.41-2.93c-.08-1.06-.19-2-.32-2.93s-.45-1.35-.94-1.35a1.36,1.36,0,0,0-1.34.74,5.62,5.62,0,0,0-.53,1.59c-.11.57-.22,1.1-.33,1.58s-.33.74-.65.74a1.38,1.38,0,0,1-1.43-1.22,18.8,18.8,0,0,1-.4-2.73q-.12-1.51-.33-2.73c-.14-.82-.48-1.22-1-1.22a.63.63,0,0,0-.65.4,2.92,2.92,0,0,0-.16,1.06,4,4,0,0,0,0,.57,4.21,4.21,0,0,1,0,.57c0,1.09-.44,1.63-1.3,1.63a1.33,1.33,0,0,1-.82-.32,1.1,1.1,0,0,1-.4-.9,6.7,6.7,0,0,1,.12-1.47,7.06,7.06,0,0,0,.12-1.54,1.6,1.6,0,0,0-.37-1.27,1.28,1.28,0,0,0-.77-.28,1,1,0,0,0-.86.57,4.74,4.74,0,0,0-.57,1.43,17.76,17.76,0,0,0-.32,1.83,15.28,15.28,0,0,0-.12,1.87,8.82,8.82,0,0,0,2.4,5.86,22.26,22.26,0,0,0,5.82,4.73,5.71,5.71,0,0,1,1.59,1.34,13,13,0,0,1,1.06,1.55,15,15,0,0,1,.73,1.42,3,3,0,0,0,.53.9,4.45,4.45,0,0,0,1.22,1.1,10,10,0,0,1,1.43,1.06,5,5,0,0,1,1.14,1.46,4.82,4.82,0,0,1,.45,2.24V311A4.55,4.55,0,0,0,573.93,312.05Z" transform="translate(-37.5 -270.76)"/></svg>