<svg id="Layer_1" data-name="Layer 1" xmlns="http://www.w3.org/2000/svg" viewBox="0 0 536.6 85.9"><defs><style>.cls-1{fill:#d87093;}</style></defs><title>logo</title><path class="cls-1" d="M52.82,302.78a8.09,8.09,0,0,1,2,.4c.9.27,1.86.58,2.89.95s2.07.76,3.13,1.19,2,.81,2.88,1.14a7.24,7.24,0,0,1,2.74,1.94,16.17,16.17,0,0,1,2.38,3.38,21.51,21.51,0,0,1,1.69,4.08,14,14,0,0,1,.65,4,22.18,22.18,0,0,1-.3,3.08,22.3,22.3,0,0,0-.3,3.18,7.59,7.59,0,0,0,.25,2.34,3.89,3.89,0,0,1,.25,1.44,2.84,2.84,0,0,1-.3,1.29,1.11,1.11,0,0,1-1.09.6.8.8,0,0,1-.6-.4,10,10,0,0,1-.6-.9c-.19-.33-.38-.62-.54-.89s-.29-.4-.35-.4a1.18,1.18,0,0,0-.7.35,1.15,1.15,0,0,1-.59.35c-.27,0-.58-.25-1-.75s-.64-.74-.84-.74a.94.94,0,0,0-1,.84,10.63,10.63,0,0,0-.15,1.84,10.58,10.58,0,0,1-.14,1.84,1,1,0,0,1-1.05.85.83.83,0,0,1-.79-.35,2.5,2.5,0,0,1-.3-.85,5,5,0,0,1-.1-1,2,2,0,0,0-.3-1.05,13,13,0,0,0-1.24-1.88c-.43-.53-.65-1.66-.65-3.39,0-.26,0-.54,0-.84s.05-.71.05-1.24a51.08,51.08,0,0,0-.25-5.67q-.24-2.19-1.14-2.19c-.4,0-.75.42-1.05,1.25a9.54,9.54,0,0,0-.44,3.13,10.7,10.7,0,0,0,.34,2.43,10.6,10.6,0,0,1,.35,2.54,3.52,3.52,0,0,1-.25,1.39,1,1,0,0,1-1,.6.94.94,0,0,1-.89-.6,6.62,6.62,0,0,1-.5-1.39,8,8,0,0,1-.25-1.54c0-.5,0-.85,0-1.05a14.53,14.53,0,0,1,.1-1.69c.06-.59.1-1.16.1-1.69,0-1.32-.37-2-1.09-2a1.38,1.38,0,0,0-1,.5,1.6,1.6,0,0,0-.45,1.09,4.13,4.13,0,0,0,.8,2.29,3.82,3.82,0,0,1,.79,1.79,2,2,0,0,1-.39,1.29,1.14,1.14,0,0,1-.9.5,1.58,1.58,0,0,1-.84-.2,1.75,1.75,0,0,0-.85-.2.55.55,0,0,0-.59.5,4.34,4.34,0,0,0-.1.9,8.74,8.74,0,0,0,.14,1.79,5.11,5.11,0,0,0,.35,1,6.81,6.81,0,0,1,.35.79,2.89,2.89,0,0,1,.15,1,7.24,7.24,0,0,1-.25,1.79c-.17.66-.33,1.33-.5,2s-.33,1.31-.49,1.94a6.36,6.36,0,0,0-.25,1.64,3.76,3.76,0,0,0,.4,1.64,15.12,15.12,0,0,0,1.49,2.33,6.18,6.18,0,0,1,1.09,3.58,25.74,25.74,0,0,0,.2,3.78,14,14,0,0,1,.2,1.49,2.91,2.91,0,0,1-.45,1.39A3.14,3.14,0,0,1,50,352.6a2.3,2.3,0,0,0-1.14.64,1.25,1.25,0,0,0-.25.75,2.06,2.06,0,0,0,.7,1.24,2.27,2.27,0,0,1,.69,1.54,1.73,1.73,0,0,1-.6,1.2,3.39,3.39,0,0,0-.54,1.64c0,.56,0,1.14,0,1.74a2.45,2.45,0,0,0,.64,1.94,2.21,2.21,0,0,0,1.45.54,5.06,5.06,0,0,0,1.09-.2,5.73,5.73,0,0,1,1.29-.2,2.37,2.37,0,0,1,1.15.4,2.21,2.21,0,0,0,1.14.4,2.8,2.8,0,0,0,2.24-1.54,13,13,0,0,0,1.34-3.43,27.6,27.6,0,0,0,.69-4,34,34,0,0,0,.2-3.43,9.57,9.57,0,0,0-.1-1.64,7.59,7.59,0,0,1-.1-1.24c0-1,.3-1.49.9-1.49a2.18,2.18,0,0,1,1.34.49,1.92,1.92,0,0,0,1.15.5,1.51,1.51,0,0,0,1-.4,1.42,1.42,0,0,1,.94-.39,2.11,2.11,0,0,1,1.1.29,2.26,2.26,0,0,0,1.19.3,1.75,1.75,0,0,0,1-.4,1.72,1.72,0,0,1,.85-.39,2.56,2.56,0,0,1,1.89,1.14,4.28,4.28,0,0,1,.59,2.34,5.62,5.62,0,0,1-.34,1.94c-.24.63-.47,1.26-.7,1.88s-.46,1.3-.69,2a6.87,6.87,0,0,0-.35,2.24,14.53,14.53,0,0,0,.1,1.69,20.91,20.91,0,0,1,.1,2.09,6.71,6.71,0,0,1-1.45,4.17,44.78,44.78,0,0,1-4.72,5,7.9,7.9,0,0,1-2.19,1.39,5.72,5.72,0,0,0-2.28,1.79,1.64,1.64,0,0,0-.35.74c-.1.37-.2.75-.3,1.15a4.25,4.25,0,0,1-.4,1q-.24.45-.54.45c-.2,0-.43-.2-.7-.6s-.55-.84-.84-1.34a10.21,10.21,0,0,0-1-1.34c-.33-.4-.63-.6-.89-.6a.93.93,0,0,0-1,.8c-.13.53-.25,1.09-.35,1.69a13.94,13.94,0,0,1-.39,1.69,1.16,1.16,0,0,1-1.25.79c-.33,0-.54-.33-.64-1s-.2-1.38-.3-2.14a13.47,13.47,0,0,0-.45-2.14,1.19,1.19,0,0,0-1.19-1c-.4,0-.63.16-.7.49s-.11.72-.15,1.15a8.34,8.34,0,0,1-.15,1.14.55.55,0,0,1-.59.5c-.27,0-.48-.22-.65-.65s-.33-.93-.5-1.49a16.44,16.44,0,0,0-.54-1.59,1.54,1.54,0,0,0-.8-.94,3.19,3.19,0,0,0-.79-.3,1.5,1.5,0,0,1-.7-.4,3,3,0,0,1-.84-1.29c-.24-.6-.45-1.2-.65-1.79s-.37-1.13-.5-1.59-.26-.7-.4-.7-.21.18-.24.55-.22.54-.55.54q-.9,0-.9-2.88a3.85,3.85,0,0,1,.25-1.59,2.82,2.82,0,0,0,.25-1.29q0-.9-.45-1c-.29-.1-.44-.41-.44-.94a5.11,5.11,0,0,1,.29-1.64,4.37,4.37,0,0,0,.3-1.14q0-1.2-.3-1.2a.48.48,0,0,0-.44.3.48.48,0,0,1-.45.3c-.33,0-.5-.23-.5-.7a6.52,6.52,0,0,1,.2-1.64c.13-.5.27-1.06.4-1.69s.26-1.37.4-2.24a22.51,22.51,0,0,0,.2-3.28q0-5.26-.3-11.93t-.3-13.82q0-10.53,5.67-13.12a36.23,36.23,0,0,0,3.87-1.84c1-.56,1.81-1,2.44-1.44s1.13-.71,1.49-.95A2,2,0,0,1,52.82,302.78Z" transform="translate(-37.7 -302.78)"/><path class="cls-1" d="M86.42,304a12.62,12.62,0,0,1,2.34.84,7.12,7.12,0,0,0,2.93.65,6.94,6.94,0,0,0,3.28-.65,5.19,5.19,0,0,1,2.49-.64c.92,0,1.45.29,1.59.89s.4,1.66.79,3.18l.9,3.28c.13.67.26,1.35.4,2s.23,1.31.29,1.84a12.28,12.28,0,0,1-.19,1.89,11.76,11.76,0,0,0-.2,2,42.69,42.69,0,0,0,.59,7.26,16.88,16.88,0,0,0,.5,1.89c.33,1.12.7,2.53,1.09,4.22s.76,3.48,1.1,5.37a30.48,30.48,0,0,1,.49,5.22,16.06,16.06,0,0,0,.35,3.58c.23,1,.48,1.91.75,2.73s.51,1.66.74,2.49a9.81,9.81,0,0,1,.35,2.73,28.42,28.42,0,0,0,.25,3.19,34.8,34.8,0,0,0,1.14,5.17q.7,2.78,1.2,4.47a25.15,25.15,0,0,1,.69,2.88c.14.8.23,1.48.3,2a15.94,15.94,0,0,1,.1,1.94q0,4.08-2.49,4.08c-1.06,0-1.59-.57-1.59-1.69a7.48,7.48,0,0,1,.1-1.1,6.22,6.22,0,0,0,.1-1.09c0-.8-.3-1.19-.89-1.19a.89.89,0,0,0-.85.69,7,7,0,0,0-.34,1.49c-.07.53-.15,1-.25,1.5s-.35.69-.75.69-.6-.23-.79-.69a9.09,9.09,0,0,1-.5-1.55,15.87,15.87,0,0,0-.45-1.54c-.16-.46-.38-.69-.65-.69s-.59.73-.59,1.79a11.09,11.09,0,0,0,.15,1.49,12.09,12.09,0,0,1,.15,1.79,2.38,2.38,0,0,1-.35,1.44,1,1,0,0,1-.85.45c-.46,0-.83-.3-1.09-.9a7.3,7.3,0,0,1-.55-2.18c-.1-.87-.16-1.79-.2-2.79s0-1.92,0-2.78a17.69,17.69,0,0,0-.64-3.68,15.88,15.88,0,0,1-.55-4.28,14.81,14.81,0,0,0-.45-4c-.29-1.06-.81-1.59-1.54-1.59-.33,0-.59.23-.79.69a9.27,9.27,0,0,0-.5,1.54,6.81,6.81,0,0,1-.55,1.54,1,1,0,0,1-.94.7,1.55,1.55,0,0,1-1-.55,13.76,13.76,0,0,1-1.09-1.24c-.36-.46-.69-.88-1-1.24s-.55-.55-.75-.55c-.46,0-.69.4-.69,1.19a2.37,2.37,0,0,0,.29,1.44,2.41,2.41,0,0,1,.3,1.45c0,.39-.33.76-1,1.09a1.59,1.59,0,0,0-1,1.49,4.3,4.3,0,0,0,.35,1.49,5,5,0,0,1,.35,1.79q0,1.29-.6,1.59t-1.29.6a3.31,3.31,0,0,0-1.29,1.09,5.52,5.52,0,0,0-.6,3.09,14.64,14.64,0,0,1-.15,2.18,1.09,1.09,0,0,1-1.24,1,1.23,1.23,0,0,1-1.29-.8,8.85,8.85,0,0,1-.45-1.74c-.1-.63-.22-1.21-.35-1.74a.88.88,0,0,0-.89-.79.94.94,0,0,0-.65.39,9.08,9.08,0,0,0-.65.85,6.64,6.64,0,0,1-.64.84.94.94,0,0,1-.65.4c-.73,0-1.09-.4-1.09-1.19a5.87,5.87,0,0,1,.1-1.19c.06-.34.15-.75.25-1.25s.18-1.11.24-1.84.1-1.69.1-2.88v-3.88a16.36,16.36,0,0,1,.3-3.38l.9-4.37L79,346.93a9.56,9.56,0,0,0,.4-2.39,1,1,0,0,0-.25-.74,1.39,1.39,0,0,1-.25-.95,9.11,9.11,0,0,1,.25-1.89,24.12,24.12,0,0,1,.75-2.48c.26-1,.46-1.89.6-2.69s.24-1.7.34-2.73.25-2.3.45-3.83.53-3.58,1-6.16q.39-2.49.64-5.77c.17-2.19.37-4.27.6-6.26a27.12,27.12,0,0,1,1-5C84.91,304.66,85.56,304,86.42,304ZM90.6,335.4c-.34,0-.6.24-.8.74a13.79,13.79,0,0,0-.55,1.79,15,15,0,0,0-.34,2.24c-.07.79-.1,1.49-.1,2.09a3.52,3.52,0,0,0,.3,1.64,3.71,3.71,0,0,1,.39,1,1.81,1.81,0,0,1-.34.85,3,3,0,0,0-.35,1.64c0,.79,1,1.19,3.08,1.19a4.79,4.79,0,0,0,2.34-.4,1.08,1.08,0,0,0,.64-.89,5.89,5.89,0,0,0-.2-1.3,7.85,7.85,0,0,1-.2-1.88c0-1.66,0-3,0-4a14.66,14.66,0,0,0-.19-2.24,2.7,2.7,0,0,0-.3-.94c-.1-.13-.19-.2-.25-.2-.27,0-.43.18-.5.54l-.2,1.2a5.92,5.92,0,0,1-.29,1.19.72.72,0,0,1-.7.55c-.33,0-.55-.25-.65-.75a8.56,8.56,0,0,1-.15-1.69,12.29,12.29,0,0,0-.1-1.69C91,335.64,90.86,335.4,90.6,335.4Z" transform="translate(-37.7 -302.78)"/><path class="cls-1" d="M138,303.78a10.65,10.65,0,0,1,3.53.64,9.21,9.21,0,0,0,2.93.65,2.79,2.79,0,0,0,1.65-.4,2.24,2.24,0,0,1,1.34-.39q2.09,0,2.09,8a9.69,9.69,0,0,1-.5,3.08c-.33,1-.71,2-1.14,2.94a26.63,26.63,0,0,0-1.15,3,10.49,10.49,0,0,0-.49,3.23,22.05,22.05,0,0,0,.14,2.44,21.92,21.92,0,0,1,.15,2.43,16.29,16.29,0,0,1-.15,2.39,16.38,16.38,0,0,0-.14,2.38,14.42,14.42,0,0,0,.19,2.09c.14.86.3,1.79.5,2.79s.36,2,.5,3.13a25.77,25.77,0,0,1,.2,3,13.57,13.57,0,0,1-.25,2.68,15.37,15.37,0,0,0-.25,3.09c0,.86,0,1.77.05,2.73s.05,1.91.05,2.83c0,1.4,0,2.52-.05,3.39A18.79,18.79,0,0,1,147,362a10.1,10.1,0,0,1-.4,1.64c-.16.5-.41,1.15-.74,1.94s-2.49,2.69-6.47,6.07a5.56,5.56,0,0,0-2.28,4.37,6.33,6.33,0,0,0,.3,2.24,4.29,4.29,0,0,1,.29,1.54,1.67,1.67,0,0,1-1.88,1.89c-.74,0-1.22-.18-1.45-.55a2.88,2.88,0,0,1-.34-1.54,9.89,9.89,0,0,1,.14-1.74,8.83,8.83,0,0,0,.15-1,1.94,1.94,0,0,0-1.89-1.79,1.26,1.26,0,0,0-1.09.79,1.08,1.08,0,0,1-1.09.7,2.47,2.47,0,0,1-1.4-.85q-.89-.84-1.29-.84a1.06,1.06,0,0,0-.84.4,2.27,2.27,0,0,0-.35,1.49,16.17,16.17,0,0,0,.6,3.48,23.5,23.5,0,0,1,.59,5.57,4.13,4.13,0,0,1-.54,1.84,2.11,2.11,0,0,1-2,1c-1.39,0-2.09-.86-2.09-2.59a32.62,32.62,0,0,1,.3-4.77,22.18,22.18,0,0,0,.3-3.08,20.22,20.22,0,0,0-.35-2.83,10.07,10.07,0,0,0-2.84-4.73,26.83,26.83,0,0,1-5.66-9.19,29.1,29.1,0,0,1-1.69-9.7c0-1.19,0-2.37.1-3.53s.1-2.4.1-3.73c0-1.52-.07-3.11-.2-4.77s-.2-3.35-.2-5.07a43.78,43.78,0,0,1,.79-8.3,48.79,48.79,0,0,0,.8-9.2v-1.94a12.07,12.07,0,0,0-.1-1.54,7.36,7.36,0,0,0-.45-2.14,8.74,8.74,0,0,0-.74-1.44,8.94,8.94,0,0,1-.7-1.24,3.65,3.65,0,0,1-.3-1.54,2.64,2.64,0,0,1,.85-1.94,7,7,0,0,1,2-1.39,12.09,12.09,0,0,1,2.33-.85,8.5,8.5,0,0,1,2-.3,11.43,11.43,0,0,1,2.78.3,4.09,4.09,0,0,1,2,1.2,7,7,0,0,1,1.44,2.48,18,18,0,0,1,.9,4.18c.33,2.38.6,4.51.79,6.36a54.86,54.86,0,0,1,.3,5.87,69.05,69.05,0,0,1-.34,6.91c-.24,2.28-.49,4.41-.75,6.36s-.53,3.71-.8,5.27-.43,2.73-.49,3.53c-.2,1.72-.37,3.4-.5,5s-.2,2.8-.2,3.53a9.31,9.31,0,0,0,.9,4.32,9.2,9.2,0,0,0,2.08,2.79,7.32,7.32,0,0,0,2.34,1.44,5.69,5.69,0,0,0,1.74.4,2.56,2.56,0,0,0,1.64-.6,4.64,4.64,0,0,0,1.29-2,15.69,15.69,0,0,0,.85-3.73,46.71,46.71,0,0,0,.3-5.81q0-3.37-.15-6.12c-.1-1.82-.22-3.49-.35-5s-.25-2.95-.35-4.27-.15-2.65-.15-4a38.42,38.42,0,0,1,.45-5.82,40.19,40.19,0,0,0,.45-6.11,13.38,13.38,0,0,0-.3-2.24c-.2-1-.42-2.15-.65-3.38s-.44-2.43-.64-3.63a18.22,18.22,0,0,1-.3-2.88,3.33,3.33,0,0,1,.5-2,3.38,3.38,0,0,1,1.14-1,3.29,3.29,0,0,1,1.44-.4C137.16,303.8,137.62,303.78,138,303.78Z" transform="translate(-37.7 -302.78)"/><path class="cls-1" d="M180.58,362.24a3.28,3.28,0,0,1,2.53.75,2.44,2.44,0,0,1,.65,1.64,3.66,3.66,0,0,1-.65,1.84,3.78,3.78,0,0,0-.64,1.34,4.26,4.26,0,0,0,.39,1.54,4,4,0,0,1,.4,1.44c0,.73-.56,1.36-1.69,1.89a5.69,5.69,0,0,0-2.38,1.59,2.71,2.71,0,0,0-.7,1.29,4.44,4.44,0,0,0,.4,1.74,5.86,5.86,0,0,1,.4,2.24,1.5,1.5,0,0,1-.45,1.19,1.4,1.4,0,0,1-1,.4,1.37,1.37,0,0,1-.84-.25,1.09,1.09,0,0,1-.35-.94,9,9,0,0,1,.1-1.24,12.85,12.85,0,0,0,.1-1.54,7.84,7.84,0,0,0-.4-2.44,1.68,1.68,0,0,0-1.79-1.24c-.4,0-.63.34-.7,1s-.11,1.47-.14,2.34-.09,1.64-.15,2.33-.27,1.05-.6,1.05c-.53,0-.84-.3-.94-.9s-.2-1.26-.3-2a6.19,6.19,0,0,0-.6-2,1.85,1.85,0,0,0-1.84-.9,2,2,0,0,0-1.09.4,2,2,0,0,1-1,.4,3.51,3.51,0,0,1-1.84-.7,3.37,3.37,0,0,0-1.64-.7,6.83,6.83,0,0,0-3.08.65,2.38,2.38,0,0,0-1.29,2.34,9.57,9.57,0,0,0,.1,1.09c.06.53.1.9.1,1.09,0,.73-.33,1.1-1,1.1s-1-.48-1.14-1.44-.31-2-.45-3.14a3.23,3.23,0,0,0-.89-1.34,3.9,3.9,0,0,1-1-1.64,17.52,17.52,0,0,1-.34-2.09,20,20,0,0,1-.15-2.28v-6.66a24.71,24.71,0,0,0-.6-5.52,21.93,21.93,0,0,1-.6-4.82,7.58,7.58,0,0,1,.3-2,22.29,22.29,0,0,1,.7-2.14c.26-.7.51-1.38.74-2a5.53,5.53,0,0,0,.35-1.79,11,11,0,0,0,.1-1.44v-1.34c0-1,0-2-.05-2.89s0-1.75,0-2.48a7.24,7.24,0,0,1,.25-1.79c.16-.66.33-1.36.5-2.09s.33-1.44.49-2.14a8.13,8.13,0,0,0,.25-1.94,7.44,7.44,0,0,0-.4-2.58,21.61,21.61,0,0,0-.84-2c-.3-.63-.56-1.24-.8-1.84a4.94,4.94,0,0,1-.34-1.79,20.06,20.06,0,0,1,.49-2.78,22.39,22.39,0,0,0,.5-4.87,6.77,6.77,0,0,0-.55-2.24,6.93,6.93,0,0,1-.54-2q0-3.18,2.88-3.18a6.43,6.43,0,0,1,2.93.94,7.72,7.72,0,0,0,3.73.95,7.14,7.14,0,0,1,3,.59,2.54,2.54,0,0,1,1.3,2.59,6,6,0,0,1-.4,1.64,5.83,5.83,0,0,0-.4,1.84,11.32,11.32,0,0,0,.3,2.29,11.32,11.32,0,0,1,.3,2.28,4.61,4.61,0,0,1-.5,1.79,4.75,4.75,0,0,0-.5,1.89,2.3,2.3,0,0,0,.3.9c.2.39.43.81.7,1.24a11.37,11.37,0,0,1,.7,1.34,3.29,3.29,0,0,1,.29,1.19,3.22,3.22,0,0,1-1.09,2.14,3.32,3.32,0,0,0-1.09,2.24,9.21,9.21,0,0,0,.29,1.89,12.77,12.77,0,0,1,.3,1.49,3.54,3.54,0,0,1-.64,2,4,4,0,0,0-.65,2.33c0,.07,0,.35.1.85s.15,1,.25,1.64.18,1.19.25,1.79.1,1.06.1,1.39a27.85,27.85,0,0,1-.35,3.93,26.43,26.43,0,0,0-.35,3.93,8.13,8.13,0,0,0,.35,2.68,5.75,5.75,0,0,1,.35,1.89c0,.53,0,1-.05,1.29a14.24,14.24,0,0,0,0,1.49,5.07,5.07,0,0,0,1.14,3.48,4,4,0,0,0,3.13,1.3,9.51,9.51,0,0,0,2.29-.4,9.57,9.57,0,0,1,2.38-.4,7.63,7.63,0,0,1,.95.05,5.12,5.12,0,0,0,.84,0c.53,0,1.05,0,1.54,0S180.18,362.24,180.58,362.24Z" transform="translate(-37.7 -302.78)"/><path class="cls-1" d="M220.25,350.11a10,10,0,0,1-.3,2.34,14.17,14.17,0,0,0-.3,3.23,6.19,6.19,0,0,0,.45,2.63,4.09,4.09,0,0,1,.45,1.74,1.79,1.79,0,0,1-.35,1.2,7.49,7.49,0,0,1-.75.74c-.26.24-.51.45-.74.65a1,1,0,0,0-.35.79,6.48,6.48,0,0,0,.1,1.35c.06.3.13.56.2.79s.13.48.2.75a6.26,6.26,0,0,1,.1,1.29,1.31,1.31,0,0,1-.4.75c-.27.29-.55.63-.85,1a9,9,0,0,0-.84,1.24,2.77,2.77,0,0,0-.4,1.4c0,.33,0,.66.05,1s0,.79,0,1.39c0,1-.4,1.49-1.19,1.49a1.71,1.71,0,0,1-.95-.39c-.36-.27-.73-.57-1.09-.9s-.71-.63-1.05-.89a1.41,1.41,0,0,0-.79-.4,1.25,1.25,0,0,0-1.24.94,5.68,5.68,0,0,0-.35,2,7.25,7.25,0,0,0,.1,1.34,6.53,6.53,0,0,1,.1,1c0,.53-.24.79-.7.79s-.65-.3-.94-.89-.63-1.25-1-1.94a12.82,12.82,0,0,0-1.24-1.94,2,2,0,0,0-1.59-.9c-.8,0-1.31.22-1.54.65a1.22,1.22,0,0,1-1.15.65,1.78,1.78,0,0,1-1.14-.45,12.17,12.17,0,0,0-1.34-.94,10.32,10.32,0,0,0-2-.95,9.69,9.69,0,0,0-3.23-.45,1.83,1.83,0,0,0-1.15.35,3,3,0,0,0-.74.85,3.17,3.17,0,0,0-.4,1,4.92,4.92,0,0,0-.1.8,4.27,4.27,0,0,0,.75,1.84,4.28,4.28,0,0,1,.74,2c0,1.06-.56,1.59-1.69,1.59a1.83,1.83,0,0,1-.94-.34,1.6,1.6,0,0,1-.55-1.44,9.33,9.33,0,0,1,.2-1.79,8.83,8.83,0,0,0,.2-1.5c0-.13-.05-.53-.15-1.19s-.45-1-1-1a.74.74,0,0,0-.55.25,1.06,1.06,0,0,1-.75.24.61.61,0,0,1-.64-.39,2.31,2.31,0,0,1-.15-.8,3.08,3.08,0,0,1,.4-1.59A4.65,4.65,0,0,0,188,369c0-1.39,0-2.52-.09-3.38s-.12-1.59-.15-2.19-.09-1.09-.15-1.49a6.75,6.75,0,0,1-.1-1.19,21.18,21.18,0,0,1,.29-3.43,16.74,16.74,0,0,0,.3-2.54,3,3,0,0,0-.24-1.29l-1-2.09a2.84,2.84,0,0,1-.5-1.49,15.24,15.24,0,0,1,.55-3.58,15.63,15.63,0,0,0,.55-3.58,32.81,32.81,0,0,1,.59-6.41,29.88,29.88,0,0,0,.6-6,7.09,7.09,0,0,0-.4-2.29,7.5,7.5,0,0,1-.4-1.49,12.63,12.63,0,0,1,.7-4.43,10.69,10.69,0,0,0,.7-2.23,2.17,2.17,0,0,0-.55-1.5c-.36-.39-.76-.79-1.19-1.19a15.52,15.52,0,0,1-1.2-1.24,2.33,2.33,0,0,1-.54-1.54c0-.93,0-1.64-.05-2.14s-.07-.91-.1-1.24-.07-.63-.1-.9a6.9,6.9,0,0,1-.05-1,4.88,4.88,0,0,1,.65-2.64,2.86,2.86,0,0,1,2.63-1c.2,0,.6,0,1.19.1s1,.1,1.1.1a7.3,7.3,0,0,0,2.38-.45,7,7,0,0,1,1.69-.45,3.75,3.75,0,0,1,1.89.7,4.77,4.77,0,0,0,1.89.79,5.09,5.09,0,0,0,2-.54,5,5,0,0,1,2-.55,6.9,6.9,0,0,1,2.68.65,8.55,8.55,0,0,0,2.79.74,9.84,9.84,0,0,1,7.16,4.08,23,23,0,0,1,4.17,10.14c0,.33,0,.68,0,1s.05.72.05,1.05a8,8,0,0,1-.3,2.58,3.34,3.34,0,0,1-.59,1.1,2.09,2.09,0,0,1-.6.44q-.3.15-.3.75a9.8,9.8,0,0,0,.45,2.73c.3,1,.63,2,1,3s.7,1.94,1,2.83a7.35,7.35,0,0,1,.45,2.24c0,3.51-.1,6.2-.3,8.05S220.25,349.65,220.25,350.11Zm-11.14-4.87q0-3.18.25-6.56c.17-2.26.25-4.54.25-6.86a5.6,5.6,0,0,0-.4-2.29,1.47,1.47,0,0,0-1.49-.89,1,1,0,0,0-.94.59,7.45,7.45,0,0,0-.6,1.24c-.17.44-.35.85-.55,1.25a1,1,0,0,1-.89.59c-.53,0-.8-.53-.8-1.59a24.11,24.11,0,0,1,.3-4,20.65,20.65,0,0,0,.3-2.19c0-.93,0-1.67.05-2.24s0-1.07,0-1.54a4.74,4.74,0,0,0-.2-1.54c-.13-.36-.56-.55-1.29-.55-.47,0-.7.37-.7,1.1a8.35,8.35,0,0,0,.3,2,8.23,8.23,0,0,1,.3,1.79c0,.47-.17.7-.5.7a1.91,1.91,0,0,1-1.74-.84,3.93,3.93,0,0,1-.55-2.14,7.84,7.84,0,0,1,.25-1.54,7.23,7.23,0,0,0,.25-1.54,3.39,3.39,0,0,0-.5-1.74c-.33-.57-.66-.85-1-.85s-.65.37-.75,1.09a13.23,13.23,0,0,0-.15,1.59,13.22,13.22,0,0,1,.25,1.55c0,.36.09.73.15,1.09a4.5,4.5,0,0,1,.1.75,4.43,4.43,0,0,1-.45,1.93,5.88,5.88,0,0,0-.44,2.44,8.67,8.67,0,0,0,1,4.13,7.64,7.64,0,0,1,1,3.63,13.35,13.35,0,0,1-.24,2.78c-.17.73-.34,1.43-.5,2.09s-.33,1.37-.5,2.14a14.58,14.58,0,0,0-.25,2.93c0,.93,0,1.74.1,2.43a7.89,7.89,0,0,0,.6,2.24,15.4,15.4,0,0,0,.94,1.79,3.7,3.7,0,0,1,.55,2c0,.6-.23.89-.7.89a4.35,4.35,0,0,1-.64-.15,4.11,4.11,0,0,0-.75-.14,1,1,0,0,0-.94.44,1.71,1.71,0,0,0-.25.85,11,11,0,0,0,.2,1.69,21.64,21.64,0,0,0,.59,2.53,7.91,7.91,0,0,0,1.1,2.34,2,2,0,0,0,1.69,1c.53,0,1,0,1.44,0s.88.05,1.34.05a6.32,6.32,0,0,0,2.09-.34,3.25,3.25,0,0,0,1.69-1.59,11.9,11.9,0,0,0,1.1-3.68,43.21,43.21,0,0,0,.39-6.52v-4.37Z" transform="translate(-37.7 -302.78)"/><path class="cls-1" d="M262,370.1a3,3,0,0,1-.9,2.33,9.57,9.57,0,0,1-1.94,1.44,17.69,17.69,0,0,0-1.89,1.25,2.08,2.08,0,0,0-.84,1.74,4.4,4.4,0,0,0,.2,1,7.86,7.86,0,0,1,.2,1.94,16,16,0,0,1-.55,4.38c-.37,1.25-.81,1.88-1.34,1.88s-.9-.53-.9-1.59a19.41,19.41,0,0,1,.1-2.13,14.15,14.15,0,0,0,.1-1.45c0-.53,0-1.17-.1-1.93s-.16-1.51-.3-2.24a16.76,16.76,0,0,0-.44-1.89c-.17-.53-.39-.8-.65-.8a1.86,1.86,0,0,0-1,.25,3.33,3.33,0,0,0-.65.5,4.15,4.15,0,0,0-.45.5.72.72,0,0,1-.59.24,1.46,1.46,0,0,1-.6-.14.66.66,0,0,1-.3-.65,8.18,8.18,0,0,1,.3-1.59,9.42,9.42,0,0,0,.3-2.29,12.46,12.46,0,0,0-1.2-5.07,33.73,33.73,0,0,1-2-5.07,12.58,12.58,0,0,1-.65-3.38,5.87,5.87,0,0,1,.1-1.19,6.15,6.15,0,0,0,.1-1.1,5.22,5.22,0,0,0-1-3.08,4.51,4.51,0,0,1-.79-4.18,4.25,4.25,0,0,0,.2-1.49c0-.73-.3-1.09-.9-1.09a2.31,2.31,0,0,0-1.44.5,2.72,2.72,0,0,0-.65,2.18,5.34,5.34,0,0,0,.15,1.59,2.57,2.57,0,0,1,.15.9c0,.27-.06.43-.2.5a.94.94,0,0,1-.39.1c-.34,0-.57-.22-.7-.65s-.25-.89-.35-1.39-.2-1-.3-1.34-.31-.6-.64-.6-.6.6-.6,1.79c0,.2,0,.63.1,1.29s.11,1.34.15,2,.08,1.36.15,2,.1,1,.1,1.14c0,.33,0,.86-.1,1.59s-.15,1.58-.25,2.54-.18,2-.25,3-.1,2-.1,2.88a14.69,14.69,0,0,0,.55,4,16.29,16.29,0,0,1,.55,4.28,29.5,29.5,0,0,1-.15,3.68c-.1.66-.42,1-.95,1a1.1,1.1,0,0,1-1.09-.65,6.12,6.12,0,0,1-.45-1.39c-.1-.5-.22-1-.35-1.39a.79.79,0,0,0-.79-.65,2.24,2.24,0,0,0-1.69.95,3.12,3.12,0,0,0-.8,2,12.66,12.66,0,0,0,.3,2.53,13.62,13.62,0,0,1,.3,1.74c0,.66-.4,1-1.2,1-.53,0-.82-.22-.89-.65a8.37,8.37,0,0,1-.1-1.34c0-.2,0-.58,0-1.15s.05-1,.05-1.34a7.81,7.81,0,0,0-.25-2q-.24-.95-2-2c-.93-.53-1.46-1-1.59-1.49a4.53,4.53,0,0,1-.2-1.19,3.64,3.64,0,0,1,.25-1c.17-.47.37-1,.6-1.5a14.62,14.62,0,0,0,.59-1.59,4.25,4.25,0,0,0,.25-1.19,14.85,14.85,0,0,0-.29-2.78c-.2-1-.4-2-.6-2.89s-.4-1.77-.6-2.53a7.46,7.46,0,0,1-.3-1.64,17.52,17.52,0,0,1,.3-3.14c.2-1.09.4-2.12.6-3.08s.4-1.82.6-2.58a7.91,7.91,0,0,0,.29-1.64,18.42,18.42,0,0,0-.25-2.74c-.16-1.09-.34-2.22-.54-3.38s-.38-2.22-.55-3.18a13.41,13.41,0,0,1-.25-2.14,10,10,0,0,1,1.1-4.42,10.38,10.38,0,0,0,1.09-4.62,11.65,11.65,0,0,0-.8-4.18,29.65,29.65,0,0,1-1-2.88,12.24,12.24,0,0,0-.7-2.79,8.7,8.7,0,0,1-.59-2.58,13.15,13.15,0,0,1,.3-2.49,13.18,13.18,0,0,0,.29-2.58,3.67,3.67,0,0,0-.19-1,3.7,3.7,0,0,1-.2-1.14,1.3,1.3,0,0,1,.64-1.19A2.35,2.35,0,0,1,229,304a3,3,0,0,1,1,.25l1.34.49,1.34.5a3,3,0,0,0,.95.25,10.53,10.53,0,0,0,2-.25,11.28,11.28,0,0,1,2-.25,39,39,0,0,1,4,.25,36.47,36.47,0,0,0,4,.25h-.1a33.15,33.15,0,0,1,7.56,2.19,15.59,15.59,0,0,1,4.17,2.63,6.42,6.42,0,0,1,1.79,2.64c.27.86.47,1.59.6,2.18.26,1.39.48,2.69.65,3.88a30.91,30.91,0,0,1,.24,4.08,12.91,12.91,0,0,1-.54,3.18,12.55,12.55,0,0,0-.55,3.18,42.88,42.88,0,0,1-.3,4.52,43.21,43.21,0,0,0-.3,4.53,5.52,5.52,0,0,0,.15,1.49,2.93,2.93,0,0,1,.15.8,2.33,2.33,0,0,1-.54,1.54,1.61,1.61,0,0,1-1.25.64c-.46,0-.93-.35-1.39-1s-.93-1.05-1.39-1.05a.44.44,0,0,0-.5.5,3.22,3.22,0,0,0,.75,2,3.26,3.26,0,0,1,.74,2,3,3,0,0,1-.25,1.19,3.71,3.71,0,0,0-.24,1.39,5.87,5.87,0,0,0,.59,2.49c.53,1.26.9,2.09,1.1,2.49a10.76,10.76,0,0,1,.59,1.59,13.36,13.36,0,0,1,.3,1.93c.07.77.11,1.53.15,2.29s.07,1.49.1,2.19a4.13,4.13,0,0,0,.35,1.64,7.26,7.26,0,0,0,.79,1.54l1.25,2a20.42,20.42,0,0,1,1.14,2.09A4.4,4.4,0,0,1,262,370.1Zm-13.92-41.76a8.4,8.4,0,0,0-.35-3.13,2.86,2.86,0,0,1-.35-1.35,5.45,5.45,0,0,1,.15-1.54,2.94,2.94,0,0,0,.15-.94,5.61,5.61,0,0,0-1-3.38,3.41,3.41,0,0,0-3-1.4,1.35,1.35,0,0,0-1.29,1,5.84,5.84,0,0,0-.4,2.14c0,.2,0,.49,0,.89s.05.66.05.8c0,.73-.2,1.09-.6,1.09a.77.77,0,0,1-.79-.55,8.82,8.82,0,0,1-.35-1.19,5.94,5.94,0,0,0-.4-1.19.78.78,0,0,0-.74-.55c-.34,0-.5.43-.5,1.29,0,.2,0,.68.1,1.44s.15,1.56.25,2.39.18,1.63.25,2.39.1,1.24.1,1.44a4.4,4.4,0,0,1-.25,1.54,3.89,3.89,0,0,0-.25,1.44c0,.86.4,1.29,1.19,1.29a1.86,1.86,0,0,0,1-.2,1.48,1.48,0,0,1,.74-.19,1,1,0,0,1,.75.44c.23.3.48.63.74,1a9.19,9.19,0,0,0,.85,1,1.42,1.42,0,0,0,1,.45c.93,0,1.64-.61,2.14-1.84A12.34,12.34,0,0,0,248.09,328.34Z" transform="translate(-37.7 -302.78)"/><path class="cls-1" d="M279.6,302.88a18.73,18.73,0,0,1,4.78.7,37.08,37.08,0,0,1,5.12,1.79,32.21,32.21,0,0,1,4.67,2.48,15.77,15.77,0,0,1,3.33,2.79,13.73,13.73,0,0,1,2.39,4.72,30.56,30.56,0,0,1,.79,8q0,3.78-.25,6.81t-.59,5.61c-.24,1.73-.44,3.38-.6,5a45.75,45.75,0,0,0-.25,4.87v3.68c0,2.18-.07,4-.2,5.36a32.89,32.89,0,0,1-.49,3.49,12.22,12.22,0,0,1-.7,2.28c-.27.6-.5,1.2-.7,1.79a13.9,13.9,0,0,0-.49,2,16.85,16.85,0,0,0-.2,2.93,36.68,36.68,0,0,1-.75,8.4c-.49,2-1.11,3-1.84,3a.9.9,0,0,1-.79-.55,8,8,0,0,1-.55-1.24,9.17,9.17,0,0,0-.55-1.25q-.3-.54-.69-.54c-.67,0-1.06.48-1.2,1.44a23.32,23.32,0,0,0-.2,3.13,19,19,0,0,1-.24,3.13c-.17,1-.58,1.45-1.25,1.45a1.43,1.43,0,0,1-1-.5,5.4,5.4,0,0,1-.7-2.79c-.13-1.52-.24-2.65-.35-3.38s-.44-1.09-1-1.09a1.18,1.18,0,0,0-1.14.65,1,1,0,0,1-.95.64c-.39,0-.81-.33-1.24-1a2,2,0,0,0-1.74-1,1.19,1.19,0,0,0-1.14.9,20,20,0,0,0-.65,1.94q-.3,1-.6,1.89c-.19.56-.49.84-.89.84a1.75,1.75,0,0,1-1.29-.64,5.25,5.25,0,0,1-.7-1.5c-.2-.63-.4-1.39-.59-2.28a26.4,26.4,0,0,0-.9-3c-.4-1.19-.76-2.15-1.09-2.88a10.25,10.25,0,0,0-.9-1.64,2.38,2.38,0,0,0-.69-.7,1.32,1.32,0,0,0-.6-.14,1.14,1.14,0,0,0-1.19.79,4.48,4.48,0,0,0-.3,1.59,6.25,6.25,0,0,0,0,.9c0,.26.05.46.05.59,0,.73-.4,1.1-1.2,1.1-.33,0-.66-.47-1-1.4a28.66,28.66,0,0,1-.95-3.43,41.75,41.75,0,0,1-.69-4.22,33.2,33.2,0,0,1-.25-3.78,19.19,19.19,0,0,1,.25-2.93c.16-1.1.36-2.19.6-3.28s.43-2.11.59-3a13,13,0,0,0,.25-2.28,7.1,7.1,0,0,0-.45-2.29c-.3-.86-.64-1.79-1-2.78a30.31,30.31,0,0,1-1.05-3.09,12,12,0,0,1-.44-3.18,18.13,18.13,0,0,1,.35-2.88c.23-1.33.49-2.7.79-4.13s.58-2.76.85-4a15.42,15.42,0,0,0,.39-2.79,4.73,4.73,0,0,0-.34-1.89,6.38,6.38,0,0,1-.35-2.48,9.42,9.42,0,0,1,.25-2q.24-1.14.54-2.19c.2-.69.38-1.32.55-1.89s.28-.94.35-1.14a8.55,8.55,0,0,1,2.48-4.08,20.27,20.27,0,0,1,4-3,21.85,21.85,0,0,1,4-1.79A10.8,10.8,0,0,1,279.6,302.88Zm0,14.92c-.59,0-1,.38-1.29,1.14a6.43,6.43,0,0,0-.4,2,18.27,18.27,0,0,0,.4,3.88,16.31,16.31,0,0,1,.4,3.48c0,1.06,0,1.92,0,2.58s-.09,1.21-.15,1.64-.12.81-.15,1.15-.05.66-.05,1a17,17,0,0,0,.2,2.19c.13.93.3,1.89.5,2.88s.36,1.92.49,2.79a12.84,12.84,0,0,1,.2,1.88,23.27,23.27,0,0,1-.3,3.93c-.2,1.16-.43,2.26-.69,3.28s-.5,2-.7,3a14.28,14.28,0,0,0-.3,2.93,5,5,0,0,0,.8,2.29c.53,1.06.94,1.9,1.24,2.53a9,9,0,0,0,.85,1.49,1.85,1.85,0,0,0,.79.7,3.61,3.61,0,0,0,1.2.15,4,4,0,0,0,2.88-1.15,3.77,3.77,0,0,0,1.19-2.83,8.84,8.84,0,0,0-.15-1.29,9.05,9.05,0,0,1-.15-1.39c0-.2,0-.58.05-1.15s0-1.27,0-2.14,0-2-.1-3.43-.1-2.5-.1-3.23v-1.24a5.82,5.82,0,0,1,.1-1c.07-.33.15-.72.25-1.15s.25-1,.45-1.64a11.16,11.16,0,0,0,.6-3.58,28.11,28.11,0,0,0-.65-6,36.69,36.69,0,0,1-.65-7.56,13.18,13.18,0,0,1,.45-3.58,12,12,0,0,0,.45-3.28,4.38,4.38,0,0,0-.45-2,1.65,1.65,0,0,0-1.64-.89c-.26,0-.5.28-.7.84s-.39,1.18-.59,1.84-.42,1.28-.65,1.84-.48.85-.74.85-.48-.2-.65-.6l-.55-1.29a8.43,8.43,0,0,0-.69-1.3A1.19,1.19,0,0,0,279.6,317.8Z" transform="translate(-37.7 -302.78)"/><path class="cls-1" d="M342.64,353.69a2.79,2.79,0,0,1-.35,1.34,12.2,12.2,0,0,1-.84,1.35,6.68,6.68,0,0,0-.95,3c-.1,1.16-.15,2.2-.15,3.13,0,1.79,0,3.12.1,4s.13,1.51.2,1.94a6.75,6.75,0,0,0,.2,1,5.57,5.57,0,0,1,.1,1.24,5.79,5.79,0,0,1-.3,1.74,11.11,11.11,0,0,1-1.49,2.64,2.19,2.19,0,0,0-.5,1.19,11.89,11.89,0,0,0,.35,2.14,11.77,11.77,0,0,1,.35,2.33,1.33,1.33,0,0,1-.6,1.25,2.36,2.36,0,0,1-1.19.35c-1.06,0-1.59-.64-1.59-1.89,0-.27,0-.62,0-1.05s.05-.74.05-.94a9.7,9.7,0,0,0-.45-3.58c-.3-.66-.61-1-.95-1a.79.79,0,0,0-.74.45,4.26,4.26,0,0,0-.4,1,6.37,6.37,0,0,1-.35,1c-.13.3-.3.45-.49.45s-.63-.27-.9-.8A16,16,0,0,1,331,374c-.26-.76-.51-1.55-.74-2.38a7.84,7.84,0,0,0-.84-2,25,25,0,0,0-1.89-2.59,4.39,4.39,0,0,1-.8-3,7.6,7.6,0,0,1,.15-1.59c.1-.46.2-.91.3-1.34s.2-.88.3-1.34a8.88,8.88,0,0,0,.14-1.79c0-1-.39-1.5-1.19-1.5q-2.19,0-2.19,4.08a5.07,5.07,0,0,1-.84,3.28c-.57.67-1,1-1.34,1-.53,0-.8-.7-.8-2.09a34.59,34.59,0,0,1,.35-4.77,39.93,39.93,0,0,0,.35-5.47,44.5,44.5,0,0,0-.25-4.53,36.61,36.61,0,0,0-.7-4.27,13.79,13.79,0,0,0-1.09-3.18c-.43-.83-.91-1.25-1.44-1.25s-.76.29-1.1.85a4.4,4.4,0,0,0-.49,2.24,12.61,12.61,0,0,0,.29,2.63,11.69,11.69,0,0,1,.3,2.54,8.49,8.49,0,0,1-.2,1.84,10.61,10.61,0,0,0-.19,2.13,13,13,0,0,0,.34,2.44,15.65,15.65,0,0,1,.35,3.23,3.26,3.26,0,0,1-.74,2,3.22,3.22,0,0,0-.75,2,8.87,8.87,0,0,0,.5,2.63,8.87,8.87,0,0,1,.49,2.64,8.71,8.71,0,0,0,.3,2.93,3.91,3.91,0,0,1,.3,1.64,4.19,4.19,0,0,1-.94,2.68,3.9,3.9,0,0,0-.95,1.6,17.11,17.11,0,0,0,.1,2,12.56,12.56,0,0,1,.1,1.4c0,1-.43,1.49-1.29,1.49-.67,0-1.06-.73-1.2-2.19a5.8,5.8,0,0,0-.64-2.54,4.06,4.06,0,0,0-1.24-1.39,4.44,4.44,0,0,0-1.3-.59,4,4,0,0,0-.89-.15,2.84,2.84,0,0,0-1.15.3,1.08,1.08,0,0,0-.64,1.09,5.68,5.68,0,0,0,.4,1.64,6,6,0,0,1,.39,1.84,3.5,3.5,0,0,1-.54,2.39c-.37.33-.62.49-.75.49s-.53-.21-.79-.64a9.11,9.11,0,0,1-.75-1.59,14.22,14.22,0,0,1-.55-2,10.67,10.67,0,0,1-.19-1.94c0-1.2,0-2.09.09-2.69a13.54,13.54,0,0,0,.1-1.59,14.27,14.27,0,0,0-.1-1.74,16.33,16.33,0,0,1-.09-1.74,11.12,11.12,0,0,1,.79-4.17,11.73,11.73,0,0,0,.8-4.38,16.82,16.82,0,0,0-.4-2.63,17.82,17.82,0,0,1-.4-3.63,5.47,5.47,0,0,1,.4-2.09c.26-.66.58-1.34.94-2a17,17,0,0,0,.95-2.14,6.7,6.7,0,0,0,.39-2.28,10.8,10.8,0,0,0-.24-2.09,21.38,21.38,0,0,0-.6-2.24c-.23-.69-.43-1.34-.6-1.94a6,6,0,0,1-.25-1.19,8.68,8.68,0,0,1,.25-1.59c.17-.73.37-1.52.6-2.39s.43-1.7.6-2.53a11.53,11.53,0,0,0,.24-2.14,6.93,6.93,0,0,0-.84-3.28,7.34,7.34,0,0,1-.85-3.48,6.59,6.59,0,0,1,.25-1.69,16.2,16.2,0,0,1,.6-1.74c.23-.56.43-1.06.6-1.49a3.13,3.13,0,0,0,.24-.95,20,20,0,0,0-.29-3.28,19,19,0,0,1-.3-3.08,4.33,4.33,0,0,1,1.59-3.38q1.59-1.39,5.37-1.39,5.07,0,5.07,2.68a8.64,8.64,0,0,1-.2,1.94,9.23,9.23,0,0,0,.15,4.43,11.1,11.1,0,0,0,.94,2c.4.67.9,1.43,1.5,2.29a35.52,35.52,0,0,1,2.08,3.58,8.29,8.29,0,0,1,.85,2.68c.16,1.07.28,2.11.35,3.14s.1,2,.1,2.93a7.17,7.17,0,0,0,.19,2,6.53,6.53,0,0,0,.85,1.69,4.76,4.76,0,0,1,.75,2.58,2.34,2.34,0,0,1-.2.95,2,2,0,0,0-.2.84,10.69,10.69,0,0,0,.35,3.23,1.39,1.39,0,0,0,1.44,1c.92,0,1.39-.5,1.39-1.49a6.75,6.75,0,0,1,.4-2.44,8,8,0,0,0,.4-2.73,6.6,6.6,0,0,0-.2-1.15q-.21-.84-.45-2c-.17-.79-.32-1.67-.45-2.63a21.05,21.05,0,0,1-.2-2.83,30.4,30.4,0,0,1,.55-6.62,18.23,18.23,0,0,0,.55-4,6.25,6.25,0,0,0-.3-1.79l-.6-2-.59-1.94a5.56,5.56,0,0,1-.3-1.64,3,3,0,0,1,.74-2,5.82,5.82,0,0,1,1.94-1.39,11.06,11.06,0,0,1,2.68-.8,18.26,18.26,0,0,1,2.89-.24,4.6,4.6,0,0,1,4,1.94,8.45,8.45,0,0,1,1.39,5,6.39,6.39,0,0,1-.2,1.14c-.13.56-.3,1.14-.5,1.74s-.36,1.19-.5,1.79a6.88,6.88,0,0,0-.19,1.29,9.26,9.26,0,0,0,.39,2.69c.27.86.58,1.74.95,2.63s.68,1.79.94,2.69a9.73,9.73,0,0,1,.4,2.83,3.89,3.89,0,0,1-.94,2.73l-1.94,2.14a7,7,0,0,0-1,2.54,13.3,13.3,0,0,0-.4,2.63,8.68,8.68,0,0,0,.25,1.59c.17.73.33,1.53.5,2.39s.33,1.71.5,2.53a11.2,11.2,0,0,1,.25,1.84,6.73,6.73,0,0,1-.1,1.2,6.48,6.48,0,0,0-.1,1.29,3.07,3.07,0,0,0,.25.69c.16.4.34.87.54,1.4s.38,1.06.55,1.59A4.73,4.73,0,0,1,342.64,353.69Z" transform="translate(-37.7 -302.78)"/><path class="cls-1" d="M382.61,302.78a8.23,8.23,0,0,1,2,.4c.89.27,1.85.58,2.88.95s2.07.76,3.13,1.19,2,.81,2.88,1.14a7.24,7.24,0,0,1,2.74,1.94,16.17,16.17,0,0,1,2.38,3.38,21.51,21.51,0,0,1,1.69,4.08,14,14,0,0,1,.65,4,22.18,22.18,0,0,1-.3,3.08,22.3,22.3,0,0,0-.3,3.18,7.59,7.59,0,0,0,.25,2.34,3.89,3.89,0,0,1,.25,1.44,2.84,2.84,0,0,1-.3,1.29,1.11,1.11,0,0,1-1.09.6.8.8,0,0,1-.6-.4,8.26,8.26,0,0,1-.59-.9c-.2-.33-.39-.62-.55-.89s-.28-.4-.35-.4a1.13,1.13,0,0,0-.69.35,1.2,1.2,0,0,1-.6.35c-.27,0-.58-.25-.95-.75s-.64-.74-.84-.74a1,1,0,0,0-1,.84,11.76,11.76,0,0,0-.14,1.84A10.54,10.54,0,0,1,393,333a1,1,0,0,1-1.05.85.84.84,0,0,1-.79-.35,2.5,2.5,0,0,1-.3-.85,5,5,0,0,1-.1-1,2,2,0,0,0-.3-1.05,13,13,0,0,0-1.24-1.88c-.43-.53-.65-1.66-.65-3.39,0-.26,0-.54.05-.84s.05-.71.05-1.24a51.08,51.08,0,0,0-.25-5.67q-.24-2.19-1.14-2.19c-.4,0-.75.42-1,1.25a9.26,9.26,0,0,0-.45,3.13,10.25,10.25,0,0,0,.35,2.43,11.06,11.06,0,0,1,.34,2.54,3.71,3.71,0,0,1-.24,1.39,1,1,0,0,1-1.05.6,1,1,0,0,1-.89-.6,6.62,6.62,0,0,1-.5-1.39,8.8,8.8,0,0,1-.25-1.54c0-.5-.05-.85-.05-1.05a14.53,14.53,0,0,1,.1-1.69,14.4,14.4,0,0,0,.1-1.69c0-1.32-.36-2-1.09-2a1.38,1.38,0,0,0-1.05.5,1.59,1.59,0,0,0-.44,1.09,4.11,4.11,0,0,0,.79,2.29,3.86,3.86,0,0,1,.8,1.79,2,2,0,0,1-.4,1.29,1.14,1.14,0,0,1-.9.5,1.58,1.58,0,0,1-.84-.2,1.7,1.7,0,0,0-.85-.2.55.55,0,0,0-.59.5,4.34,4.34,0,0,0-.1.9,8,8,0,0,0,.15,1.79,5.15,5.15,0,0,0,.34,1,6.81,6.81,0,0,1,.35.79,2.89,2.89,0,0,1,.15,1,7.24,7.24,0,0,1-.25,1.79c-.16.66-.33,1.33-.49,2l-.5,1.94a6.36,6.36,0,0,0-.25,1.64,3.76,3.76,0,0,0,.4,1.64,15.12,15.12,0,0,0,1.49,2.33,6.18,6.18,0,0,1,1.09,3.58,25.74,25.74,0,0,0,.2,3.78,14,14,0,0,1,.2,1.49,2.91,2.91,0,0,1-.45,1.39,3.1,3.1,0,0,1-1.64,1.3,2.35,2.35,0,0,0-1.14.64,1.25,1.25,0,0,0-.25.75,2.06,2.06,0,0,0,.7,1.24,2.27,2.27,0,0,1,.69,1.54,1.75,1.75,0,0,1-.59,1.2,3.31,3.31,0,0,0-.55,1.64c0,.56-.05,1.14-.05,1.74a2.41,2.41,0,0,0,.65,1.94,2.19,2.19,0,0,0,1.44.54,5,5,0,0,0,1.09-.2,5.73,5.73,0,0,1,1.29-.2,2.34,2.34,0,0,1,1.15.4,2.21,2.21,0,0,0,1.14.4,2.8,2.8,0,0,0,2.24-1.54,13,13,0,0,0,1.34-3.43,29,29,0,0,0,.7-4c.13-1.36.2-2.5.2-3.43a10.73,10.73,0,0,0-.1-1.64,6.62,6.62,0,0,1-.1-1.24c0-1,.29-1.49.89-1.49a2.18,2.18,0,0,1,1.34.49,1.92,1.92,0,0,0,1.15.5,1.51,1.51,0,0,0,1-.4,1.42,1.42,0,0,1,1-.39,2.07,2.07,0,0,1,1.09.29,2.26,2.26,0,0,0,1.19.3,1.8,1.8,0,0,0,1.05-.4,1.66,1.66,0,0,1,.84-.39,2.56,2.56,0,0,1,1.89,1.14,4.28,4.28,0,0,1,.6,2.34,5.63,5.63,0,0,1-.35,1.94c-.23.63-.47,1.26-.7,1.88s-.46,1.3-.69,2a6.87,6.87,0,0,0-.35,2.24,14.53,14.53,0,0,0,.1,1.69,20.91,20.91,0,0,1,.1,2.09,6.7,6.7,0,0,1-1.44,4.17,46.06,46.06,0,0,1-4.73,5,8,8,0,0,1-2.18,1.39,5.69,5.69,0,0,0-2.29,1.79,1.75,1.75,0,0,0-.35.74c-.1.37-.2.75-.3,1.15a4.25,4.25,0,0,1-.4,1q-.24.45-.54.45c-.2,0-.43-.2-.7-.6s-.54-.84-.84-1.34a10.21,10.21,0,0,0-1-1.34c-.33-.4-.63-.6-.89-.6a1,1,0,0,0-1,.8c-.13.53-.24,1.09-.34,1.69a13.93,13.93,0,0,1-.4,1.69,1.15,1.15,0,0,1-1.25.79c-.33,0-.54-.33-.64-1s-.2-1.38-.3-2.14a13.47,13.47,0,0,0-.45-2.14,1.19,1.19,0,0,0-1.19-1c-.4,0-.63.16-.7.49a11,11,0,0,0-.14,1.15q-.06.65-.15,1.14a.56.56,0,0,1-.6.5c-.27,0-.48-.22-.65-.65s-.33-.93-.49-1.49-.35-1.09-.55-1.59a1.54,1.54,0,0,0-.8-.94,3.19,3.19,0,0,0-.79-.3,1.5,1.5,0,0,1-.7-.4,3,3,0,0,1-.84-1.29c-.24-.6-.45-1.2-.65-1.79s-.37-1.13-.5-1.59-.26-.7-.39-.7-.22.18-.25.55-.22.54-.55.54c-.6,0-.89-1-.89-2.88a3.88,3.88,0,0,1,.24-1.59,2.82,2.82,0,0,0,.25-1.29c0-.6-.15-.95-.44-1s-.45-.41-.45-.94a4.87,4.87,0,0,1,.3-1.64,4.65,4.65,0,0,0,.29-1.14c0-.8-.1-1.2-.29-1.2a.48.48,0,0,0-.45.3.48.48,0,0,1-.45.3c-.33,0-.5-.23-.5-.7a6.52,6.52,0,0,1,.2-1.64c.13-.5.27-1.06.4-1.69s.27-1.37.4-2.24a22.51,22.51,0,0,0,.2-3.28q0-5.26-.3-11.93t-.3-13.82q0-10.53,5.67-13.12a37.48,37.48,0,0,0,3.88-1.84c1-.56,1.8-1,2.43-1.44s1.13-.71,1.49-.95A2,2,0,0,1,382.61,302.78Z" transform="translate(-37.7 -302.78)"/><path class="cls-1" d="M420.69,302.88a18.72,18.72,0,0,1,4.77.7,37.08,37.08,0,0,1,5.12,1.79,31.69,31.69,0,0,1,4.67,2.48,15.27,15.27,0,0,1,3.33,2.79,13.56,13.56,0,0,1,2.39,4.72,30.49,30.49,0,0,1,.8,8c0,2.52-.09,4.79-.25,6.81s-.37,3.89-.6,5.61-.43,3.38-.6,5a48.57,48.57,0,0,0-.24,4.87v3.68c0,2.18-.07,4-.2,5.36a32.59,32.59,0,0,1-.5,3.49,11.51,11.51,0,0,1-.7,2.28c-.26.6-.49,1.2-.69,1.79a13.85,13.85,0,0,0-.5,2,17.91,17.91,0,0,0-.2,2.93,37.36,37.36,0,0,1-.74,8.4c-.5,2-1.12,3-1.84,3a.9.9,0,0,1-.8-.55,9,9,0,0,1-.55-1.24,8.09,8.09,0,0,0-.54-1.25c-.2-.36-.44-.54-.7-.54-.66,0-1.06.48-1.19,1.44a21.78,21.78,0,0,0-.2,3.13,18,18,0,0,1-.25,3.13c-.17,1-.58,1.45-1.24,1.45a1.44,1.44,0,0,1-1-.5,5.33,5.33,0,0,1-.69-2.79c-.14-1.52-.25-2.65-.35-3.38s-.45-1.09-1-1.09a1.19,1.19,0,0,0-1.15.65,1,1,0,0,1-.94.64c-.4,0-.82-.33-1.25-1a2,2,0,0,0-1.74-1,1.19,1.19,0,0,0-1.14.9,20.06,20.06,0,0,0-.64,1.94q-.3,1-.6,1.89t-.9.84a1.77,1.77,0,0,1-1.29-.64,5.25,5.25,0,0,1-.7-1.5c-.19-.63-.39-1.39-.59-2.28a26.4,26.4,0,0,0-.9-3,29.28,29.28,0,0,0-1.09-2.88,9.51,9.51,0,0,0-.9-1.64,2.26,2.26,0,0,0-.69-.7,1.32,1.32,0,0,0-.6-.14,1.16,1.16,0,0,0-1.19.79,4.48,4.48,0,0,0-.3,1.59,8.12,8.12,0,0,0,.05.9c0,.26,0,.46,0,.59,0,.73-.4,1.1-1.19,1.1-.34,0-.67-.47-1-1.4a28.84,28.84,0,0,1-.94-3.43,41.72,41.72,0,0,1-.7-4.22,35.69,35.69,0,0,1-.25-3.78,20.56,20.56,0,0,1,.25-2.93c.17-1.1.37-2.19.6-3.28s.43-2.11.6-3a13.91,13.91,0,0,0,.24-2.28,7.34,7.34,0,0,0-.44-2.29c-.3-.86-.65-1.79-1.05-2.78a30.28,30.28,0,0,1-1-3.09,11.63,11.63,0,0,1-.45-3.18,19.42,19.42,0,0,1,.35-2.88c.23-1.33.5-2.7.79-4.13s.58-2.76.85-4a15.66,15.66,0,0,0,.4-2.79,4.72,4.72,0,0,0-.35-1.89,6.58,6.58,0,0,1-.35-2.48,9.42,9.42,0,0,1,.25-2c.16-.76.35-1.49.55-2.19s.38-1.32.54-1.89l.35-1.14a8.57,8.57,0,0,1,2.49-4.08,20.5,20.5,0,0,1,4-3,21.85,21.85,0,0,1,4-1.79A10.84,10.84,0,0,1,420.69,302.88Zm0,14.92c-.6,0-1,.38-1.3,1.14a6.39,6.39,0,0,0-.39,2,18.29,18.29,0,0,0,.39,3.88,15.69,15.69,0,0,1,.4,3.48c0,1.06,0,1.92-.05,2.58a14.5,14.5,0,0,1-.15,1.64c-.06.43-.11.81-.15,1.15s-.05.66-.05,1a17,17,0,0,0,.2,2.19c.13.93.3,1.89.5,2.88s.36,1.92.5,2.79a14.45,14.45,0,0,1,.2,1.88,23.27,23.27,0,0,1-.3,3.93c-.2,1.16-.43,2.26-.7,3.28s-.49,2-.69,3a14.28,14.28,0,0,0-.3,2.93,4.94,4.94,0,0,0,.79,2.29c.53,1.06,1,1.9,1.25,2.53a8.39,8.39,0,0,0,.84,1.49,1.86,1.86,0,0,0,.8.7,3.54,3.54,0,0,0,1.19.15,4,4,0,0,0,2.88-1.15,3.74,3.74,0,0,0,1.2-2.83,8.84,8.84,0,0,0-.15-1.29,9.05,9.05,0,0,1-.15-1.39c0-.2,0-.58.05-1.15s.05-1.27.05-2.14,0-2-.1-3.43-.1-2.5-.1-3.23v-1.24a5,5,0,0,1,.1-1c.06-.33.15-.72.25-1.15s.24-1,.44-1.64a11.16,11.16,0,0,0,.6-3.58,28.11,28.11,0,0,0-.65-6,36.77,36.77,0,0,1-.64-7.56,13.6,13.6,0,0,1,.44-3.58,12,12,0,0,0,.45-3.28,4.38,4.38,0,0,0-.45-2,1.65,1.65,0,0,0-1.64-.89q-.39,0-.69.84c-.2.57-.4,1.18-.6,1.84s-.41,1.28-.64,1.84-.49.85-.75.85-.48-.2-.65-.6-.34-.83-.54-1.29a7.68,7.68,0,0,0-.7-1.3A1.19,1.19,0,0,0,420.69,317.8Z" transform="translate(-37.7 -302.78)"/><path class="cls-1" d="M476.17,308.15a5.38,5.38,0,0,1,.29,1.59,10.36,10.36,0,0,1-.44,2.89,8.83,8.83,0,0,0-.45,2c0,.79,0,1.72.1,2.78s.15,2.11.25,3.13.18,2,.25,2.89.09,1.6.09,2.13c0,1.06-.49,1.59-1.49,1.59-.33,0-.49-.39-.49-1.19a6.91,6.91,0,0,1,.3-2,6.12,6.12,0,0,0,.29-1.59c0-.4-.26-.6-.79-.6a2.63,2.63,0,0,0-.95.3,2.79,2.79,0,0,1-.84.3.88.88,0,0,1-1-1,4.28,4.28,0,0,1,.3-1,3.87,3.87,0,0,0,.3-1.29,3.14,3.14,0,0,0-.5-1.69,1.48,1.48,0,0,0-1.29-.8,1.24,1.24,0,0,0-1.24.8,3.62,3.62,0,0,0-.35,1.49c0,.33.06,1.21.2,2.64s.2,2.93.2,4.52c0,1.33-.24,2-.7,2a1.53,1.53,0,0,1-1.64-1.09,10.8,10.8,0,0,1-.45-2.29c0-.27,0-.8-.05-1.59a22.25,22.25,0,0,0-.24-2.49,15.08,15.08,0,0,0-.55-2.33c-.24-.7-.55-1.05-.95-1.05s-.61.25-.84.75-.45.74-.65.74a2.54,2.54,0,0,1-.5-.05,3.38,3.38,0,0,0-.49-.05,1.14,1.14,0,0,0-1,.45,1.66,1.66,0,0,0-.34,1,6.66,6.66,0,0,0,.09.9c.07.4.15.81.25,1.24l.3,1.29a4.93,4.93,0,0,1,.15,1.05,5.34,5.34,0,0,1-.3,1.69c-.2.6-.41,1.21-.64,1.84s-.45,1.21-.65,1.74a3.81,3.81,0,0,0-.3,1.19,3,3,0,0,0,.55,1.64,1.57,1.57,0,0,0,1.34.85,3.93,3.93,0,0,0,2.24-.7,4,4,0,0,1,2.24-.7,3.54,3.54,0,0,1,1.49.45A3.75,3.75,0,0,0,469,333a3.52,3.52,0,0,0,1.19-.25,2.43,2.43,0,0,0,.89-.45c.73,0,1.1.34,1.1,1a5.91,5.91,0,0,1-.2,1.59c-.13.46-.3,1-.5,1.49a11.27,11.27,0,0,0-.49,1.79,12.38,12.38,0,0,0-.2,2.49c0,1.06.05,2.15.15,3.28s.18,2.22.24,3.28-.49,1.69-1.49,1.69a1,1,0,0,1-1-.8,11.94,11.94,0,0,1-.4-1.69,12.28,12.28,0,0,0-.4-1.69,1,1,0,0,0-.94-.79,1.22,1.22,0,0,0-.8.34,10,10,0,0,0-.79.8,10.06,10.06,0,0,1-.8.8,1.2,1.2,0,0,1-.79.34q-.21,0-.6-.39l-.84-.85a8.23,8.23,0,0,0-1-.84,1.67,1.67,0,0,0-.94-.4,1.32,1.32,0,0,0-1.4.84,6.83,6.83,0,0,0-.29,2.14,12,12,0,0,0,.54,3.68,10.77,10.77,0,0,1,.55,3.38,7.24,7.24,0,0,1-.4,2.68,4.79,4.79,0,0,0-.4,1.4,49.84,49.84,0,0,0,.35,6.51,38.67,38.67,0,0,1,.35,5.22c0,.53,0,1.31-.1,2.34s-.18,2-.35,3a11,11,0,0,1-.74,2.63c-.34.76-.73,1.15-1.19,1.15a2.14,2.14,0,0,1-.85-.2.88.88,0,0,1-.45-.9,5,5,0,0,1,.25-1.69,3.51,3.51,0,0,0,.25-.89c0-.6-.27-.9-.8-.9a1,1,0,0,0-1,.65,1,1,0,0,1-1,.65,1.29,1.29,0,0,1-1-.45,11.49,11.49,0,0,1-.74-.95l-.7-.94a1,1,0,0,0-.75-.45c-.19,0-.46,0-.79.05l-.7,0c-.93,0-1.39-.5-1.39-1.49a3.58,3.58,0,0,1,.45-1.79,3.19,3.19,0,0,0,.44-1.59,31.32,31.32,0,0,0-.19-3.88,43.68,43.68,0,0,1,.39-11.33,16.47,16.47,0,0,0,.6-3.78,4.28,4.28,0,0,0-.2-1.24,8.51,8.51,0,0,0-2.09-2.44,1.9,1.9,0,0,1-.69-1.49,2.57,2.57,0,0,1,.4-1.49l.94-1.44a8.77,8.77,0,0,0,.95-2.29,16.74,16.74,0,0,0,.39-4.13,21.88,21.88,0,0,0-.35-4.32c-.23-1.16-.48-2.27-.74-3.33s-.52-2.16-.75-3.29a21.82,21.82,0,0,1-.35-4.27,13.68,13.68,0,0,1,.9-4.87,12.71,12.71,0,0,0,.9-4.48,4.73,4.73,0,0,0-.55-1.64,4.48,4.48,0,0,1-.55-1.84c0-1,.53-1.49,1.59-1.49a5.1,5.1,0,0,1,2.09.5,6,6,0,0,0,2.49.5,6.53,6.53,0,0,0,1.44-.25,6.13,6.13,0,0,1,1.54-.25,7,7,0,0,1,1.69.25,7.23,7.23,0,0,0,1.59.25,12.71,12.71,0,0,0,2.63-.45,14.2,14.2,0,0,1,3.34-.45,15.92,15.92,0,0,1,3,.35c1.16.23,1.8.35,1.94.35a3.29,3.29,0,0,0,1.34-.35,3.86,3.86,0,0,1,1.64-.35,1.81,1.81,0,0,1,1.49,1.1Z" transform="translate(-37.7 -302.78)"/><path class="cls-1" d="M507.58,308.15a5.12,5.12,0,0,1,.3,1.59,10,10,0,0,1-.45,2.89,9.21,9.21,0,0,0-.44,2c0,.79,0,1.72.1,2.78s.15,2.11.25,3.13.18,2,.24,2.89.1,1.6.1,2.13c0,1.06-.49,1.59-1.49,1.59-.33,0-.5-.39-.5-1.19a6.91,6.91,0,0,1,.3-2,5.8,5.8,0,0,0,.3-1.59c0-.4-.26-.6-.79-.6a2.63,2.63,0,0,0-.95.3,2.79,2.79,0,0,1-.84.3.88.88,0,0,1-1-1,4.28,4.28,0,0,1,.3-1,3.87,3.87,0,0,0,.3-1.29,3.14,3.14,0,0,0-.5-1.69,1.48,1.48,0,0,0-1.29-.8,1.24,1.24,0,0,0-1.24.8,3.62,3.62,0,0,0-.35,1.49c0,.33.06,1.21.2,2.64s.2,2.93.2,4.52c0,1.33-.24,2-.7,2A1.53,1.53,0,0,1,498,327a10.8,10.8,0,0,1-.45-2.29c0-.27,0-.8-.05-1.59a22.33,22.33,0,0,0-.25-2.49,14,14,0,0,0-.54-2.33c-.24-.7-.55-1.05-.95-1.05s-.61.25-.84.75-.45.74-.65.74a2.54,2.54,0,0,1-.5-.05,3.38,3.38,0,0,0-.49-.05,1.14,1.14,0,0,0-.95.45,1.67,1.67,0,0,0-.35,1,7.08,7.08,0,0,0,.1.9c.07.4.15.81.25,1.24l.3,1.29a4.93,4.93,0,0,1,.15,1.05,5.34,5.34,0,0,1-.3,1.69c-.2.6-.41,1.21-.65,1.84s-.44,1.21-.64,1.74a3.81,3.81,0,0,0-.3,1.19,3,3,0,0,0,.55,1.64,1.57,1.57,0,0,0,1.34.85,3.93,3.93,0,0,0,2.24-.7,4,4,0,0,1,2.23-.7,3.54,3.54,0,0,1,1.5.45,3.72,3.72,0,0,0,1.69.45,3.57,3.57,0,0,0,1.19-.25,2.43,2.43,0,0,0,.89-.45c.73,0,1.1.34,1.1,1a5.91,5.91,0,0,1-.2,1.59c-.14.46-.3,1-.5,1.49a12.41,12.41,0,0,0-.5,1.79,13.17,13.17,0,0,0-.2,2.49c0,1.06.05,2.15.15,3.28s.19,2.22.25,3.28-.49,1.69-1.49,1.69a1,1,0,0,1-1-.8,11.94,11.94,0,0,1-.4-1.69,12.28,12.28,0,0,0-.4-1.69,1,1,0,0,0-.94-.79,1.22,1.22,0,0,0-.8.34,10,10,0,0,0-.79.8,10.06,10.06,0,0,1-.8.8,1.22,1.22,0,0,1-.79.34q-.21,0-.6-.39l-.85-.85a7.43,7.43,0,0,0-1-.84,1.69,1.69,0,0,0-1-.4,1.3,1.3,0,0,0-1.39.84,6.52,6.52,0,0,0-.3,2.14,12,12,0,0,0,.55,3.68,10.77,10.77,0,0,1,.55,3.38,7.45,7.45,0,0,1-.4,2.68,4.49,4.49,0,0,0-.4,1.4,49.84,49.84,0,0,0,.35,6.51,38.67,38.67,0,0,1,.35,5.22c0,.53,0,1.31-.1,2.34s-.18,2-.35,3a11.52,11.52,0,0,1-.74,2.63c-.34.76-.73,1.15-1.2,1.15a2.14,2.14,0,0,1-.84-.2.88.88,0,0,1-.45-.9,5,5,0,0,1,.25-1.69,4,4,0,0,0,.25-.89c0-.6-.27-.9-.8-.9a1,1,0,0,0-1,.65,1,1,0,0,1-1.05.65,1.27,1.27,0,0,1-1-.45,11.6,11.6,0,0,1-.75-.95c-.23-.33-.46-.64-.69-.94a1,1,0,0,0-.75-.45c-.2,0-.46,0-.79.05l-.7,0c-.93,0-1.39-.5-1.39-1.49a3.58,3.58,0,0,1,.45-1.79,3.29,3.29,0,0,0,.44-1.59,29.22,29.22,0,0,0-.2-3.88,34.25,34.25,0,0,1-.19-4.17,31.7,31.7,0,0,1,.59-7.16,16.47,16.47,0,0,0,.6-3.78,4.28,4.28,0,0,0-.2-1.24,8.51,8.51,0,0,0-2.09-2.44,1.9,1.9,0,0,1-.69-1.49,2.64,2.64,0,0,1,.39-1.49l.95-1.44a8.45,8.45,0,0,0,.94-2.29,16.18,16.18,0,0,0,.4-4.13,22.67,22.67,0,0,0-.35-4.32c-.23-1.16-.48-2.27-.74-3.33s-.52-2.16-.75-3.29a21.82,21.82,0,0,1-.35-4.27,13.68,13.68,0,0,1,.9-4.87,12.91,12.91,0,0,0,.89-4.48,4.65,4.65,0,0,0-.54-1.64,4.48,4.48,0,0,1-.55-1.84c0-1,.53-1.49,1.59-1.49a5.1,5.1,0,0,1,2.09.5,6,6,0,0,0,2.48.5,6.7,6.7,0,0,0,1.45-.25,6.13,6.13,0,0,1,1.54-.25,7,7,0,0,1,1.69.25,7.23,7.23,0,0,0,1.59.25,12.71,12.71,0,0,0,2.63-.45,14.19,14.19,0,0,1,3.33-.45,16,16,0,0,1,3,.35c1.15.23,1.8.35,1.93.35a3.3,3.3,0,0,0,1.35-.35,3.83,3.83,0,0,1,1.64-.35,1.81,1.81,0,0,1,1.49,1.1Z" transform="translate(-37.7 -302.78)"/><path class="cls-1" d="M539.6,365.42a4.73,4.73,0,0,1-.45,1.84,4.64,4.64,0,0,0-.45,1.74c0,.27,0,.68.1,1.25a15.88,15.88,0,0,1,.1,1.93c0,1.13-.49,1.69-1.49,1.69a5.27,5.27,0,0,1-.94-.14l-1.4-.35c-.49-.14-1-.25-1.49-.35a6.23,6.23,0,0,0-1.14-.15,2,2,0,0,0-2.09,2.09,5.63,5.63,0,0,0,.65,2,5.72,5.72,0,0,1,.45,2.73,1.76,1.76,0,0,1-.15.85c-.1.16-.39.24-.85.24s-.76-.38-1.09-1.14-.67-1.61-1-2.53a27.22,27.22,0,0,0-1-2.54c-.37-.76-.78-1.14-1.24-1.14a2.06,2.06,0,0,0-1.79,1,3.34,3.34,0,0,0-.7,1.54,2.12,2.12,0,0,0,.3,1.1,1.9,1.9,0,0,1,.3,1,2.74,2.74,0,0,1-.4,1.79,1.38,1.38,0,0,1-1,.4,1.86,1.86,0,0,1-1.74-.95,9.35,9.35,0,0,1-.9-2.13c-.23-.8-.45-1.51-.65-2.14s-.49-.95-.89-.95c-.13,0-.37.25-.7.75a1.41,1.41,0,0,1-1.19.74,2.75,2.75,0,0,1-1.44-.74,2.79,2.79,0,0,0-1.44-.75,1.7,1.7,0,0,0-.8.3,1.71,1.71,0,0,1-.79.3.94.94,0,0,1-.95-.55,4.48,4.48,0,0,1-.35-1.29,8.25,8.25,0,0,1,0-1.49,2.86,2.86,0,0,0-.05-1.05v-1.88c0-.27,0-.67.05-1.2s0-1,0-1.29v-2.19c0-.79,0-1.79.1-3s.15-2.44.25-3.73.18-2.53.25-3.73.1-2.18.1-3a9.83,9.83,0,0,1,.2-1.94c.13-.69.28-1.34.45-1.94s.31-1.11.44-1.54a3.44,3.44,0,0,0,.2-.84c0-.93-.5-1.4-1.49-1.4a2.05,2.05,0,0,0-.7.15,2,2,0,0,1-.69.15.71.71,0,0,1-.75-.59,4.59,4.59,0,0,1-.15-1.1,7,7,0,0,1,.05-.79,4.74,4.74,0,0,1,.35-1.1,9.67,9.67,0,0,0,1.15-3.58,30.75,30.75,0,0,0,.24-3.68,14.32,14.32,0,0,1,.65-4.52,12.08,12.08,0,0,0,.65-3.83,3.38,3.38,0,0,0-.15-.84c-.1-.37-.22-.78-.35-1.25s-.25-.94-.35-1.44a6.44,6.44,0,0,1-.15-1.24,17.06,17.06,0,0,1,.1-1.79,16.33,16.33,0,0,0,.1-1.69,7.33,7.33,0,0,0-.25-1.64,8.45,8.45,0,0,1-.25-1.84,3.12,3.12,0,0,1,.15-.89,3.19,3.19,0,0,0,.15-.9,2.58,2.58,0,0,0-.5-1.29,2.75,2.75,0,0,1-.49-1.39,1.83,1.83,0,0,1,1-1.74,5.85,5.85,0,0,1,2.74-.55c.19,0,.49,0,.89.05s.76.05,1.09.05a3.38,3.38,0,0,0,2-.45,2.76,2.76,0,0,1,1.69-.45,2.57,2.57,0,0,1,1.4.45,2.3,2.3,0,0,0,1.19.45,1.24,1.24,0,0,0,.84-.3,1.78,1.78,0,0,1,1.15-.3,4.38,4.38,0,0,1,2.33.8,4.39,4.39,0,0,0,2.34.79,2.6,2.6,0,0,0,1.54-.54,3,3,0,0,1,1.84-.55,2.22,2.22,0,0,1,1.19.25,1.65,1.65,0,0,0,1.89-.1,2.84,2.84,0,0,1,1.59-.35c.33,0,.62.37.85,1.09a14.73,14.73,0,0,1,.35,3.88c0,.66.06,1.66.2,3s.29,2.76.49,4.28.37,3,.5,4.52.2,2.67.2,3.53c0,1.26-.66,1.89-2,1.89-.93,0-1.39-.49-1.39-1.49a8.82,8.82,0,0,1,0-.89c0-.4.05-.8.05-1.2a9.29,9.29,0,0,1,0-1.09c0-.33,0-.53,0-.6,0-1.72-.07-3.23-.2-4.52s-.37-1.94-.7-1.94-.73.35-.79,1-.12,1.45-.15,2.24a16.85,16.85,0,0,1-.25,2.24c-.13.69-.43,1-.9,1a1,1,0,0,1-1.09-.79c-.26-1.13-.46-1.94-.6-2.44a6.12,6.12,0,0,0-.39-1.14c-.67-.47-1.3-.88-1.89-1.24a3.39,3.39,0,0,0-1.79-.55,2,2,0,0,0-1.3.4,4.77,4.77,0,0,0-.84.84l-.65.85a.86.86,0,0,1-.69.39,2,2,0,0,1-.75-.1,1.58,1.58,0,0,0-.55-.1,2.08,2.08,0,0,0-2.18,1.55,12.59,12.59,0,0,0-.5,3.82,12,12,0,0,0,.6,3.93,11.27,11.27,0,0,0,1.44,2.93,6.62,6.62,0,0,0,1.74,1.79,2.89,2.89,0,0,0,1.49.6,5.37,5.37,0,0,0,.65-.1c.36-.06.76-.15,1.19-.25l1.19-.25a6.47,6.47,0,0,1,.75-.1,17.23,17.23,0,0,1,2.43-.24c.9,0,1.48-.05,1.74-.05a1.42,1.42,0,0,1,1.25.69,3.25,3.25,0,0,1,.44,1.79,4.79,4.79,0,0,1-.44,1.59,5.12,5.12,0,0,0-.45,1.89,9.09,9.09,0,0,0,.3,2c.2.83.41,1.68.64,2.54s.45,1.67.65,2.43a7.46,7.46,0,0,1,.3,1.74,5.57,5.57,0,0,1-.85,2.84c-.56,1-1.07,1.44-1.54,1.44a1,1,0,0,1-1-.85,19,19,0,0,1-.35-1.89,10.07,10.07,0,0,0-.45-1.89,1.16,1.16,0,0,0-1.19-.84.92.92,0,0,0-1,.59,3.76,3.76,0,0,0-.2,1.25,5.07,5.07,0,0,1-.15,1.24.71.71,0,0,1-.75.6.89.89,0,0,1-.79-.5,11.85,11.85,0,0,1-.6-1.14c-.2-.43-.4-.81-.6-1.15a.83.83,0,0,0-.69-.49,3.14,3.14,0,0,1-1.05-.2,3.08,3.08,0,0,0-1-.2q-1.29,0-1.29,1a6.72,6.72,0,0,0,.35,1.79,19.75,19.75,0,0,1,.34,4.58,7.75,7.75,0,0,1-.69,2.78,7.43,7.43,0,0,0-.7,2.49,3.53,3.53,0,0,0,1.24,2.43c.83.83,2.31,1.24,4.43,1.24a9.39,9.39,0,0,0,1-.05c.37,0,.78,0,1.24,0a11.65,11.65,0,0,1,2.69.39,10.92,10.92,0,0,0,2.58.4,3.77,3.77,0,0,0,.65-.05,5.78,5.78,0,0,1,.75-.05,3.46,3.46,0,0,1,3.08,3.08Z" transform="translate(-37.7 -302.78)"/><path class="cls-1" d="M574.3,365.42a4.73,4.73,0,0,1-.45,1.84,4.64,4.64,0,0,0-.45,1.74c0,.27,0,.68.1,1.25a15.88,15.88,0,0,1,.1,1.93c0,1.13-.5,1.69-1.49,1.69a5.27,5.27,0,0,1-.94-.14l-1.4-.35c-.49-.14-1-.25-1.49-.35a6.23,6.23,0,0,0-1.14-.15,2,2,0,0,0-2.09,2.09,5.63,5.63,0,0,0,.65,2,5.75,5.75,0,0,1,.44,2.73,1.78,1.78,0,0,1-.14.85c-.1.16-.39.24-.85.24s-.76-.38-1.09-1.14-.67-1.61-1-2.53a27.22,27.22,0,0,0-1-2.54c-.37-.76-.78-1.14-1.24-1.14a2.06,2.06,0,0,0-1.79,1,3.34,3.34,0,0,0-.7,1.54,2.12,2.12,0,0,0,.3,1.1,1.9,1.9,0,0,1,.3,1,2.74,2.74,0,0,1-.4,1.79,1.39,1.39,0,0,1-1,.4,1.88,1.88,0,0,1-1.74-.95,9.8,9.8,0,0,1-.89-2.13c-.23-.8-.45-1.51-.65-2.14s-.49-.95-.89-.95c-.13,0-.37.25-.7.75a1.41,1.41,0,0,1-1.19.74,2.75,2.75,0,0,1-1.44-.74,2.79,2.79,0,0,0-1.44-.75,1.7,1.7,0,0,0-.8.3,1.71,1.71,0,0,1-.79.3.94.94,0,0,1-1-.55,4.48,4.48,0,0,1-.35-1.29,8.25,8.25,0,0,1,0-1.49,2.86,2.86,0,0,0-.05-1.05v-1.88c0-.27,0-.67.05-1.2s0-1,0-1.29v-2.19c0-.79,0-1.79.1-3s.15-2.44.25-3.73.18-2.53.25-3.73.1-2.18.1-3a9.83,9.83,0,0,1,.2-1.94c.13-.69.28-1.34.45-1.94s.31-1.11.44-1.54a4,4,0,0,0,.2-.84c0-.93-.5-1.4-1.49-1.4a2.05,2.05,0,0,0-.7.15,2,2,0,0,1-.69.15.71.71,0,0,1-.75-.59,4.59,4.59,0,0,1-.15-1.1,7,7,0,0,1,0-.79,4.74,4.74,0,0,1,.35-1.1,9.48,9.48,0,0,0,1.14-3.58,28.92,28.92,0,0,0,.25-3.68,14.32,14.32,0,0,1,.65-4.52,12.08,12.08,0,0,0,.65-3.83,3.38,3.38,0,0,0-.15-.84c-.1-.37-.22-.78-.35-1.25s-.25-.94-.35-1.44a6.44,6.44,0,0,1-.15-1.24,17.06,17.06,0,0,1,.1-1.79,16.33,16.33,0,0,0,.1-1.69,7.33,7.33,0,0,0-.25-1.64,7.88,7.88,0,0,1-.25-1.84,3.12,3.12,0,0,1,.15-.89,3.19,3.19,0,0,0,.15-.9,2.68,2.68,0,0,0-.5-1.29,2.75,2.75,0,0,1-.49-1.39,1.83,1.83,0,0,1,1-1.74,5.84,5.84,0,0,1,2.73-.55c.2,0,.5,0,.9.05s.76.05,1.09.05a3.38,3.38,0,0,0,2-.45,2.76,2.76,0,0,1,1.69-.45,2.52,2.52,0,0,1,1.39.45,2.36,2.36,0,0,0,1.2.45,1.24,1.24,0,0,0,.84-.3,1.74,1.74,0,0,1,1.15-.3,4.4,4.4,0,0,1,2.33.8,4.39,4.39,0,0,0,2.34.79,2.6,2.6,0,0,0,1.54-.54,3,3,0,0,1,1.84-.55,2.22,2.22,0,0,1,1.19.25,1.65,1.65,0,0,0,1.89-.1,2.84,2.84,0,0,1,1.59-.35c.33,0,.61.37.85,1.09a14.73,14.73,0,0,1,.35,3.88c0,.66.06,1.66.19,3s.3,2.76.5,4.28.37,3,.5,4.52.2,2.67.2,3.53c0,1.26-.67,1.89-2,1.89-.93,0-1.39-.49-1.39-1.49A8.82,8.82,0,0,1,571,325c0-.4,0-.8,0-1.2a9.29,9.29,0,0,1,.05-1.09c0-.33,0-.53,0-.6,0-1.72-.07-3.23-.2-4.52s-.37-1.94-.7-1.94-.73.35-.79,1-.12,1.45-.15,2.24a16.85,16.85,0,0,1-.25,2.24c-.14.69-.43,1-.9,1a1,1,0,0,1-1.09-.79c-.27-1.13-.47-1.94-.6-2.44a6.12,6.12,0,0,0-.39-1.14c-.67-.47-1.3-.88-1.89-1.24a3.39,3.39,0,0,0-1.79-.55,2,2,0,0,0-1.3.4,4.77,4.77,0,0,0-.84.84l-.65.85a.86.86,0,0,1-.69.39,2,2,0,0,1-.75-.1,1.58,1.58,0,0,0-.55-.1,2.08,2.08,0,0,0-2.18,1.55,12.29,12.29,0,0,0-.5,3.82,12,12,0,0,0,.6,3.93,11,11,0,0,0,1.44,2.93,6.62,6.62,0,0,0,1.74,1.79,2.86,2.86,0,0,0,1.49.6,5.69,5.69,0,0,0,.65-.1c.36-.06.76-.15,1.19-.25l1.19-.25a6.21,6.21,0,0,1,.75-.1,17.23,17.23,0,0,1,2.43-.24c.9,0,1.48-.05,1.74-.05a1.42,1.42,0,0,1,1.25.69,3.34,3.34,0,0,1,.44,1.79,5.05,5.05,0,0,1-.44,1.59,5.12,5.12,0,0,0-.45,1.89,9.09,9.09,0,0,0,.3,2c.2.83.41,1.68.64,2.54s.45,1.67.65,2.43a7.46,7.46,0,0,1,.3,1.74,5.66,5.66,0,0,1-.85,2.84c-.56,1-1.08,1.44-1.54,1.44a1,1,0,0,1-1-.85,19,19,0,0,1-.35-1.89,10.07,10.07,0,0,0-.45-1.89,1.16,1.16,0,0,0-1.19-.84.92.92,0,0,0-1,.59,3.76,3.76,0,0,0-.2,1.25,5.07,5.07,0,0,1-.15,1.24.71.71,0,0,1-.75.6.89.89,0,0,1-.79-.5,11.85,11.85,0,0,1-.6-1.14c-.2-.43-.4-.81-.6-1.15a.83.83,0,0,0-.69-.49,3.14,3.14,0,0,1-1-.2,3.08,3.08,0,0,0-1-.2q-1.29,0-1.29,1a7,7,0,0,0,.34,1.79,19.58,19.58,0,0,1,.35,4.58,7.75,7.75,0,0,1-.69,2.78,7.43,7.43,0,0,0-.7,2.49,3.53,3.53,0,0,0,1.24,2.43c.83.83,2.3,1.24,4.43,1.24a9.39,9.39,0,0,0,1-.05c.36,0,.78,0,1.24,0a11.65,11.65,0,0,1,2.69.39,10.92,10.92,0,0,0,2.58.4,3.77,3.77,0,0,0,.65-.05,5.74,5.74,0,0,1,.74-.05,3.46,3.46,0,0,1,3.09,3.08Z" transform="translate(-37.7 -302.78)"/></svg>